<svg xmlns="http://www.w3.org/2000/svg" width="245" height="110" viewBox="0.8 -0.3 245 110">
  <path fill="#221F23" d="M240.8 55.4l-.2 1.3c-.4 5.1-2.3 9.5-6 13-2.6 2.5-5.7 4-9.1 4.8-4.3 1-8.5 1-12.7-.2a18.9 18.9 0 0 1-13-12 24 24 0 0 1-.2-16.2c1.9-5.7 5.7-9.7 11.2-12a25 25 0 0 1 12.9-1.3c3.7.5 7 1.8 9.8 4.2 2.1 1.7 3.6 3.9 4.9 6.3.2.4 0 .5-.4.6l-5.2 2.2-3.4 1.4c-.7.3-.7.3-1-.4-1-1.8-2.2-3.4-4-4.4a10 10 0 0 0-13.4 4.2 15.8 15.8 0 0 0-1.6 8.6c.2 2.3.8 4.5 2 6.4 2 3 4.9 4.1 8.2 4.2a10 10 0 0 0 6-1.4 7 7 0 0 0 3-4.6c0-.5-.3-.5-.7-.5h-7.1c-.8 0-.8 0-.8-.8v-6.6c0-.7 0-.7.7-.7h20.1v4zM27 5.4l.2.7v6.4c0 .6.1.8.7.8H34c.6 0 .7-.2.7-.7V6c0-.5.1-.7.6-.7h4c.5 0 .7.2.7.7v18.8c0 .7 0 .8-.8.8h-3.8c-.5 0-.7-.2-.7-.7v-6.8c0-.9 0-.9-.8-.9h-6c-.8 0-.8 0-.8.8v6.8c0 .7 0 .8-.8.8h-3.8c-.5 0-.7-.2-.7-.7V6c0-.5.2-.6.6-.6H27z"/>
  <path d="M55.7 5.4l.1.9v3c0 .4-.1.6-.6.5h-5c-.5 0-.7.2-.7.7v2.2c0 .4.2.6.7.6h4.6c.5 0 .7.1.7.6v3.2c0 .5-.2.6-.7.6h-4.4c-.8 0-.8 0-.8.8v2c0 .6.1.8.6.7h5c.5 0 .6.2.6.7V25c0 .5-.1.7-.6.7H45c-.5 0-.7-.2-.7-.7V6c0-.5.2-.6.7-.6H55.6z"/>
  <path fill="#221F23" d="M19.4 5.4l.2.5v3.4c0 .4-.2.6-.6.5h-3c-.6 0-.8.2-.8.8v14.2c0 .8 0 .8-.8.8h-3.6c-.8 0-.8 0-.8-.8V10.7c0-.9 0-.9-.9-.9H5.7V5.4h13.7zM64.2 75.3A23 23 0 0 1 49 70c-3.6-3.2-6-7.1-6.8-11.9a20.9 20.9 0 0 1 15.5-24.7 25 25 0 0 1 12.3-.1 20.5 20.5 0 0 1 15.5 13.6 21 21 0 0 1-17 28c-1.4.3-2.9.4-4.3.5zM180.4 58v-.6l.1-23c0-.8 0-.8.8-.8h9c.5 0 .6.2.6.7v39.1c0 .5-.1.7-.7.7h-9c-.5 0-.9-.2-1.2-.5-5-6.6-10.2-13-15.3-19.6l-3-4-.4-.5-.3.2v23.6c0 .8 0 .8-.7.8h-9.1c-.5 0-.7-.2-.7-.7v-39c0-.8 0-.8.7-.8h9.2c.4 0 .7.2 1 .5l18.5 23.6.3.6.2-.2zM29.5 52.5c1 .3 1.8.5 2.6.9 3 1.2 4.9 3.5 5.3 6.7.4 2.5.3 5-.8 7.3-1.3 3-3.7 4.9-6.8 5.8-2 .7-4.1.9-6.2.9H7.5c-.6 0-.8-.2-.8-.7V34.3c0-.5.1-.7.7-.7h16c2 0 4 .5 5.9 1.6a8.4 8.4 0 0 1 4.2 5.8c.4 2 .4 4.2 0 6.3-.6 2-1.8 3.5-3.4 4.7l-.6.5zm-12.3 9.1v3.8c0 .3 0 .6.5.6 1.8-.1 3.7-.1 5.5-.3.8-.1 1.6-.5 2.3-1 1.3-.8 1.7-2.2 1.5-3.7-.2-1.7-1.3-2.7-2.9-3.1-2-.7-4.2-.6-6.4-.6-.4 0-.5.2-.5.6v3.7zm0-16V49c0 .4.2.6.5.5 1.2 0 2.4 0 3.6-.2 1.6-.3 2.6-1.3 2.8-3 .3-2-.5-3.6-2.2-4.2-1.4-.6-2.9-.5-4.3-.4l-.4.6v3.3zM126.9 74H114.6c-.5 0-.8 0-1-.5l-9.1-14-.6-.6v14.5c0 .7 0 .7-.8.7h-9c-.7 0-.7 0-.7-.8V34.4c0-.5 0-.8.6-.8h16.4c3 0 5.7.8 8.1 2.6 2.7 2 4 4.8 4.5 8 .3 2.2.1 4.5-.7 6.7a9.9 9.9 0 0 1-6.5 6.2l-.8.2c-.6.2-.7.3-.3.8l3.8 5 8 10.4.4.5zm-23-27.3v4.4c0 .4 0 .7.5.6 1.4 0 2.9 0 4.3-.4a4.4 4.4 0 0 0 3.6-4.2c.1-2.5-1-4.2-3.2-5-1.5-.4-3-.4-4.6-.4-.5 0-.7.1-.6.6v4.4zM142 53.9v19.6c0 .4-.2.6-.6.6H132c-.5 0-.7-.2-.7-.7V56.7 34.4c0-.8 0-.8.8-.8h9c.8 0 .8 0 .8.8v19.5zM148.2 92.3l-.2.5-4.1 10c-.2.5-.5.7-1 .7-1.7 0-1.3.2-1.9-1.3l-3.7-9.5c0-.2-.2-.3-.3-.5h-.1l-.3 2c-.5 2.9-1 5.8-1.3 8.8 0 .4-.2.5-.6.5h-4.2c-.5 0-.5-.3-.4-.6l.6-3.8 1.5-8.4 1.1-6.8c0-.4.3-.6.8-.6h3.8c.5 0 .8.1 1 .6 1 2.9 2 5.7 3.2 8.6l.5 1.3h.2l.5-1.4 3.2-8.5c.2-.5.4-.6.8-.6h4c.5 0 .6.1.7.5l2.3 13.4 1 5.7c0 .5-.1.6-.6.6h-4c-.4 0-.6-.2-.7-.6l-.9-6.1c-.2-1.4-.3-2.7-.6-4l-.1-.5h-.2zM202.7 91.3v.8l-.1 10.6c0 .8 0 .8-.8.8H198c-.4 0-.6-.1-.6-.6v-19c0-.4.1-.6.6-.6h4.2c.2 0 .6.2.7.4l8.8 11.2.6.6v-.8V84c0-.7 0-.7.8-.7h3.8c.5 0 .7 0 .7.6v19c0 .5-.2.6-.7.6h-4c-.4 0-.7-.1-1-.5l-8.7-11.2-.5-.5zM116.5 104.1c-4.4-.2-8-1.7-10-5.6a10.5 10.5 0 0 1 6.5-15.3c3.7-1 7.2-.6 10.3 1.7a10 10 0 0 1 4.2 8.7c0 5.2-3.6 9.3-8.8 10.2l-2.2.3zm-5.9-10.7c0 3.1 2.5 5.6 5.7 5.6s5.7-2.5 5.7-5.6c0-3.1-2.5-5.6-5.7-5.6a5.6 5.6 0 0 0-5.7 5.6zM192.1 103.5h-2c-.5 0-.7-.2-.9-.7l-.8-2.3c-.1-.4-.3-.6-.7-.6h-6.5c-.4 0-.6.2-.7.6l-.9 2.5c0 .4-.3.5-.6.5h-4.6c-.4 0-.5-.1-.3-.6l7.2-19c.2-.4.4-.7 1-.6h4.4c.5 0 .7.1.8.5l6.5 17 .8 2c.2.5 0 .7-.4.7H192zm-7.6-14c-.2.2-.3.3-.3.5l-2 5.4c-.1.4 0 .6.5.6h3.5c.5 0 .6-.2.4-.6l-.9-2.7-1.2-3.3zM158.7 93.4V84c0-.7 0-.7.8-.7h8c1 0 2.2.3 3.2.7 1.8.7 2.8 2.2 3.2 4.2.4 1.7.3 3.3-.4 5-1 2.4-3 3.3-5.5 3.5h-3.4c-.5 0-.7.2-.7.7v5.5c0 .4 0 .6-.6.6h-4c-.4 0-.6-.2-.6-.7v-9.4zM164 90v2c0 .3 0 .5.4.5h1.8c1.8-.2 2.7-1.4 2.4-3.2-.2-1-.9-1.7-1.8-1.8l-2.4-.1c-.3 0-.4.2-.4.5v2zM102.4 97.2v5.2c0 .5-.2.7-.7.9-1.5.5-3 .9-4.6.8-4.2-.4-7.3-2.3-9.1-6-2.9-5.9 0-12.6 6-14.8 2.7-1 5.3-.7 7.9.3.2 0 .4.3.4.5V89.7c-3.1-2.5-6.2-3-8.9.4-1.6 2-1.3 5.1.4 7A5.3 5.3 0 0 0 98 99c1.6 0 3-.8 4.2-2l.2.2zM219.5 83.3h5.6c.4 0 .6.1.8.4l3 4.5c.4.6.5.6.9 0l3-4.4c.2-.4.5-.6 1-.5h5.5l-.3.5-6.7 9.5a2 2 0 0 0-.3 1v8.5c0 .6-.2.7-.7.7h-4c-.4 0-.6-.2-.6-.6v-8.4c0-.4-.1-1-.3-1.2l-6.6-9.3-.3-.7z"/>
</svg>
