<svg width="47.1" height="47" viewbox="0 0 100 100">
  <path d="M46.4 17.6a23.4 23.5 0 0 1-16.5 28.6A23.4 23.5 0 0 1 1.2 30a23.4 23.5 0 0 1 15.6-29A23.4 23.5 0 0 1 46 16"/>
  <path d="M8 40.7c-.8-.2-2-1.3-3.3-3A23.4 23.4 0 0 1 .2 25v-4.3a21.7 21.7 0 0 1 7-14c.8-.7 1.4-.8 2-.3l.2.6c0 .5-.2.9-1.3 2a19.3 19.3 0 0 0-5.4 14.5 22.3 22.3 0 0 0 2.5 10C6 35 6.7 35.9 8 37.3c1.1 1.3 1.4 1.8 1.4 2.3 0 .5-.3 1-.8 1h-.5zm30.7 0c-.3 0-.7-.6-.7-.9-.1-.4.1-.8 1.3-2.1l1.6-2c2.2-2.8 3.4-6 3.7-9.7v-5.2a20 20 0 0 0-5.2-11.2c-1-1.1-1.3-1.6-1.4-2-.1-.4 0-.7.3-1 .3-.5.8-.5 1.5-.2.8.5 2 1.6 3.2 3.5 2.6 3.6 3.9 7.6 4.2 12.7.3 4.3-.7 8.7-2.8 12.3-1.4 2.5-3.6 5-4.7 5.6-.3.2-.8.2-1 .2zM13.1 38c-.7-.2-1-1-.9-1.7.1-.4.5-.9 1-1h22.7c.4.1.9.6 1 1 0 .7-.2 1.3-.7 1.6l-.3.2H13.1zm8.7-5.6A8.8 8.8 0 0 1 17 28c-.5-1-.8-2.3-.8-3.5 0-1.5.6-3 2.3-6l2-3.4c.4-1.2.6-1.8.6-2.8 0-.9-.1-1.4-.5-2.1l-1.2-1.4c-.4-.2-.5-.5-.2-.7.5-.3 1.8-.1 3 .4 1.3.7 2.2 1.7 2.9 3 .4.9.6 1.6 1 3.7.3 2.4.7 3.1 1.4 3 .4 0 .7-.2.8-.5.3-.5.2-1.2-.3-2.3-.5-1-.4-1.2 0-1a7 7 0 0 1 1.8 1.4 9.8 9.8 0 0 1 2.5 5.3c.2 1.1.2 3 0 4a9.3 9.3 0 0 1-1.2 3.2c-.7 1.1-2 2.5-3.1 3-.5.3-.7.3-.9.1-.3-.2-.2-.4.4-1 1-1.1 1.4-1.9 1.7-2.8.5-1.3.2-3.1-.5-4.3-.3-.5-.7-1-1-1l.2 1 .1.8c0 .7-1 1.2-1.8 1-.6-.3-1-1-.9-2l.1-1.3c0-.8 0-.8-.2-1.3-.4-.8-1.4-1.7-2-1.7-.1 0-.2 0-.2.2l.2.3c.5.5.6 1.6.2 2.6-.2.6-.5 1-1.4 1.8-1.3 1.1-1.7 1.7-2 2.5v1.3c0 1.3.3 2.1.8 3 .5.6 1 1 1.6 1.3.4.2.4.2.4.4s-.2.3-.4.3l-.6-.2z" fill="#fff"/>
</svg>
