<?xml version="1.0" encoding="UTF-8" standalone="no"?>
<svg
   xmlns:dc="http://purl.org/dc/elements/1.1/"
   xmlns:cc="http://creativecommons.org/ns#"
   xmlns:rdf="http://www.w3.org/1999/02/22-rdf-syntax-ns#"
   xmlns:svg="http://www.w3.org/2000/svg"
   xmlns="http://www.w3.org/2000/svg"
   xmlns:sodipodi="http://sodipodi.sourceforge.net/DTD/sodipodi-0.dtd"
   xmlns:inkscape="http://www.inkscape.org/namespaces/inkscape"
   width="511.53207"
   height="61.813122"
   viewbox="0 0 510 80"
   version="1.1"
   id="svg426"
   sodipodi:docname="hyperloop3.svg"
   inkscape:version="0.92.2 5c3e80d, 2017-08-06">
  <metadata
     id="metadata432">
    <rdf:RDF>
      <cc:Work
         rdf:about="">
        <dc:format>image/svg+xml</dc:format>
        <dc:type
           rdf:resource="http://purl.org/dc/dcmitype/StillImage" />
        <dc:title></dc:title>
      </cc:Work>
    </rdf:RDF>
  </metadata>
  <defs
     id="defs430" />
  <sodipodi:namedview
     pagecolor="#ffffff"
     bordercolor="#666666"
     borderopacity="1"
     objecttolerance="10"
     gridtolerance="10"
     guidetolerance="10"
     inkscape:pageopacity="0"
     inkscape:pageshadow="2"
     inkscape:window-width="1920"
     inkscape:window-height="1048"
     id="namedview428"
     showgrid="false"
     inkscape:zoom="3.377743"
     inkscape:cx="254.21972"
     inkscape:cy="32.077859"
     inkscape:window-x="0"
     inkscape:window-y="0"
     inkscape:window-maximized="0"
     inkscape:current-layer="svg426"
     fit-margin-top="0"
     fit-margin-left="0"
     fit-margin-right="0"
     fit-margin-bottom="0" />
  <path
     d="m 345.49999,61.119485 a 30.5,30.5 0 0 1 -17.2,-10.3 c -7.2,-7.8 -9.5,-19 -6.1,-29.6 a 31.3,31.3 0 0 1 17.9,-19.0000012 c 4,-1.59999997 6.1,-1.99999997 11.3,-1.99999997 5.6,0 8.4,0.59999998 13.1,2.89999997 3.8,1.8 6.4,3.7 10.2,7.8000002 6.9,7.100001 12.2,12.500001 12.4,12.500001 l 8.2,-8.000001 c 4.3,-4.4 8.8,-8.7000002 9.8,-9.5000002 a 30.7,30.7 0 0 1 47,35.2000012 31.2,31.2 0 0 1 -23.1,20.2 c -3.9,0.8 -9.7,0.6 -13.6,-0.4 -3.6,-1 -8.5,-3.5 -11.5,-6 -1.5,-1 -5.7,-5.2 -9.4,-9 -3.8,-4 -7,-7.1 -7.2,-7.1 -0.2,0 -4,3.6 -8.4,8 -4.6,4.7 -8.9,8.8 -10,9.6 a 36.8,36.8 0 0 1 -10,4.5 c -3.6,1 -9.9,1.1 -13.4,0.3 z m 11,-11.1 c 4,-1 6,-2.4 12.3,-8.5 a 87,87 0 0 0 10.6,-11 c 0,-0.7 -15.1,-15.000001 -17.2,-16.400001 a 21,21 0 0 0 -18,-1.8 19.827885,19.827885 0 0 0 12.3,37.700001 z m 71.6,0 a 19.9,19.9 0 0 0 0,-38.400001 c -2.4,-0.6 -7.6,-0.6 -10.2,0 -1,0.3 -3,1 -4.3,1.7 -2.1,1 -3.2,2 -10.5,9.200001 -4.4,4.4 -8,8.1 -8,8.4 0,0.2 3.7,4 8.2,8.3 8.5,8.2 9.8,9.2 13.7,10.5 3.2,1.1 7.3,1.2 11.1,0.3 z m -13.9,-42.9000012 c 2,0 5.5,-0.5 7.7,-1 3.1,-0.6 5,-0.8 8.4,-0.8 l 5,0.2 0.9,0.3 -0.8,-0.6 c -1.1,-0.8 -5.4,-2.3 -8.1,-2.7 -3,-0.5 -7.8,-0.2 -10.8,0.5 -2.6,0.7 -7.6,3 -8.5,4 l -0.6,0.7 1.6,-0.2 z m -63.2,-1 a 36,36 0 0 1 7.9,-0.5 h 5.5 l -2.2,-1 a 23.4,23.4 0 0 0 -11,-2.2 c -2.6,0 -4.7,0.2 -6.2,0.5 -2.3,0.6 -7.3,2.8 -7.7,3.4 -0.4,0.6 10.8,0.5 13.7,-0.2 z M 0,54.119485 v -23.3 C 0,13.319484 0,7.7194838 0.30000004,7.4194838 c 0.6,-0.6 7.30000016,-0.5 8.00000016,0 0.6,0.4 0.6,1.4 0.7,9.7000012 v 9.3 H 37.200001 l 0.2,-9.4 c 0.1,-7.9000012 0.2,-9.4000012 0.6,-9.7000012 0.3,-0.2 2,-0.3 4,-0.3 2.6,0 3.5,0.1 3.9,0.5 0.4,0.4 0.5,3.0000002 0.5,23.2000012 0,12.4 -0.1,22.9 -0.2,23.1 -0.2,0.5 -0.9,0.6 -4.3,0.6 -3.5,0 -4.1,-0.1 -4.3,-0.6 -0.1,-0.2 -0.2,-4.8 -0.2,-10 v -9.6 h -16 c -9.5,0 -16.0000008,0.1 -16.0000008,0.3 0,0.1 0.7,0.8 1.6,1.4 0.8,0.7 1.6,1.4 1.7,1.7 0.3,0.6 0.3,15.6 0,16.2 -0.1,0.5 -0.8,0.6 -4.2,0.6 -2.3,0 -4.20000016,-0.1 -4.30000016,-0.3 z m 75.400001,-0.1 c -0.2,-0.3 -0.3,-2.8 -0.3,-9.1 v -8.7 l -12.2,-14.1 c -9.8,-11.500001 -12.1,-14.3000012 -11.8,-14.7000012 0.3,-0.3 1.4,-0.4 5.1,-0.4 2.7,0 5,0.1 5.4,0.3 l 9.3,10.6000012 a 280,280 0 0 0 9,10.2 l 9,-10.3 A 199,199 0 0 1 97.999996,7.3194838 c 0.3,-0.2 2.599994,-0.3 5.099994,-0.3 3.5,0 4.6,0.1 4.9,0.4 0.3,0.4 -2.1,3.4000002 -11.799994,14.6000012 l -12.199995,14.2 v 8.4 a 61,61 0 0 1 -0.3,9.1 c -0.3,0.6 -0.7,0.7 -4.1,0.7 -2.5,0 -3.9,-0.2 -4.2,-0.4 z m 37.799989,0 c -0.3,-0.3 -0.4,-6 -0.4,-23.4 0,-22.4000012 0,-23.0000012 0.6,-23.3000012 0.9,-0.4 32,-0.4 35.5,0 6.1,0.8 10.5,3.7000002 12.8,8.7000012 2,4.5 2,12.3 -0.4,16.9 -1.2,2.4 -3.7,4.9 -6.2,6.2 -4,2 -4.5,2.1 -21.6,2.1 -9.3,0 -15.2,0.2 -15.2,0.3 0,0.2 0.6,0.8 1.4,1.4 a 6,6 0 0 1 1.8,1.8 c 0.4,1 0.4,8.3 0,9 -0.3,0.6 -0.8,0.7 -4.1,0.7 -2.5,0 -4,-0.2 -4.2,-0.4 z m 37.6,-22.3 c 2.8,-1.4 4.2,-5 3.8,-8.7 -0.4,-2.9 -1.7,-4.9 -4.2,-6.2 -1.2,-0.7 -1.6,-0.7 -15,-0.8 h -13.6 v 16.6 h 13.7 c 13.7,-0.2 13.9,-0.2 15.2,-0.9 z m 18,22.4 c -0.2,0 -0.3,-10.6 -0.3,-23.4 0,-21.0000009 0,-23.3000012 0.5,-23.5000012 0.3,-0.1 9.6,-0.2 20.6,-0.2 17.9,0 20.2,0 20.6,0.5 0.4,0.4 0.5,1.2 0.5,4.0000002 0,2.7 0,3.6 -0.5,4 -0.4,0.400001 -2.4,0.500001 -16.8,0.500001 h -16.3 v 10.5 h 15.4 c 8.4,0 15.5,0.1 15.8,0.2 0.4,0.2 0.5,0.8 0.5,3.5 0,2.3 -0.1,3.4 -0.4,3.6 -0.3,0.3 -5.6,0.4 -17.7,0.5 h -17.2 l 1.8,1.4 1.8,1.4 0.1,4.2 0.1,4.3 h 16.5 c 12.6,0.1 16.5,0.2 16.7,0.5 0.4,0.7 0.3,7.4 -0.1,7.9 -0.3,0.3 -5.4,0.4 -21,0.4 -11.2,0 -20.6,-0.1 -20.7,-0.3 z m 48.6,0 c -0.2,0 -0.3,-10.7 -0.3,-23.5 V 7.3194838 l 0.8,-0.2 h 18.8 c 15,0 18.3,0.2 19.6,0.6 7.2,2.1000003 11.2,7.6000002 11.6,15.5000012 0.2,3.6 -0.3,6.8 -1.6,9.6 -1,2.1 -3.6,5 -5.7,6.1 -0.8,0.5 -1.5,1 -1.5,1.2 0,0.2 2.9,3.2 6.4,6.8 4.7,4.7 6.4,6.6 6.3,7 -0.2,0.4 -1,0.5 -5.7,0.4 l -5.6,-0.1 -4.1,-4.5 -6,-6.5 -2,-2 h -13 c -7.4,0 -13.1,0.2 -13.1,0.3 0,0.2 0.8,0.9 1.7,1.6 l 1.8,1.4 v 4.5 c 0,3.1 -0.1,4.7 -0.4,5 -0.4,0.4 -7.7,0.5 -8,0.1 z m 38,-21.7 c 2.3,-1.1 3.1,-2.4 3.7,-5.6 0.5,-3.4 -0.1,-6.8 -1.7,-8.6 a 9.1,9.1 0 0 0 -2.3,-1.5 l -1.6,-0.7 h -27.7 v 8.5 c 0,4.8 0,8.7 0.2,8.9 h 27.5 z m 21,21.7 c -0.6,-0.2 -0.6,-46.1000012 0,-46.7000012 0.6,-0.6 7.4,-0.5 8,0.1 0.5,0.4 0.6,2.6000002 0.6,19.2000012 v 18.7 h 14.8 c 8.1,0 15.1,0 15.5,0.2 0.7,0.2 0.7,0.3 0.6,4.4 v 4.2 h -39.5 z m 185.1,0 c -0.1,0 -0.2,-10.7 -0.2,-23.5 V 7.3194838 l 0.7,-0.2 h 18.5 c 15.6,0 18,0.2 19.7,0.6 5.5,1.7 9.4,5.7000002 10.9,11.4000012 a 28,28 0 0 1 0,9.8 16,16 0 0 1 -12.3,12 c -1.1,0.2 -7,0.3 -17,0.3 -9,0 -15.4,0.2 -15.3,0.3 0,0.2 0.8,0.9 1.8,1.6 l 1.6,1.4 v 4.5 c 0,3.1 0,4.7 -0.3,5 -0.5,0.4 -7.7,0.5 -8,0.1 z m 36.7,-22 a 8.3,8.3 0 0 0 4.3,-4.3 c 0.3,-0.6 0.5,-2.1 0.5,-3.4 0,-3.9 -1.8,-6.8 -5.2,-8 -1.2,-0.4 -3.6,-0.4 -14.6,-0.4 h -13.3 v 16.6 h 13.4 c 11.4,0 13.6,0 14.9,-0.5 z"
     id="path412"
     inkscape:connector-curvature="0"
     style="fill:hsl(220, 63%, 17%)" />
</svg>
