<svg xmlns="http://www.w3.org/2000/svg" width="511.53" height="61.81"><path d="M345.5 61.12a30.5 30.5 0 01-17.2-10.3c-7.2-7.8-9.5-19-6.1-29.6a31.3 31.3 0 0117.9-19c4-1.6 6.1-2 11.3-2 5.6 0 8.4.6 13.1 2.9 3.8 1.8 6.4 3.7 10.2 7.8 6.9 7.1 12.2 12.5 12.4 12.5l8.2-8c4.3-4.4 8.8-8.7 9.8-9.5a30.7 30.7 0 0147 35.2 31.2 31.2 0 01-23.1 20.2c-3.9.8-9.7.6-13.6-.4-3.6-1-8.5-3.5-11.5-6-1.5-1-5.7-5.2-9.4-9-3.8-4-7-7.1-7.2-7.1-.2 0-4 3.6-8.4 8-4.6 4.7-8.9 8.8-10 9.6a36.8 36.8 0 01-10 4.5c-3.6 1-9.9 1.1-13.4.3zm11-11.1c4-1 6-2.4 12.3-8.5a87 87 0 0010.6-11c0-.7-15.1-15-17.2-16.4a21 21 0 00-18-1.8 19.83 19.83 0 0012.3 37.7zm71.6 0a19.9 19.9 0 000-38.4c-2.4-.6-7.6-.6-10.2 0-1 .3-3 1-4.3 1.7-2.1 1-3.2 2-10.5 9.2-4.4 4.4-8 8.1-8 8.4 0 .2 3.7 4 8.2 8.3 8.5 8.2 9.8 9.2 13.7 10.5 3.2 1.1 7.3 1.2 11.1.3zm-13.9-42.9c2 0 5.5-.5 7.7-1 3.1-.6 5-.8 8.4-.8l5 .2.9.3-.8-.6c-1.1-.8-5.4-2.3-8.1-2.7-3-.5-7.8-.2-10.8.5-2.6.7-7.6 3-8.5 4l-.6.7 1.6-.2zm-63.2-1a36 36 0 017.9-.5h5.5l-2.2-1a23.4 23.4 0 00-11-2.2c-2.6 0-4.7.2-6.2.5-2.3.6-7.3 2.8-7.7 3.4-.4.6 10.8.5 13.7-.2zm-351 48v-23.3c0-17.5 0-23.1.3-23.4.6-.6 7.3-.5 8 0 .6.4.6 1.4.7 9.7v9.3h28.2l.2-9.4c.1-7.9.2-9.4.6-9.7.3-.2 2-.3 4-.3 2.6 0 3.5.1 3.9.5.4.4.5 3 .5 23.2 0 12.4-.1 22.9-.2 23.1-.2.5-.9.6-4.3.6-3.5 0-4.1-.1-4.3-.6-.1-.2-.2-4.8-.2-10v-9.6h-16c-9.5 0-16 .1-16 .3 0 .1.7.8 1.6 1.4.8.7 1.6 1.4 1.7 1.7.3.6.3 15.6 0 16.2-.1.5-.8.6-4.2.6-2.3 0-4.2-.1-4.3-.3zm75.4-.1c-.2-.3-.3-2.8-.3-9.1v-8.7l-12.2-14.1c-9.8-11.5-12.1-14.3-11.8-14.7.3-.3 1.4-.4 5.1-.4 2.7 0 5 .1 5.4.3l9.3 10.6a280 280 0 009 10.2l9-10.3A199 199 0 0198 7.32c.3-.2 2.6-.3 5.1-.3 3.5 0 4.6.1 4.9.4.3.4-2.1 3.4-11.8 14.6L84 36.22v8.4a61 61 0 01-.3 9.1c-.3.6-.7.7-4.1.7-2.5 0-3.9-.2-4.2-.4zm37.8 0c-.3-.3-.4-6-.4-23.4 0-22.4 0-23 .6-23.3.9-.4 32-.4 35.5 0 6.1.8 10.5 3.7 12.8 8.7 2 4.5 2 12.3-.4 16.9-1.2 2.4-3.7 4.9-6.2 6.2-4 2-4.5 2.1-21.6 2.1-9.3 0-15.2.2-15.2.3 0 .2.6.8 1.4 1.4a6 6 0 011.8 1.8c.4 1 .4 8.3 0 9-.3.6-.8.7-4.1.7-2.5 0-4-.2-4.2-.4zm37.6-22.3c2.8-1.4 4.2-5 3.8-8.7-.4-2.9-1.7-4.9-4.2-6.2-1.2-.7-1.6-.7-15-.8h-13.6v16.6h13.7c13.7-.2 13.9-.2 15.2-.9zm18 22.4c-.2 0-.3-10.6-.3-23.4 0-21 0-23.3.5-23.5.3-.1 9.6-.2 20.6-.2 17.9 0 20.2 0 20.6.5.4.4.5 1.2.5 4 0 2.7 0 3.6-.5 4-.4.4-2.4.5-16.8.5h-16.3v10.5h15.4c8.4 0 15.5.1 15.8.2.4.2.5.8.5 3.5 0 2.3-.1 3.4-.4 3.6-.3.3-5.6.4-17.7.5h-17.2l1.8 1.4 1.8 1.4.1 4.2.1 4.3h16.5c12.6.1 16.5.2 16.7.5.4.7.3 7.4-.1 7.9-.3.3-5.4.4-21 .4-11.2 0-20.6-.1-20.7-.3zm48.6 0c-.2 0-.3-10.7-.3-23.5V7.32l.8-.2h18.8c15 0 18.3.2 19.6.6 7.2 2.1 11.2 7.6 11.6 15.5.2 3.6-.3 6.8-1.6 9.6-1 2.1-3.6 5-5.7 6.1-.8.5-1.5 1-1.5 1.2 0 .2 2.9 3.2 6.4 6.8 4.7 4.7 6.4 6.6 6.3 7-.2.4-1 .5-5.7.4l-5.6-.1-4.1-4.5-6-6.5-2-2h-13c-7.4 0-13.1.2-13.1.3 0 .2.8.9 1.7 1.6l1.8 1.4v4.5c0 3.1-.1 4.7-.4 5-.4.4-7.7.5-8 .1zm38-21.7c2.3-1.1 3.1-2.4 3.7-5.6.5-3.4-.1-6.8-1.7-8.6a9.1 9.1 0 00-2.3-1.5l-1.6-.7h-27.7v8.5c0 4.8 0 8.7.2 8.9h27.5zm21 21.7c-.6-.2-.6-46.1 0-46.7.6-.6 7.4-.5 8 .1.5.4.6 2.6.6 19.2v18.7h14.8c8.1 0 15.1 0 15.5.2.7.2.7.3.6 4.4v4.2h-39.5zm185.1 0c-.1 0-.2-10.7-.2-23.5V7.32l.7-.2h18.5c15.6 0 18 .2 19.7.6 5.5 1.7 9.4 5.7 10.9 11.4a28 28 0 010 9.8 16 16 0 01-12.3 12c-1.1.2-7 .3-17 .3-9 0-15.4.2-15.3.3 0 .2.8.9 1.8 1.6l1.6 1.4v4.5c0 3.1 0 4.7-.3 5-.5.4-7.7.5-8 .1zm36.7-22a8.3 8.3 0 004.3-4.3c.3-.6.5-2.1.5-3.4 0-3.9-1.8-6.8-5.2-8-1.2-.4-3.6-.4-14.6-.4h-13.3v16.6h13.4c11.4 0 13.6 0 14.9-.5z" fill="#102247"/></svg>