<svg xmlns="http://www.w3.org/2000/svg" width="400" height="129.33"><path d="M139.23 129.34c-5.36-.9-10.2-4.76-11.84-9.44-.45-1.3-5.5-36.36-7.99-55.5a4608.5 4608.5 0 00-5.16-37.53c-1.01-7.13-1.61-9.26-3.4-12.05-2.21-3.47-7.02-6.74-11.17-7.6-2.59-.54-7.16-.25-9.5.6-1.04.37-2.69 1.21-3.66 1.86-.98.66-13.72 12.7-28.3 26.79L23.97 69.48l-7.7 7.42h48.65c26.75 0 48.65.04 48.66.08.2.65.8 6.3.7 6.42-.1.1-25.83.16-57.2.16H.07l4.5-4.42c2.47-2.44 8.62-8.42 13.66-13.3l10.5-10.16c3.97-3.84 46.8-45.06 49.35-47.5 3.6-3.42 6.03-5.04 9.48-6.3a24.35 24.35 0 0131.53 15.01c.7 2.1 2.1 11.24 4.14 27 .2 1.57 1.78 13.04 3.5 25.5a6369.1 6369.1 0 014.66 34.18c.83 6.32 1.68 12.2 1.88 13.07a8.34 8.34 0 007.94 6.25c3.61-.01 3.3.25 23.57-20.24l18.72-18.92-23.63-.08c-13-.05-23.65-.13-23.66-.17-.22-.81-.85-6.15-.75-6.33.24-.42 63.44-.31 63.44.11 0 .2-10.91 11.38-24.25 24.86-22.75 22.97-24.4 24.56-26.58 25.63-3.14 1.54-6.01 2.06-8.84 1.59zM216 50.9c-2.77-.58-4.9-2.03-5.94-4.03-1.03-1.99-.94-3.79.65-13.14.84-4.95 1.6-9.34 1.7-9.75.17-.7.35-.75 3.05-.75h2.87l-.22 1.09c-1.42 7-3.21 18.26-3.04 19.15.29 1.56 1.51 2.26 3.89 2.23 2.3-.03 4.22-1.12 5.05-2.87.47-1 2.11-9.27 3.32-16.76l.43-2.67 2.9-.1c1.6-.05 2.91-.05 2.91 0 0 .06-.8 4.7-1.79 10.3-1.5 8.56-1.94 10.5-2.74 11.96a10.57 10.57 0 01-5.38 4.67 17.49 17.49 0 01-7.66.67zm-66.1-.42l.5-2.67c.52-2.7 4.18-24.07 4.18-24.4 0-.1 1.13-.18 2.5-.18h2.52l.94 2.09c.51 1.14 2.12 4.97 3.57 8.5l2.63 6.43.56-3.1c.3-1.7.97-5.52 1.47-8.5l.9-5.42h2.79c1.53 0 2.78.11 2.78.25s-.37 2.35-.83 4.92l-2.17 12.5c-.73 4.3-1.42 8.24-1.53 8.75-.18.9-.24.92-2.61.92h-2.43l-2.5-5.92c-1.37-3.26-2.93-7-3.46-8.33-.53-1.33-1.06-2.41-1.16-2.42-.17 0-.8 3.45-2.69 14.58l-.35 2.09h-2.8c-1.54 0-2.8-.04-2.8-.09zm32.15-1c.27-1.3 3.63-20.43 4.19-23.83l.4-2.42h17.59l-.18.92c-.1.5-.28 1.59-.41 2.42l-.25 1.5-6.02.09-6.02.09-.49 2.83c-.27 1.56-.42 2.9-.33 3 .08.08 2.51.15 5.39.15h5.23l-.37 2.09-.38 2.08-5.38.09-5.38.1-.53 2.9c-.3 1.6-.54 3.1-.54 3.33 0 .31 1.4.41 5.85.41h5.85l-.2 1.09-.43 2.58-.25 1.5-8.78.09-8.79.09zm58.2.83c0-.14.6-3.62 1.34-7.75.75-4.12 1.72-9.74 2.18-12.5.45-2.74.9-5.4 1-5.91l.2-.92h6.07c7.03 0 8.76.35 10.61 2.15 3.57 3.46 2.75 10.17-1.6 13.12-.89.61-2.04 1.2-2.55 1.3-.5.1-.92.39-.92.63 0 .25.75 2.46 1.66 4.9a54.48 54.48 0 011.67 4.84c0 .27-.87.4-2.77.4h-2.77l-1.69-4.92-1.68-4.92-1.69-.1c-1.97-.11-1.73-.6-2.77 5.52l-.75 4.42h-2.77c-1.53 0-2.78-.12-2.78-.26zm15.33-15.29c1.54-.61 2.33-1.83 2.33-3.58 0-2.58-1.03-3.2-5.28-3.2h-2.99l-.53 2.9c-.86 4.71-1.01 4.43 2.3 4.43 1.82 0 3.3-.2 4.17-.55zm12 15.25c0-.18 1.67-3.45 3.72-7.27l7.13-13.27 3.4-6.33 2.31-.1 2.32-.1 1.1 5.94a758.8 758.8 0 013.68 20.94c0 .38-.55.49-2.63.49h-2.63l-.21-1.25-.4-2.17-.18-.92h-9.89l-1.14 2.09-1.14 2.08-2.72.1c-1.62.05-2.72-.04-2.72-.23zm16.72-8.87c.17-.18-1.25-9.14-1.49-9.37-.12-.13-4.9 8.95-4.9 9.32 0 .25 6.14.3 6.4.05zm15.6 8.66c0-.28.53-3.46 1.17-7.08.64-3.62 1.67-9.5 2.27-13.08l1.1-6.5 2.91-.1c2.88-.1 2.91-.09 2.73.67-.22.94-3.03 16.87-3.33 18.93-.12.82-.3 1.76-.39 2.08-.15.54.26.59 5.4.59h5.57l-.23 1.75c-.13.96-.31 2.08-.41 2.5l-.19.75h-8.3c-7.18 0-8.3-.07-8.3-.5zm25.67-.08c0-.32 1.01-6.47 2.25-13.66l2.25-13.09h2.89c2.58 0 2.87.06 2.75.59-.2.87-3 16.63-3.8 21.41-.98 5.87-.6 5.34-3.69 5.34-2.3 0-2.65-.08-2.65-.59zm17 0c0-.5 2.12-13.07 3.92-23.25l.59-3.33 2.53-.1 2.54-.1 3.43 8.36c1.89 4.59 3.5 8.29 3.57 8.2.08-.07.77-3.78 1.53-8.25l1.4-8.11 2.8-.1 2.79-.1-.19 1.27c-.29 1.98-4.2 24.5-4.4 25.36-.18.72-.33.76-2.57.67l-2.38-.1-1.54-3.5a580.2 580.2 0 01-3.52-8.24c-1.08-2.61-2.07-4.64-2.18-4.5-.11.13-.77 3.54-1.46 7.57a472.8 472.8 0 01-1.42 8.09c-.16.7-.35.75-2.8.75-2.29 0-2.63-.08-2.63-.59zm31.8 0c.17-.53 2.58-14.27 4.07-23.16l.6-3.59h2.77c1.68 0 2.77.14 2.77.35 0 .18-.38 2.37-.84 4.85a100.6 100.6 0 00-.83 4.9c0 .22 2.36-1.97 5.25-4.85l5.26-5.25h6.93l-5.89 5.97c-3.23 3.29-5.88 6.16-5.88 6.39 0 .23 1.72 3.54 3.83 7.35 2.1 3.82 3.83 7.1 3.83 7.3 0 .23-1.05.32-3.06.25l-3.06-.1-3.02-5.6-3.02-5.6-1.39 1.58c-1.2 1.39-1.43 1.9-1.78 4.11-.21 1.39-.54 3.23-.73 4.1l-.33 1.59h-2.82c-2.54 0-2.81-.06-2.65-.59z" fill="#a2102d"/></svg>