<?xml version="1.0" encoding="UTF-8" standalone="no"?>
<!-- Created with Inkscape (http://www.inkscape.org/) -->

<svg
   xmlns:dc="http://purl.org/dc/elements/1.1/"
   xmlns:cc="http://creativecommons.org/ns#"
   xmlns:rdf="http://www.w3.org/1999/02/22-rdf-syntax-ns#"
   xmlns:svg="http://www.w3.org/2000/svg"
   xmlns="http://www.w3.org/2000/svg"
   xmlns:sodipodi="http://sodipodi.sourceforge.net/DTD/sodipodi-0.dtd"
   xmlns:inkscape="http://www.inkscape.org/namespaces/inkscape"
   version="1.1"
   id="svg7651"
   width="400"
   height="129.33333"
   viewBox="0 0 400 129.33333"
   sodipodi:docname="neuralink.svg"
   inkscape:version="0.92.2 5c3e80d, 2017-08-06">
  <metadata
     id="metadata7657">
    <rdf:RDF>
      <cc:Work
         rdf:about="">
        <dc:format>image/svg+xml</dc:format>
        <dc:type
           rdf:resource="http://purl.org/dc/dcmitype/StillImage" />
        <dc:title></dc:title>
      </cc:Work>
    </rdf:RDF>
  </metadata>
  <defs
     id="defs7655" />
  <sodipodi:namedview
     pagecolor="#ffffff"
     bordercolor="#666666"
     borderopacity="1"
     objecttolerance="10"
     gridtolerance="10"
     guidetolerance="10"
     inkscape:pageopacity="0"
     inkscape:pageshadow="2"
     inkscape:window-width="1920"
     inkscape:window-height="1048"
     id="namedview7653"
     showgrid="false"
     inkscape:zoom="4.31"
     inkscape:cx="200"
     inkscape:cy="64.666664"
     inkscape:window-x="0"
     inkscape:window-y="0"
     inkscape:window-maximized="0"
     inkscape:current-layer="svg7651" />
  <g
     id="g7661"
     transform="translate(0.23201852,0.23201818)">
    <path
       style="fill:hsl(348, 82%, 35%);;fill-opacity:1;stroke-width:0.33333334"
       d="m 139,129.1032 c -5.36362,-0.89684 -10.2032,-4.7543 -11.83911,-9.43654 -0.45691,-1.30777 -5.50274,-36.361232 -7.98904,-55.499995 -0.85586,-6.58815 -3.28283,-24.210916 -5.16875,-37.53143 -1.009,-7.126755 -1.60751,-9.252293 -3.39238,-12.047817 C 108.39654,11.119497 103.58803,7.8486708 99.437083,6.9869385 96.8499,6.4498412 92.280403,6.7361525 89.940397,7.5819728 88.89928,7.9582948 87.24928,8.7995548 86.27373,9.4514391 85.29818,10.103324 72.562197,22.155929 57.97155,36.235009 43.380903,50.314085 27.980347,65.170832 23.748091,69.249998 l -7.695011,7.416667 h 48.640127 c 26.75207,0 48.651713,0.0375 48.665883,0.08333 0.19913,0.644393 0.8077,6.305433 0.69044,6.42269 -0.0884,0.08835 -25.82314,0.159197 -57.18842,0.157427 L -0.16666667,83.326898 4.3333333,78.903215 C 6.8083333,76.470188 12.958333,70.486862 18,65.606928 23.041667,60.726995 27.766667,56.153329 28.5,55.443225 32.465239,51.603592 75.294633,10.386304 77.847763,7.9529195 81.444313,4.5250549 83.8736,2.9095306 87.32647,1.6493889 c 12.95329,-4.7273638 27.13359,2.02505 31.5277,15.0129481 0.70814,2.093058 2.11005,11.23397 4.14159,27.004329 0.20074,1.558333 1.78006,13.033333 3.5096,25.499999 1.72953,12.466666 3.82452,27.841666 4.65553,34.166665 0.83101,6.325 1.67403,12.20962 1.87339,13.07693 0.81195,3.53237 4.28559,6.26357 7.94783,6.24908 3.60823,-0.0143 3.29942,0.25089 23.57014,-20.2385 l 18.71892,-18.920842 -23.63559,-0.08555 c -12.99957,-0.04706 -23.64546,-0.122057 -23.65754,-0.166667 -0.21973,-0.81158 -0.8501,-6.150643 -0.7475,-6.331113 0.23892,-0.420224 63.43613,-0.308387 63.43613,0.11226 0,0.199243 -10.9125,11.383643 -24.25,24.854222 -22.74605,22.973 -24.39471,24.56304 -26.58334,25.63814 -3.13769,1.5413 -6.00512,2.05481 -8.83333,1.58191 z m 76.75574,-78.437278 c -2.76938,-0.580727 -4.9032,-2.028337 -5.93719,-4.027847 -1.02924,-1.990319 -0.9405,-3.789469 0.64799,-13.138076 0.84108,-4.95 1.60805,-9.3375 1.70437,-9.75 0.16488,-0.706112 0.34299,-0.75 3.04377,-0.75 h 2.86865 l -0.21955,1.083334 c -1.41917,7.002509 -3.20554,18.267233 -3.03825,19.158969 0.29235,1.558357 1.51249,2.2557 3.89026,2.223393 2.30829,-0.03137 4.21751,-1.116093 5.04918,-2.868706 0.47536,-1.001763 2.11483,-9.273051 3.32275,-16.763656 l 0.43002,-2.666667 2.90779,-0.09631 c 1.59929,-0.05297 2.90607,-0.05297 2.90396,0 -0.002,0.05297 -0.80784,4.690596 -1.7905,10.305834 -1.49569,8.546833 -1.94135,10.49374 -2.73652,11.95474 -1.12431,2.06572 -3.14321,3.815953 -5.38375,4.66729 -1.95677,0.743516 -5.73253,1.07251 -7.66298,0.667703 z m -66.08902,-0.415923 c 4e-5,-0.04583 0.22319,-1.24936 0.49589,-2.674504 0.51662,-2.699799 4.17072,-24.070155 4.17072,-24.391707 0,-0.101084 1.13128,-0.183789 2.51394,-0.183789 h 2.51395 l 0.93506,2.084074 c 0.51428,1.146241 2.11973,4.975135 3.56767,8.508653 l 2.63261,6.42458 0.56163,-3.091987 c 0.3089,-1.700593 0.97032,-5.529486 1.46983,-8.508653 l 0.9082,-5.416667 h 2.78189 c 1.53004,0 2.78215,0.1125 2.78246,0.25 3.2e-4,0.1375 -0.37269,2.35 -0.8289,4.916667 -0.45621,2.566667 -1.43251,8.191666 -2.16954,12.5 -0.73704,4.308333 -1.42595,8.245833 -1.53092,8.749999 -0.18708,0.89855 -0.23879,0.916667 -2.61681,0.916667 h -2.42597 l -2.49607,-5.916666 c -1.37284,-3.254167 -2.93174,-7.002317 -3.46422,-8.329227 -0.53248,-1.326907 -1.05593,-2.414407 -1.16322,-2.416667 -0.16648,-0.0035 -0.80283,3.44889 -2.6873,14.579227 l -0.35272,2.083333 h -2.79912 c -1.53951,0 -2.79909,-0.0375 -2.79906,-0.08333 z m 32.13755,-0.994384 c 0.26947,-1.314773 3.6313,-20.43475 4.19156,-23.838949 l 0.39774,-2.416667 h 8.79488 8.79488 l -0.17235,0.916667 c -0.0948,0.504167 -0.28258,1.591667 -0.41729,2.416667 l -0.24494,1.5 -6.01802,0.09063 -6.01802,0.09064 -0.494,2.832828 c -0.2717,1.558055 -0.42206,2.904768 -0.33414,2.992698 0.0879,0.08793 2.51394,0.15987 5.39113,0.15987 h 5.23125 l -0.37241,2.083333 -0.37241,2.083334 -5.38126,0.09143 -5.38125,0.09143 -0.53382,2.908567 c -0.2936,1.599713 -0.53352,3.09607 -0.53314,3.325236 6.6e-4,0.317477 1.39294,0.416667 5.84911,0.416667 h 5.84844 l -0.19406,1.083333 c -0.10672,0.595833 -0.30511,1.758333 -0.44085,2.583333 l -0.2468,1.5 -8.7837,0.08895 -8.78371,0.08895 z M 240,50.080435 c 0,-0.139093 0.60786,-3.626593 1.3508,-7.749999 0.74293,-4.123407 1.72043,-9.747104 2.17221,-12.497103 0.45178,-2.75 0.90584,-5.4125 1.00902,-5.916667 l 0.18761,-0.916667 h 6.07968 c 7.03338,0 8.76209,0.349638 10.61209,2.14634 3.56534,3.462614 2.75031,10.172697 -1.59437,13.12631 -0.89478,0.60829 -2.04466,1.18954 -2.55529,1.291667 -0.51063,0.102126 -0.92842,0.389373 -0.92842,0.63833 0,0.248956 0.75,2.453806 1.66667,4.899666 0.91667,2.44586 1.66667,4.623417 1.66667,4.839017 0,0.269006 -0.8693,0.392003 -2.77053,0.392003 h -2.77052 l -1.68497,-4.916667 -1.68496,-4.916666 -1.68349,-0.09979 c -1.97562,-0.11711 -1.72971,-0.606777 -2.77039,5.516459 l -0.75064,4.416667 h -2.77558 C 241.24901,50.333332 240,50.219529 240,50.080435 Z m 15.33939,-15.288419 c 1.53619,-0.61466 2.32728,-1.832101 2.32728,-3.581534 0,-2.586183 -1.02715,-3.210483 -5.28215,-3.210483 h -2.98193 l -0.5353,2.916667 c -0.86315,4.702936 -1.01175,4.416666 2.29263,4.416666 1.8308,0 3.3032,-0.190703 4.17947,-0.541316 z m 11.99394,15.243019 c 0,-0.17889 1.67704,-3.447456 3.72674,-7.263479 2.04971,-3.816024 5.2554,-9.788224 7.12377,-13.271557 l 3.39703,-6.333333 2.31766,-0.09675 2.31766,-0.09675 1.09551,5.930088 C 289.20186,39.134852 291,49.346882 291,49.849932 c 0,0.38146 -0.55453,0.4834 -2.62957,0.4834 h -2.62957 l -0.21516,-1.25 c -0.11834,-0.6875 -0.29695,-1.6625 -0.39692,-2.166667 l -0.18175,-0.916666 h -4.94358 -4.94358 l -1.14209,2.083333 -1.14209,2.083333 -2.72118,0.09681 c -1.61299,0.05739 -2.72118,-0.03564 -2.72118,-0.228444 z m 16.72579,-8.871933 c 0.17033,-0.17033 -1.25216,-9.133917 -1.48675,-9.368507 -0.12884,-0.128848 -4.9057,8.953817 -4.9057,9.327654 0,0.249793 6.14424,0.28906 6.39245,0.04085 z m 15.60755,8.66543 c 0,-0.27764 0.52434,-3.46514 1.16521,-7.083333 0.64087,-3.618193 1.66192,-9.503533 2.26901,-13.078533 l 1.10379,-6.5 2.9073,-0.09645 c 2.88058,-0.09557 2.90564,-0.08944 2.72609,0.666667 -0.22413,0.94382 -3.02701,16.869171 -3.33167,18.929785 -0.12197,0.825 -0.29592,1.7625 -0.38655,2.083333 -0.15221,0.538843 0.25969,0.583333 5.40063,0.583333 h 5.56541 l -0.22825,1.75 c -0.12554,0.9625 -0.31112,2.0875 -0.41241,2.5 l -0.18417,0.75 h -8.2972 c -7.18813,0 -8.29719,-0.06748 -8.29719,-0.5048 z m 25.66311,-0.07853 c -0.002,-0.320834 1.00827,-6.470833 2.24494,-13.666667 l 2.24849,-13.083333 h 2.89052 c 2.58214,0 2.8761,0.06223 2.75537,0.583334 -0.2023,0.873113 -2.99818,16.637919 -3.79824,21.416666 -0.98317,5.87252 -0.60978,5.333333 -3.69332,5.333333 -2.29472,0 -2.64468,-0.0771 -2.64776,-0.583333 z m 17.00412,0 c 0,-0.506417 2.115,-13.07687 3.91097,-23.25 l 0.58846,-3.333333 2.536,-0.0965 2.536,-0.0965 3.43127,8.351469 c 1.88717,4.593309 3.49473,8.287979 3.57233,8.210379 0.0776,-0.0776 0.76734,-3.79233 1.53274,-8.254964 l 1.39166,-8.113879 2.7958,-0.09755 2.7958,-0.09755 -0.18456,1.264221 c -0.28937,1.982029 -4.20724,24.507986 -4.41114,25.361956 -0.17203,0.720587 -0.31886,0.7588 -2.5615,0.666667 l -2.37896,-0.09774 -1.53917,-3.5 c -0.84653,-1.924999 -2.4296,-5.634406 -3.51793,-8.243123 -1.0883,-2.608716 -2.07077,-4.633716 -2.18324,-4.5 -0.1125,0.133717 -0.76866,3.543124 -1.45816,7.576457 -0.6895,4.033333 -1.33067,7.670833 -1.42477,8.083333 -0.1597,0.699963 -0.3466,0.75 -2.80163,0.75 -2.28327,0 -2.63047,-0.07701 -2.62997,-0.583333 z m 31.8,0 c 0.1623,-0.529397 2.57547,-14.276333 4.06673,-23.166666 l 0.60107,-3.583334 h 2.76583 c 1.6764,0 2.7658,0.135312 2.7658,0.343539 0,0.188946 -0.375,2.373932 -0.83333,4.855524 -0.45833,2.481592 -0.83333,4.687741 -0.83333,4.902554 0,0.214813 2.3642,-1.970173 5.2538,-4.855524 l 5.25376,-5.246093 h 3.46917 3.46917 l -5.88964,5.97091 c -3.23926,3.284001 -5.8896,6.158057 -5.8896,6.386793 0,0.228737 1.725,3.536924 3.83334,7.35153 2.10833,3.814603 3.83333,7.096177 3.83333,7.29238 0,0.234493 -1.0492,0.323893 -3.0618,0.260897 l -3.0618,-0.09584 -3.02153,-5.608989 -3.02154,-5.60899 -1.3813,1.589986 c -1.2067,1.38898 -1.43166,1.908454 -1.77963,4.108994 -0.21907,1.385449 -0.5474,3.231499 -0.72963,4.102333 l -0.33134,1.583333 h -2.8282 c -2.5394,0 -2.8099,-0.05956 -2.64933,-0.583333 z"
       id="path7677"
       inkscape:connector-curvature="0" />
  </g>
</svg>
