<svg data-name="Layer 1" xmlns="http://www.w3.org/2000/svg" width="130" height="90"><path d="M78.49 63.49c-2.64 0-4.53.9-5.45 2.61l-.5.92v-3.08h-4.3v18.8h4.53V71.56c0-2.67 1.45-4.21 4-4.21s3.8 1.49 3.8 4.09v11.3h4.53V70.63c-.03-4.47-2.49-7.14-6.61-7.14zm-21.94 0c-5.34 0-8.66 3.33-8.66 8.69v2.64c0 5.16 3.35 8.36 8.73 8.36 3.6 0 6.13-1.32 7.72-4l-2.81-1.61a6.28 6.28 0 01-4.91 2.53c-2.73 0-4.35-1.68-4.35-4.5v-.75h12.64v-3.14c0-4.99-3.29-8.22-8.36-8.22zm4.24 8.29h-8.52v-.45c0-3.1 1.52-4.8 4.28-4.8s4.24 1.68 4.24 4.5zM130 60.85v-3.6h-15.65v3.6h5.49v18.3h-5.49v3.6H130v-3.6h-5.49v-18.3zM11.33 56.73C4.34 56.73 0 61.09 0 68.1v3.79c0 7 4.34 11.37 11.33 11.37s11.33-4.36 11.33-11.37V68.1c.01-7.01-4.34-11.37-11.33-11.37zM18 72.15c0 4.66-2.43 7.33-6.66 7.33s-6.66-2.67-6.66-7.33v-4.31c0-4.66 2.43-7.33 6.66-7.33S18 63.18 18 67.84zm18.89-8.66a6.42 6.42 0 00-5.5 2.63l-.49.75v-2.93h-4.3v25.27h4.53v-9.15l.48.72a6.29 6.29 0 005.32 2.41c3.9 0 7.84-2.55 7.84-8.25v-3.2c-.01-4.1-2.45-8.25-7.89-8.25zm3.35 11.22c0 3-1.77 4.91-4.61 4.91-2.65 0-4.5-2-4.5-4.84V72c0-2.89 1.87-4.91 4.54-4.91 2.82 0 4.58 1.88 4.58 4.91zm57.33-17.46l-9.14 25.49H93l1.75-5.46h10.5v.05l1.75 5.41h4.6l-9.14-25.49zm-1.66 16.43L100 60.79l4.08 12.89zM86.55 22.73A10.75 10.75 0 0083.89 18a10.62 10.62 0 00-.84-9A11.08 11.08 0 0071 3.89a11 11 0 00-18.88 4 10.9 10.9 0 00-7.52 5.22A10.75 10.75 0 0046.11 26a10.62 10.62 0 00.84 9A11 11 0 0059 40.1a11 11 0 0018.89-3.95 10.9 10.9 0 007.52-5.22 10.66 10.66 0 001.14-8.2zM78.36 33a.67.67 0 00-.37-.56V22.25a1 1 0 00-.5-1.09l-10-5.65 3.61-2.05 8.46 4.81a8.13 8.13 0 013.87 5 8 8 0 01-.83 6.16A8.19 8.19 0 0178.36 33zM51.64 11a.66.66 0 00.38.56v10.19a.93.93 0 00.49 1.09l10 5.65-3.61 2.05-8.5-4.82a8.13 8.13 0 01-3.87-5 8 8 0 01.83-6.16A8.19 8.19 0 0151.64 11zm29.71 5.06a1 1 0 00-.69-.08l-8.9-5.06a1.26 1.26 0 00-1.24 0l-10.14 5.79v-4.2L69 7.7a8.39 8.39 0 0111.36 3 8 8 0 01.99 5.38zM65 17l4.62 2.62v4.83L65 27l-4.61-2.62v-4.8zm2.58-11.37l-9.05 5.06a1 1 0 00-.53 1.09V23l-3.64-2v-9.4a1.18 1.18 0 000-.2A8.32 8.32 0 0168 5.1a1 1 0 00-.42.53zM48.65 27.92a1 1 0 00.43.11 1 1 0 00.26 0l8.9 5.06a1.25 1.25 0 001.24 0l10.15-5.77v4.2L61 36.3a8.39 8.39 0 01-11.36-3 8 8 0 01-.99-5.38zm13.77 10.45l9.06-5.05a1 1 0 00.52-1.1V21l3.63 2v9.4a1.18 1.18 0 000 .2A8.32 8.32 0 0162 38.9a1 1 0 00.42-.53z" fill="hsl(348,82%,35%)"/></svg>