<svg xmlns="http://www.w3.org/2000/svg" width="1024" height="271" viewBox="-1.36 -1.36 180.87 47.9"><path d="M32.6 3.4C30.52 1.03 26.74 0 21.9 0H7.84c-1 0-1.83.72-1.99 1.7L.02 38.78a1.2 1.2 0 001.19 1.4h8.67l2.17-13.82-.06.44a2 2 0 011.98-1.7h4.12c8.09 0 14.43-3.29 16.28-12.8l.14-.82c-.23-.12-.23-.12 0 0 .55-3.51 0-5.9-1.9-8.07M122.18 20.94h-4.66c-.45 0-.87.23-1.12.6l-6.44 9.48-2.72-9.11c-.17-.57-.7-.97-1.3-.97h-4.58a.8.8 0 00-.77 1.07l5.14 15.09-4.83 6.81a.8.8 0 00.66 1.28h4.66c.44 0 .86-.22 1.1-.58l15.53-22.4a.8.8 0 00-.67-1.27m-31.2 9.04a5.18 5.18 0 01-5.23 4.43c-1.35 0-2.43-.43-3.12-1.25a3.95 3.95 0 01-.73-3.26 5.2 5.2 0 015.2-4.47c1.32 0 2.4.44 3.1 1.27a4 4 0 01.79 3.28m6.47-9.04H92.8a.8.8 0 00-.8.69l-.2 1.3-.32-.48c-1-1.45-3.25-1.94-5.49-1.94-5.13 0-9.5 3.88-10.36 9.34-.44 2.72.19 5.31 1.73 7.13 1.42 1.66 3.44 2.36 5.85 2.36 4.13 0 6.42-2.66 6.42-2.66l-.2 1.3a.8.8 0 00.8.93h4.17c.67 0 1.23-.48 1.34-1.14l2.5-15.9a.8.8 0 00-.8-.93m-27.85.12c-.53 3.48-3.19 3.48-5.76 3.48h-1.46l1.02-6.5a.8.8 0 01.8-.68h.67c1.75 0 3.4 0 4.26 1 .5.59.66 1.47.47 2.7m-1.12-9.08h-9.7c-.66 0-1.22.48-1.33 1.13l-3.92 24.86a.8.8 0 00.8.94h4.63c.66 0 1.23-.49 1.33-1.14l1.06-6.7c.1-.66.67-1.14 1.33-1.14h3.07c6.38 0 10.07-3.1 11.03-9.22.43-2.68.02-4.78-1.24-6.26-1.37-1.62-3.82-2.47-7.06-2.47M172.08 12.66l-3.98 25.31a.8.8 0 00.8.94h4c.66 0 1.23-.49 1.33-1.14l3.92-24.86a.8.8 0 00-.8-.93h-4.47a.8.8 0 00-.8.68m-11.94 17.32a5.18 5.18 0 01-5.24 4.43c-1.35 0-2.43-.43-3.12-1.25a3.94 3.94 0 01-.73-3.26 5.2 5.2 0 015.2-4.47c1.32 0 2.4.44 3.1 1.27a4 4 0 01.79 3.28m6.47-9.04h-4.65a.8.8 0 00-.8.69l-.2 1.3-.32-.48c-1-1.45-3.25-1.94-5.49-1.94-5.13 0-9.5 3.88-10.36 9.34-.44 2.72.19 5.31 1.73 7.13 1.42 1.66 3.44 2.36 5.85 2.36 4.13 0 6.42-2.66 6.42-2.66l-.2 1.3a.8.8 0 00.8.93h4.17c.67 0 1.23-.48 1.34-1.14l2.5-15.9a.8.8 0 00-.8-.93m-27.85.12c-.53 3.48-3.19 3.48-5.76 3.48h-1.46l1.02-6.5a.8.8 0 01.8-.68h.67c1.75 0 3.4 0 4.26 1 .5.59.66 1.47.47 2.7m-1.12-9.08h-9.7c-.66 0-1.22.48-1.33 1.13l-3.92 24.86a.8.8 0 00.8.94h4.97c.47 0 .86-.34.94-.8l1.1-7.05c.11-.65.68-1.13 1.34-1.13h3.07c6.38 0 10.07-3.1 11.03-9.22.43-2.68.02-4.78-1.24-6.26-1.37-1.62-3.82-2.47-7.06-2.47" fill="#a2102d"/><path d="M32.6 3.4C30.52 1.03 26.74 0 21.9 0H7.84c-1 0-1.83.72-1.99 1.7L.02 38.78a1.2 1.2 0 001.19 1.4h8.67l2.17-13.82-.06.44a2 2 0 011.98-1.7h4.12c8.09 0 14.43-3.29 16.28-12.8l.14-.82c-.23-.12-.23-.12 0 0 .55-3.51 0-5.9-1.9-8.07" fill="#a2102d"/><path d="M14.4 11.53a1.76 1.76 0 011.73-1.49h11.01a23 23 0 014.56.45 13.47 13.47 0 011.29.35c.55.18 1.05.4 1.52.64.55-3.51 0-5.9-1.9-8.07C30.5 1.02 26.73 0 21.89 0H7.85c-1 0-1.83.72-1.99 1.7L.02 38.78a1.2 1.2 0 001.19 1.4h8.67l2.17-13.82 2.34-14.83z" fill="#a2102d"/><path d="M34.51 11.48l-.14.82c-1.85 9.51-8.2 12.8-16.28 12.8h-4.13A2 2 0 0012 26.8L9.88 40.17l-.6 3.8c-.1.64.4 1.22 1.04 1.22h7.3c.87 0 1.6-.63 1.74-1.48l.08-.38 1.37-8.73.1-.48c.13-.85.86-1.48 1.73-1.48h1.1c7.07 0 12.62-2.88 14.24-11.2.67-3.47.32-6.38-1.47-8.42a6.98 6.98 0 00-2-1.54" fill="#a2102d"/><path d="M32.57 10.7a13.5 13.5 0 00-1.8-.4 22.85 22.85 0 00-3.63-.26h-11c-.28 0-.54.06-.77.18-.5.24-.88.72-.98 1.3l-2.34 14.84-.06.44a2 2 0 011.97-1.7h4.13c8.09 0 14.43-3.29 16.28-12.8l.14-.82a10 10 0 00-1.94-.77" fill="#a2102d"/></svg>