<?xml version="1.0" encoding="UTF-8" standalone="no"?>
<!-- Created with Inkscape (http://www.inkscape.org/) -->

<svg
   xmlns:dc="http://purl.org/dc/elements/1.1/"
   xmlns:cc="http://creativecommons.org/ns#"
   xmlns:rdf="http://www.w3.org/1999/02/22-rdf-syntax-ns#"
   xmlns:svg="http://www.w3.org/2000/svg"
   xmlns="http://www.w3.org/2000/svg"
   xmlns:sodipodi="http://sodipodi.sourceforge.net/DTD/sodipodi-0.dtd"
   xmlns:inkscape="http://www.inkscape.org/namespaces/inkscape"
   version="1.1"
   id="svg7827"
   width="889.39941"
   height="210.56001"
   viewBox="0 0 889.39941 210.56002"
   sodipodi:docname="solarcity.svg"
   inkscape:version="0.92.2 5c3e80d, 2017-08-06">
  <metadata
     id="metadata7833">
    <rdf:RDF>
      <cc:Work
         rdf:about="">
        <dc:format>image/svg+xml</dc:format>
        <dc:type
           rdf:resource="http://purl.org/dc/dcmitype/StillImage" />
        <dc:title></dc:title>
      </cc:Work>
    </rdf:RDF>
  </metadata>
  <defs
     id="defs7831" />
  <sodipodi:namedview
     pagecolor="#ffffff"
     bordercolor="#666666"
     borderopacity="1"
     objecttolerance="10"
     gridtolerance="10"
     guidetolerance="10"
     inkscape:pageopacity="0"
     inkscape:pageshadow="2"
     inkscape:window-width="1920"
     inkscape:window-height="1048"
     id="namedview7829"
     showgrid="false"
     fit-margin-top="0"
     fit-margin-left="0"
     fit-margin-right="0"
     fit-margin-bottom="0"
     inkscape:zoom="1.8713094"
     inkscape:cx="444.01789"
     inkscape:cy="105.9744"
     inkscape:window-x="0"
     inkscape:window-y="0"
     inkscape:window-maximized="0"
     inkscape:current-layer="svg7827" />
  <g
     id="g7837"
     transform="translate(-16.08774,-16.000001)">
    <path
       style="fill:hsl(60, 0%, 58%);stroke-width:0.32000002"
       d="m 826.03571,226.0799 c -0.10135,-0.26407 3.5872,-9.36096 8.19677,-20.21531 5.09251,-11.99159 8.32441,-19.99601 8.23673,-20.39989 -0.0794,-0.36558 -8.87731,-22.33582 -19.55101,-48.82274 -10.67373,-26.48693 -19.33661,-48.340801 -19.25091,-48.564161 0.12266,-0.319613 2.52192,-0.388183 11.26506,-0.321952 l 11.10918,0.08416 7.79303,19.679993 c 20.095,50.74686 20.32166,51.30433 20.63219,50.74944 0.16541,-0.29558 6.63229,-16.11187 14.37085,-35.1473 7.73852,-19.03543 14.2255,-34.797132 14.41542,-35.026002 0.27101,-0.326538 2.6816,-0.416131 11.19623,-0.416131 9.39513,0 10.8758,0.065 11.0368,0.484534 0.29097,0.758294 -55.83613,135.104119 -57.00103,136.437589 -1.66083,1.9012 -2.02688,1.95788 -12.64477,1.95788 -8.25718,0 -9.6464,-0.068 -9.80454,-0.48011 z m -665.2703,-16.21469 c -7.5626,-11.97994 -13.81956,-26.28055 -14.6934,-33.58255 -0.71618,-5.98455 2.55269,-9.19149 8.43343,-8.27366 5.44391,0.84966 8.79265,4.22399 10.69034,10.77202 0.65094,2.24612 0.72372,3.17896 0.71923,9.21899 -0.005,7.08664 -0.37417,10.43085 -1.89036,17.1367 -1.54601,6.83771 -1.74527,7.12679 -3.25924,4.7285 z m 26.08496,-11.69628 c -14.46522,-14.117 -20.17452,-24.19474 -16.4634,-29.06028 1.06182,-1.39211 3.66634,-2.70108 5.38331,-2.70552 6.37888,-0.0165 11.88271,10.06667 15.75381,28.86132 1.24352,6.03744 1.37505,7.61556 0.63474,7.61556 -0.26465,0 -2.65345,-2.11999 -5.30846,-4.71108 z m -70.809,1.59108 c -0.34303,-1.18748 -1.52148,-9.23679 -1.96723,-13.43694 -0.55063,-5.18842 -0.61861,-14.99027 -0.12857,-18.53991 0.46741,-3.38576 1.70188,-6.98978 3.01045,-8.78902 1.5564,-2.13998 4.0172,-3.29986 6.5196,-3.07295 5.0782,0.46048 11.56417,4.7672 13.68537,9.08718 1.16101,2.36448 1.42213,6.27676 0.62628,9.3833 -1.2392,4.83706 -5.24255,11.01608 -11.06727,17.08192 -4.40197,4.5842 -9.20368,8.84642 -9.96615,8.84642 -0.3029,0 -0.62351,-0.252 -0.71248,-0.56 z m 226.35864,-6.6235 c -22.28605,-3.20658 -37.08686,-19.222 -40.8262,-44.1765 -0.63031,-4.20635 -0.71541,-13.67897 -0.161,-17.92 1.95161,-14.92899 8.08615,-27.39595 17.3072,-35.172691 8.13546,-6.861184 17.35574,-10.211415 29.32887,-10.656759 20.51388,-0.763017 36.30844,8.130913 44.97667,25.32642 7.62058,15.11717 8.5528,36.28589 2.30985,52.45096 -6.28374,16.27068 -18.01545,26.41951 -34.30876,29.6798 -4.39844,0.88012 -14.07511,1.12365 -18.62663,0.46877 z m 12.48711,-19.82834 c 11.5407,-2.05922 19.17424,-11.56386 21.13779,-26.31902 0.23539,-1.76879 0.31046,-5.21184 0.20435,-9.37251 -0.188,-7.37347 -0.85997,-11.16035 -2.82086,-15.89725 -4.85671,-11.73231 -14.84724,-18.00382 -26.25962,-16.48437 -5.87459,0.78215 -9.49194,2.56355 -13.73706,6.76498 -4.84745,4.79754 -7.72358,11.08545 -8.9671,19.60424 -0.50109,3.43266 -0.50048,12.49404 0,15.75577 1.00973,6.56684 3.48105,12.95912 6.60345,17.08036 5.37424,7.09345 14.58311,10.51917 23.83802,8.8678 z m 109.9129,19.78783 c -8.54231,-1.31107 -15.95818,-5.38281 -20.78618,-11.41284 -8.81187,-11.00574 -9.96647,-28.5829 -2.67959,-40.79282 1.61562,-2.70717 5.76039,-6.91313 8.81623,-8.94642 4.82905,-3.21313 11.55491,-5.58082 18.48954,-6.50883 1.63494,-0.21879 8.64403,-0.45573 16.21296,-0.54808 l 13.33299,-0.16267 -0.1657,-1.80217 c -0.73501,-7.99365 -4.53763,-13.28808 -11.39875,-15.87061 -8.21843,-3.09341 -23.17728,-1.95706 -36.13626,2.7451 -4.82512,1.75079 -5.22377,1.81435 -5.47577,0.87305 -0.26068,-0.97356 -0.26218,-17.160257 -0.003,-18.132932 0.4928,-1.840307 12.76284,-5.744032 21.86275,-6.955648 3.92944,-0.52319 13.93933,-0.597613 18.08947,-0.13449 12.5473,1.400176 22.01783,6.042001 27.76007,13.606145 3.31075,4.361175 5.21862,8.687765 6.72848,15.258495 0.67142,2.92202 0.68384,3.54728 0.78835,39.74271 0.0858,29.71094 0.0272,36.82413 -0.30535,37.0351 -0.47168,0.29927 -20.41718,0.37147 -21.18537,0.0767 -0.40906,-0.15697 -0.50618,-0.74023 -0.50618,-3.04 0,-1.56517 -0.0816,-2.84576 -0.18134,-2.84576 -0.0997,0 -0.63975,0.34627 -1.2,0.7695 -2.98992,2.2586 -8.38099,4.74935 -12.86035,5.94161 -5.81799,1.54857 -13.44682,1.98761 -19.19831,1.10488 z m 13.43843,-19.67214 c 6.17817,-0.89278 13.41782,-4.36381 18.34902,-8.79738 l 1.65255,-1.48578 v -9.11227 -9.11228 l -13.36,0.12726 c -14.33066,0.13651 -14.60829,0.16553 -18.37162,1.92027 -4.86829,2.26996 -7.32538,7.10313 -6.88432,13.54177 0.2895,4.2267 2.01738,7.90712 4.71229,10.03732 3.31901,2.62354 8.39897,3.67632 13.90208,2.88109 z m 300.46942,19.84401 c -13.70321,-1.56767 -23.13965,-8.99625 -26.22833,-20.64754 -0.95344,-3.59672 -1.09798,-8.38057 -1.10873,-36.69542 l -0.0108,-28.39509 -9.2,-0.0849 -9.2,-0.0849 -0.0851,-9.599996 c -0.0775,-8.741223 -0.0362,-9.635783 0.46119,-10 0.40544,-0.296871 2.79667,-0.4 9.27472,-0.4 h 8.72841 l 0.0904,-12.933623 c 0.0497,-7.113492 0.2106,-13.053492 0.35754,-13.200001 0.33226,-0.331315 16.69491,-0.355558 17.86819,-0.02646 1.28458,0.360298 2.84311,1.813683 3.50317,3.266855 0.53229,1.171785 0.5881,2.30751 0.59447,12.093239 l 0.007,10.799994 h 9.41916 c 5.18055,0 9.75255,0.12744 10.16,0.2832 0.60666,0.2319 1.43309,2.000189 4.56263,9.762211 2.50134,6.203951 3.71321,9.587591 3.50752,9.793271 -0.19312,0.19312 -5.55226,0.34646 -13.90179,0.39779 L 773.92,107.68 l -0.0936,27.20001 c -0.099,28.75676 -0.0611,29.6486 1.37853,32.48964 0.71216,1.40538 2.63447,3.42718 3.88679,4.08795 4.09696,2.16168 11.62003,2.35195 19.46832,0.49239 5.80956,-1.37651 4.81606,-2.20861 8.6447,7.24042 2.34256,5.78139 3.22131,8.30204 3.02326,8.67209 -0.57254,1.06981 -8.99859,3.76393 -15.02796,4.80501 -4.2602,0.7356 -12.64269,1.04074 -16.49216,0.60036 z m -124.94785,-0.51926 c -7.72221,-0.75134 -12.404,-1.68082 -18.29216,-3.63154 -9.68902,-3.20995 -17.35942,-8.04005 -24.34544,-15.33052 -11.95331,-12.47426 -18.15581,-31.01306 -18.15581,-54.26655 0,-18.12801 3.7433,-33.332252 11.13322,-45.219981 4.51657,-7.265584 11.26233,-14.056055 18.33107,-18.452538 11.58131,-7.203146 25.39863,-10.86505 38.84912,-10.295927 8.65101,0.366041 17.47255,2.059878 25.6,4.915488 2.93895,1.032608 3.53699,1.354618 3.62304,1.95073 0.11386,0.789232 -6.81766,18.64225 -7.37065,18.984026 -0.19056,0.117763 -1.29728,-0.153104 -2.45943,-0.601929 -6.14137,-2.37186 -12.296,-3.771997 -18.73651,-4.262455 -11.79197,-0.897981 -22.68125,2.97776 -30.59085,10.887968 -7.53994,7.540516 -12.02605,18.441358 -13.41962,32.608528 -0.41958,4.26544 -0.41891,14.077 0,18.33219 2.33754,23.67414 13.51722,38.19879 32.63281,42.39659 3.99347,0.87697 12.76636,0.79344 18.34659,-0.1747 5.55929,-0.96449 10.9751,-2.48912 16.5135,-4.64877 2.54103,-0.99086 4.80903,-1.72906 5.04,-1.64044 0.33498,0.12855 0.41991,2.32901 0.41991,10.87992 0,9.98492 -0.0393,10.73985 -0.57466,11.02633 -1.22454,0.65537 -8.40157,2.99473 -11.90534,3.88058 -8.708,2.20161 -18.50247,3.26016 -24.64,2.663 z m -423.68001,-0.45755 c -6.68687,-0.74592 -17.59616,-3.11899 -20.14253,-4.38155 -1.06131,-0.52623 -1.16035,-0.73101 -2.33854,-4.83534 -1.28175,-4.46507 -4.25857,-12.85318 -6.1689,-17.38273 -1.21896,-2.89027 -1.32802,-3.45143 -0.67079,-3.45143 0.24158,0 2.22158,0.71238 4.4,1.58308 7.59903,3.03727 17.54493,5.54365 25.56076,6.44135 1.848,0.20696 6.168,0.37309 9.6,0.36918 12.09721,-0.0138 19.52575,-2.0047 24.50546,-6.5677 3.87138,-3.54742 5.4302,-8.16971 5.18188,-15.36556 -0.17075,-4.94796 -0.78972,-6.9711 -2.94025,-9.61033 -3.76343,-4.61865 -9.81952,-7.27802 -23.86709,-10.4806 -11.81868,-2.69444 -17.47417,-4.53042 -23.85493,-7.7442 -13.57686,-6.8382 -19.74568,-17.11187 -19.73395,-32.865226 0.007,-9.430276 2.13406,-17.098516 6.60788,-23.822254 6.85295,-10.299345 18.31532,-16.667908 33.461,-18.591124 5.78515,-0.734605 17.35264,-0.508653 23.68125,0.462573 5.1435,0.78935 11.99951,2.446112 16.63194,4.019123 3.93083,1.334778 8.22745,3.291194 8.43906,3.842634 0.0817,0.21288 -1.47509,4.478003 -3.4595,9.478051 -2.80879,7.077198 -3.74146,9.111073 -4.21039,9.181626 -0.3313,0.04985 -2.22677,-0.489401 -4.21216,-1.198326 -13.28837,-4.74489 -27.94368,-6.234061 -37.8302,-3.844045 -8.00663,1.935562 -13.21236,6.760698 -14.86691,13.779965 -0.71847,3.048042 -0.64521,8.371854 0.15065,10.948561 2.22913,7.217098 8.57184,10.720952 28.18187,15.568322 16.99172,4.20014 24.72451,7.66044 31.42991,14.06436 7.04501,6.72827 10.22028,15.03921 10.22028,26.75054 0,17.04438 -7.66449,30.01328 -22.10198,37.39824 -5.57669,2.85255 -11.54127,4.6496 -19.39932,5.84478 -3.87206,0.58892 -18.2669,0.85285 -22.2545,0.40803 z m 653.12002,0.0497 c -4.2385,-1.29397 -6.77648,-4.65751 -6.77648,-8.98076 0,-3.73092 1.77619,-6.58592 5.11837,-8.22717 2.39046,-1.1739 5.4894,-1.22902 7.93248,-0.14109 6.05901,2.69816 7.27225,10.77602 2.29107,15.25451 -2.28163,2.05139 -5.84915,2.92375 -8.56544,2.09451 z m 5.07225,-2.61207 c 1.19111,-0.41522 1.32573,-0.92869 0.24349,-0.92869 -0.59325,0 -1.07459,-0.48336 -2.15097,-2.16 l -1.38676,-2.16 -0.17174,1.82673 c -0.20416,2.1714 -0.52886,2.57392 -1.96557,2.43658 l -1.0807,-0.10331 -0.16,-5.43 -0.16,-5.43 -1.03088,1.25186 c -2.81351,3.41655 -1.7185,8.40047 2.31088,10.51801 1.11977,0.58848 4.10163,0.68452 5.55225,0.17882 z m 3.87799,-4.3943 c 0.92269,-3.32201 -0.5936,-6.66328 -3.67024,-8.08772 -1.48288,-0.68655 -4.04586,-0.76439 -5.44,-0.16522 -0.90643,0.38957 -0.80711,0.42229 1.78019,0.58643 4.08957,0.25943 5.41981,1.1486 5.41981,3.62269 0,0.89306 -0.23133,1.38873 -0.97018,2.07893 l -0.97017,0.90627 1.17673,1.83953 1.17674,1.83953 0.58547,-0.72302 c 0.32202,-0.39767 0.73226,-1.25151 0.91165,-1.89742 z m -5.33159,-3.6109 c 0.52151,-0.83343 0.032,-1.56349 -1.0486,-1.56349 -0.89872,0 -0.97005,0.0839 -0.97005,1.14125 0,1.04662 0.0703,1.13286 0.84771,1.04 0.46627,-0.0557 0.99318,-0.33368 1.17094,-0.61776 z m -356.49866,9.42458 c -0.53815,-0.21715 -0.58189,-68.84324 -0.0467,-73.22808 1.2577,-10.30368 5.47357,-18.590991 12.19776,-23.977644 5.83261,-4.672426 13.59168,-7.519581 23.23565,-8.526234 6.90877,-0.721149 21.6889,0.09153 22.85399,1.256611 0.20051,0.200522 -0.0909,1.883011 -0.82327,4.753159 -0.62349,2.443523 -1.44454,6.45232 -1.82457,8.908438 -0.38,2.45612 -0.80372,4.68167 -0.94151,4.94567 -0.15805,0.30273 -0.6496,0.45919 -1.33097,0.42364 -11.70177,-0.61046 -15.49057,-0.35768 -19.98285,1.33321 -5.62346,2.11667 -9.3473,6.23462 -10.92375,12.07987 -0.48809,1.80975 -0.55091,5.37204 -0.65043,36.87268 -0.0847,26.80204 -0.19962,34.92624 -0.4968,35.1151 -0.41987,0.26685 -20.61072,0.30822 -21.26659,0.0436 z m -123.45044,-0.50381 c -0.0845,-0.22234 -0.1167,-32.37226 -0.0716,-71.44427 l 0.082,-71.039998 8.92311,-0.08514 8.92313,-0.08514 1.32032,0.77376 c 0.74157,0.434589 1.63472,1.333187 2.0376,2.05 l 0.71728,1.27624 -0.0807,69.395148 -0.0807,69.39514 -10.80841,0.0843 c -8.4752,0.0661 -10.84157,-0.003 -10.96202,-0.32 z m 294.31444,0.0117 c -0.29545,-0.29546 -0.384,-12.17172 -0.384,-51.50875 0,-50.870629 0.003,-51.12645 0.64279,-51.468738 0.76704,-0.410509 20.91507,-0.308381 21.33097,0.108122 0.39127,0.391846 0.50676,101.399976 0.11709,102.424846 l -0.31501,0.82852 h -10.5039 c -7.74307,0 -10.60487,-0.10093 -10.88794,-0.384 z M 63.818856,163.42029 c -0.543417,-1.41612 5.95874,-13.50842 10.661191,-19.82701 8.906324,-11.96724 18.034606,-15.40951 26.501123,-9.99354 5.3448,3.41902 9.42575,9.2348 9.41571,13.41835 -0.0101,4.19118 -4.74467,8.44499 -12.476877,11.20986 -6.875754,2.45863 -18.971242,4.59377 -30.957095,5.46467 -2.487418,0.18074 -2.986791,0.13749 -3.144052,-0.27233 z M 151.84,161.95205 c -3.87136,-1.79624 -5.31033,-6.0279 -4.20616,-12.36933 0.53724,-3.0855 1.8598,-7.36952 2.45474,-7.9514 0.5628,-0.55046 1.64374,1.03782 4.11657,6.04869 2.7464,5.56523 3.59233,8.00175 3.7962,10.93412 0.14908,2.14434 0.10558,2.34804 -0.66638,3.12 -0.68251,0.68251 -1.12003,0.82466 -2.52042,0.81885 -0.96347,-0.004 -2.24678,-0.26325 -2.97455,-0.60093 z m 15.59227,-0.24304 c -2.93152,-1.44495 -5.57298,-7.57341 -6.93826,-16.09747 -0.75125,-4.69039 -0.2457,-4.64319 4.24728,0.3965 6.68736,7.5011 9.09876,12.09071 7.71296,14.68009 -0.38774,0.7245 -2.13337,1.55567 -3.24397,1.54459 -0.40165,-0.004 -1.20175,-0.23968 -1.77801,-0.52371 z M 133.6,154.27783 c -6.75078,-3.24063 -7.75582,-8.42808 -2.62665,-13.55725 2.14583,-2.14583 6.55135,-5.09599 7.42404,-4.9715 1.01569,0.14489 1.80396,4.70343 1.86944,10.81093 0.0493,4.59369 -2.3e-4,5.05995 -0.66996,6.3134 -0.75115,1.40582 -2.07379,2.32678 -3.34097,2.32634 -0.40474,-1.3e-4 -1.5999,-0.415 -2.6559,-0.92192 z m 44.64001,0.56486 c -1.02777,-0.40694 -2.9409,-2.24369 -4.47723,-4.29848 -1.42373,-1.9042 -4.835,-7.75829 -5.98642,-10.27332 -1.18044,-2.57842 -0.69893,-2.76465 2.35476,-0.91071 5.20629,3.16082 9.89665,7.28402 11.27891,9.91509 1.165,2.21752 0.67229,4.74355 -1.08108,5.54244 -0.97396,0.44377 -1.02956,0.44443 -2.08894,0.025 z m 4.22409,-11.81854 c -1.30365,-0.5231 -3.43125,-2.13473 -5.55103,-4.20483 -2.34524,-2.29027 -6.99306,-7.56989 -6.99306,-7.94365 0,-0.6069 1.17671,-0.55987 4.01656,0.16051 6.17119,1.56545 10.43034,4.42255 11.31776,7.59213 0.51998,1.85719 0.23496,3.58882 -0.6983,4.2425 -0.78855,0.55232 -1.04987,0.57147 -2.09193,0.15334 z m -67.79981,-4.48582 c -1.71977,-0.85128 -4.40442,-3.53583 -5.57853,-5.57832 -1.9909,-3.46339 -0.85617,-5.85632 3.40934,-7.18968 3.87615,-1.21166 14.5419,-1.31363 14.99098,-0.14334 0.23034,0.60025 -1.17031,4.50685 -2.60044,7.25296 -2.84864,5.46995 -6.50872,7.49611 -10.22135,5.65838 z m 63.03506,-11.34625 c -3.63176,-1.86515 -8.57934,-5.40117 -8.57934,-6.13162 0,-0.84101 3.29315,-1.76971 6.4,-1.80486 2.83736,-0.0321 4.37994,0.54434 5.98113,2.2351 1.86644,1.97085 2.76968,5.55277 1.67601,6.64645 -0.86832,0.86831 -2.49246,0.58811 -5.4778,-0.94507 z M 74.720002,121.8997 c -8.769264,-0.88616 -23.053044,-4.69157 -38.400001,-10.23031 -8.309002,-2.99874 -12.091384,-4.55368 -12.246241,-5.03445 -0.412109,-1.27945 16.564891,-6.59266 26.966242,-8.439499 3.514886,-0.624096 5.276541,-0.739773 11.36,-0.745949 6.420493,-0.0065 7.504922,0.0703 10.016432,0.709504 7.150561,1.819895 12.41666,5.733734 15.122958,11.239594 2.494189,5.07434 2.315587,8.92012 -0.503623,10.84437 -2.314707,1.57992 -6.930941,2.2009 -12.315767,1.65674 z m 26.487868,-4.32914 c -4.077358,-1.50366 -8.00108,-8.18309 -6.478382,-11.02828 1.492234,-2.78826 7.905862,-1.72762 18.969082,3.13698 5.175,2.27549 5.9084,2.75759 5.30362,3.48631 -0.62982,0.75889 -4.22027,2.63703 -7.05548,3.69068 -2.2189,0.82461 -3.23093,1.00966 -6.02671,1.10199 -2.47748,0.0818 -3.71514,-0.02 -4.71213,-0.38768 z m 70.02561,-4.44974 c -2.63501,-0.59176 -5.8636,-1.66755 -6.58277,-2.19341 -0.53279,-0.38959 -0.52519,-0.4853 0.14239,-1.79386 1.04977,-2.05773 3.51796,-4.3803 5.11069,-4.80918 2.37728,-0.64014 4.59325,0.89438 6.39233,4.42656 1.90903,3.74805 -0.10203,5.48393 -5.06264,4.36989 z M 156.31395,99.431191 c -0.29347,-1.957056 0.35193,-7.132125 1.06114,-8.508518 0.32949,-0.639469 0.99796,-1.357748 1.48547,-1.596173 0.76799,-0.3756 1.04873,-0.360304 2.10168,0.114508 1.33972,0.604132 3.00793,2.208938 4.28658,4.123652 0.9638,1.443238 1.11143,3.492838 0.33176,4.605971 -0.97816,1.396516 -4.42343,2.618769 -7.40097,2.625579 l -1.66039,0.004 z M 110.4,100.27154 c -4.18302,-0.634301 -7.2937,-1.275741 -9.44,-1.946582 -7.244221,-2.264244 -10.719997,-5.514557 -10.719997,-10.024631 0,-5.769322 5.454384,-4.805264 15.538067,2.746342 4.43629,3.322314 10.38193,8.466727 10.38193,8.982871 0,0.35228 -0.54052,0.44097 -2.48,0.40689 -1.364,-0.024 -2.84,-0.0982 -3.28,-0.16489 z m 59.88367,-6.191671 c -3.74106,-1.71766 -9.08481,-8.064486 -9.91512,-11.776282 -0.64851,-2.899113 0.91789,-4.966118 4.54443,-5.996781 2.63781,-0.749664 10.25038,-0.800588 10.97754,-0.07344 0.35764,0.357644 0.52528,1.572944 0.65991,4.783952 0.43542,10.384903 -1.82711,15.100954 -6.26676,13.062547 z m -24.02599,-2.479865 c -0.86448,-1.878112 -2.27876,-5.975936 -2.89365,-8.384218 -1.14336,-4.478119 -0.69899,-7.059447 1.21412,-7.052781 1.99575,0.0069 5.96345,3.205977 6.97295,5.622061 0.71754,1.717331 0.56674,4.094582 -0.38277,6.033731 -0.88301,1.803347 -3.3895,4.661207 -4.08811,4.661207 -0.22962,0 -0.59976,-0.396 -0.82254,-0.88 z m -32.68531,-2.746007 c -10.166,-5.170771 -16.050946,-9.548279 -17.563676,-13.064717 -0.775299,-1.802227 -0.589571,-2.969712 0.688932,-4.330611 2.970332,-3.16178 9.359684,1.279708 17.497264,12.163024 4.01875,5.374743 4.95615,6.819767 4.69653,7.23984 -0.11505,0.18616 -0.32112,0.338471 -0.45793,0.338471 -0.13681,0 -2.32432,-1.055703 -4.86112,-2.346007 z M 72.15726,89.445274 C 62.163202,86.74769 44.536657,75.659002 23.040001,58.546082 c -3.256,-2.592016 -6.191602,-5.014249 -6.523559,-5.382745 -0.559348,-0.620916 -0.5636,-0.685325 -0.05804,-0.879325 1.198544,-0.459923 17.7581,3.137021 28.181601,6.121398 20.665499,5.916791 32.994549,12.701127 36.677736,20.182744 0.957014,1.943974 1.082266,2.495437 1.082266,4.76512 0,4.690995 -1.792394,6.569677 -6.240001,6.540407 -1.32,-0.0087 -3.121235,-0.210471 -4.002742,-0.448407 z m 63.64486,-2.331242 c -1.00551,-0.657523 -6.92787,-9.56041 -8.71558,-13.101837 -2.16541,-4.289655 -1.98835,-6.495642 0.52084,-6.489066 1.39314,0.0036 3.94777,1.121971 5.4389,2.380947 2.88585,2.436551 4.50108,7.878746 4.06003,13.679441 -0.21298,2.801168 -0.6423,3.963344 -1.30419,3.530515 z M 121.76,83.240192 c -9.73143,-8.703447 -14.24552,-14.598167 -12.98407,-16.955213 0.54498,-1.018304 2.64324,-1.527479 4.38019,-1.062916 3.39563,0.908196 6.15703,3.893373 9.08195,9.81794 1.75419,3.553213 4.16193,9.865367 4.16193,10.91097 0,1.030202 -1.31832,0.260013 -4.64,-2.710781 z m 579.18556,-6.522464 c -0.0849,-0.221251 -0.11639,-5.225251 -0.0699,-11.12 l 0.0844,-10.717726 10.72,-0.08479 c 9.79402,-0.07747 10.75456,-0.03763 11.12,0.461161 0.51514,0.703098 0.57853,20.292136 0.0687,21.244667 -0.31738,0.59304 -0.78019,0.618963 -11.05005,0.618963 -8.31216,0 -10.75344,-0.09032 -10.87315,-0.402275 z M 151.13363,76.328656 c -3.80478,-1.654432 -9.14391,-6.615293 -10.73274,-9.972346 -1.34605,-2.844064 -1.43504,-5.794867 -0.24961,-8.276308 1.45707,-3.050054 7.59436,-8.313069 9.04492,-7.756438 0.56638,0.21734 3.16163,6.656528 4.85504,12.046074 2.97892,9.480835 2.72115,14.455805 -0.74701,14.41784 -0.62933,-0.0069 -1.60609,-0.21336 -2.1706,-0.458822 z M 83.200003,67.819142 C 76.978966,66.590684 67.050332,58.276975 56.091583,45.120002 49.853608,37.630747 38.985892,22.859353 38.912904,21.770754 c -0.0555,-0.827831 0.993353,-0.404163 5.878067,2.374348 19.076228,10.850899 33.455809,20.81857 40.925419,28.368775 4.609552,4.65929 6.629235,8.536631 5.832272,11.19666 -0.910544,3.039127 -4.591354,4.850554 -8.348659,4.108605 z m 45.119507,-4.400999 c -7.26169,-2.391072 -12.58438,-7.925658 -14.42762,-15.001987 -1.29068,-4.954954 -1.06634,-12.313566 0.55113,-18.078177 0.85821,-3.058634 0.98416,-2.948036 7.1772,6.302023 9.66473,14.435485 13.73694,23.716688 11.57651,26.384708 -0.77585,0.958144 -2.69261,1.112761 -4.87722,0.393433 z M 102.82732,59.064764 C 92.993072,56.679743 83.895612,43.013247 77.430111,20.91225 c -0.991152,-3.38805 -1.18223,-4.912249 -0.61582,-4.912249 0.921526,0 17.203802,15.9934 23.104288,22.694378 8.340611,9.472138 11.801921,15.394078 10.789941,18.460417 -0.69238,2.09792 -3.90046,2.875382 -7.8812,1.909968 z"
       id="path7851"
       inkscape:connector-curvature="0" />
  </g>
</svg>
