<svg xmlns="http://www.w3.org/2000/svg" width="889.4" height="210.56"><path d="M809.95 210.08c-.1-.26 3.59-9.36 8.2-20.22 5.09-11.99 8.32-20 8.23-20.4-.08-.36-8.88-22.33-19.55-48.82-10.67-26.48-19.34-48.34-19.25-48.56.12-.32 2.52-.39 11.26-.32l11.11.08 7.8 19.68c20.1 50.75 20.32 51.3 20.63 50.75.16-.3 6.63-16.11 14.37-35.15 7.74-19.03 14.23-34.8 14.42-35.02.27-.33 2.68-.42 11.2-.42 9.39 0 10.87.07 11.03.48.29.76-55.84 135.1-57 136.44-1.66 1.9-2.03 1.96-12.65 1.96-8.25 0-9.64-.07-9.8-.48zm-665.27-16.21c-7.56-11.98-13.82-26.29-14.7-33.59-.71-5.98 2.56-9.19 8.44-8.27 5.44.85 8.79 4.22 10.69 10.77.65 2.25.72 3.18.72 9.22 0 7.09-.38 10.43-1.9 17.14-1.54 6.83-1.74 7.12-3.25 4.73zm26.08-11.7c-14.46-14.12-20.17-24.2-16.46-29.06a8.17 8.17 0 015.38-2.7c6.38-.02 11.89 10.06 15.76 28.85 1.24 6.04 1.37 7.62.63 7.62-.26 0-2.65-2.12-5.3-4.71zm-70.8 1.59c-.35-1.19-1.53-9.24-1.97-13.44-.55-5.19-.62-14.99-.13-18.54.47-3.38 1.7-6.99 3-8.79a7.28 7.28 0 016.53-3.07c5.08.46 11.56 4.77 13.68 9.09 1.16 2.36 1.43 6.28.63 9.38-1.24 4.84-5.24 11.02-11.07 17.08-4.4 4.59-9.2 8.85-9.96 8.85a.8.8 0 01-.72-.56zm226.35-6.62c-22.28-3.21-37.08-19.23-40.82-44.18-.63-4.2-.72-13.68-.16-17.92 1.95-14.93 8.08-27.4 17.3-35.17C310.77 73 320 69.66 331.96 69.2c20.52-.76 36.31 8.13 44.98 25.33 7.62 15.11 8.55 36.28 2.3 52.45-6.28 16.27-18 26.42-34.3 29.68-4.4.88-14.08 1.12-18.63.47zm12.49-19.83c11.54-2.06 19.17-11.57 21.14-26.32.23-1.77.3-5.21.2-9.37-.19-7.38-.86-11.16-2.82-15.9-4.86-11.73-14.85-18-26.26-16.48-5.87.78-9.5 2.56-13.74 6.76-4.84 4.8-7.72 11.09-8.96 19.6-.5 3.44-.5 12.5 0 15.76 1 6.57 3.48 12.96 6.6 17.08 5.37 7.1 14.58 10.52 23.84 8.87zM448.7 177.1c-8.54-1.32-15.96-5.39-20.78-11.42-8.82-11-9.97-28.58-2.68-40.79 1.61-2.7 5.76-6.91 8.81-8.95 4.83-3.2 11.56-5.58 18.5-6.5 1.63-.22 8.64-.46 16.2-.55l13.34-.17-.17-1.8c-.73-8-4.54-13.29-11.4-15.87-8.21-3.1-23.17-1.96-36.13 2.75-4.83 1.75-5.23 1.81-5.48.87-.26-.97-.26-17.16 0-18.13.5-1.84 12.76-5.75 21.86-6.96 3.93-.52 13.94-.6 18.1-.13 12.54 1.4 22 6.04 27.75 13.6 3.31 4.36 5.22 8.7 6.73 15.26.67 2.92.68 3.55.79 39.74.08 29.71.03 36.83-.3 37.04-.48.3-20.42.37-21.2.08-.4-.16-.5-.74-.5-3.04 0-1.57-.08-2.85-.18-2.85-.1 0-.64.35-1.2.77-2.99 2.26-8.38 4.75-12.86 5.94a51.31 51.31 0 01-19.2 1.1zm13.44-19.68c6.18-.89 13.42-4.36 18.35-8.8l1.65-1.48v-18.22l-13.36.12c-14.33.14-14.6.17-18.37 1.92-4.87 2.27-7.32 7.1-6.88 13.55.29 4.22 2.01 7.9 4.7 10.03 3.33 2.63 8.4 3.68 13.91 2.88zm300.47 19.85c-13.7-1.57-23.14-9-26.23-20.65-.95-3.6-1.1-8.38-1.1-36.7l-.02-28.39-9.2-.09-9.2-.08-.08-9.6c-.08-8.74-.04-9.64.46-10 .4-.3 2.8-.4 9.27-.4h8.73l.1-12.93c.04-7.12.2-13.06.35-13.2.33-.33 16.7-.36 17.87-.03 1.28.36 2.84 1.81 3.5 3.27.53 1.17.59 2.3.6 12.09v10.8h9.42c5.18 0 9.75.13 10.16.28.6.24 1.43 2 4.56 9.77 2.5 6.2 3.72 9.58 3.51 9.79-.2.2-5.55.35-13.9.4l-13.59.08-.1 27.2c-.09 28.76-.05 29.65 1.39 32.49.7 1.4 2.63 3.43 3.88 4.09 4.1 2.16 11.62 2.35 19.47.49 5.81-1.38 4.82-2.2 8.65 7.24 2.34 5.78 3.22 8.3 3.02 8.67-.57 1.07-9 3.77-15.03 4.8-4.26.74-12.64 1.05-16.49.6zm-124.95-.52c-7.72-.75-12.4-1.68-18.29-3.63a57.3 57.3 0 01-24.35-15.33c-11.95-12.48-18.15-31.02-18.15-54.27 0-18.13 3.74-33.33 11.13-45.22a59.55 59.55 0 0118.33-18.45 68.87 68.87 0 0138.85-10.3 89.53 89.53 0 0125.6 4.92c2.94 1.03 3.54 1.35 3.63 1.95.1.79-6.82 18.64-7.38 18.98-.19.12-1.3-.15-2.45-.6a65.1 65.1 0 00-18.74-4.26c-11.8-.9-22.68 2.98-30.6 10.89-7.53 7.54-12.02 18.44-13.41 32.6-.42 4.27-.42 14.08 0 18.34 2.34 23.67 13.52 38.2 32.63 42.4 4 .87 12.77.79 18.35-.18a85.06 85.06 0 0016.51-4.65c2.54-1 4.81-1.73 5.04-1.64.34.13.42 2.33.42 10.88 0 9.98-.04 10.74-.57 11.03-1.23.65-8.4 2.99-11.9 3.88-8.72 2.2-18.51 3.26-24.65 2.66zM214 176.29c-6.68-.74-17.6-3.12-20.14-4.38-1.06-.53-1.16-.73-2.34-4.84a198.75 198.75 0 00-6.17-17.38c-1.22-2.89-1.33-3.45-.67-3.45.24 0 2.22.71 4.4 1.58 7.6 3.04 17.55 5.55 25.56 6.44 1.85.21 6.17.38 9.6.37 12.1-.01 19.53-2 24.5-6.56 3.88-3.55 5.44-8.17 5.19-15.37-.17-4.95-.79-6.97-2.94-9.61-3.76-4.62-9.82-7.28-23.87-10.48-11.82-2.7-17.47-4.53-23.85-7.74-13.58-6.84-19.75-17.12-19.74-32.87.01-9.43 2.14-17.1 6.61-23.82 6.85-10.3 18.32-16.67 33.46-18.6 5.79-.73 17.35-.5 23.68.47 5.15.79 12 2.45 16.64 4.02 3.93 1.33 8.22 3.29 8.43 3.84.09.21-1.47 4.48-3.45 9.48-2.81 7.08-3.75 9.11-4.22 9.18-.33.05-2.22-.49-4.2-1.2-13.3-4.74-27.95-6.23-37.84-3.84-8 1.93-13.21 6.76-14.86 13.78-.72 3.05-.65 8.37.15 10.95 2.23 7.21 8.57 10.72 28.18 15.57 16.99 4.2 24.72 7.66 31.43 14.06 7.04 6.73 10.22 15.04 10.22 26.75 0 17.04-7.67 30.01-22.1 37.4-5.58 2.85-11.55 4.65-19.4 5.84-3.88.6-18.27.86-22.26.41zm653.12.05c-4.24-1.3-6.77-4.66-6.77-8.98a8.68 8.68 0 015.11-8.23 9.7 9.7 0 017.94-.14 9.19 9.19 0 012.29 15.26c-2.28 2.05-5.85 2.92-8.57 2.1zm5.07-2.61c1.2-.42 1.33-.93.25-.93-.6 0-1.08-.48-2.15-2.16l-1.39-2.16-.17 1.83c-.2 2.17-.53 2.57-1.97 2.43l-1.08-.1-.16-5.43-.16-5.43-1.03 1.25c-2.81 3.42-1.72 8.4 2.31 10.52 1.12.59 4.1.68 5.55.18zm3.88-4.4a6.77 6.77 0 00-3.67-8.08 7.94 7.94 0 00-5.44-.17c-.9.4-.8.42 1.78.59 4.1.26 5.42 1.15 5.42 3.62 0 .9-.23 1.39-.97 2.08l-.97.9 1.18 1.85 1.18 1.83.58-.72c.32-.4.73-1.25.91-1.9zm-5.33-3.6c.52-.84.03-1.57-1.05-1.57-.9 0-.97.08-.97 1.14 0 1.05.07 1.13.85 1.04.47-.05 1-.33 1.17-.62zm-356.5 9.42c-.54-.22-.58-68.85-.04-73.23 1.25-10.3 5.47-18.6 12.2-23.98 5.83-4.67 13.59-7.52 23.23-8.52 6.9-.73 21.69.09 22.85 1.25.2.2-.09 1.89-.82 4.76a114.4 114.4 0 00-1.82 8.9c-.38 2.46-.8 4.69-.95 4.95-.15.3-.65.46-1.33.42-11.7-.6-15.49-.35-19.98 1.34a17.1 17.1 0 00-10.92 12.08c-.5 1.8-.55 5.37-.65 36.87-.09 26.8-.2 34.93-.5 35.11-.42.27-20.61.31-21.27.05zm-123.45-.5c-.08-.23-.11-32.38-.07-71.45l.08-71.04 8.93-.09 8.92-.08 1.32.77a6.42 6.42 0 012.04 2.05l.71 1.28-.08 69.4-.08 69.39-10.8.08c-8.48.07-10.85 0-10.97-.32zm294.32 0c-.3-.29-.39-12.17-.39-51.5 0-50.87 0-51.13.65-51.47.76-.41 20.91-.31 21.33.1.39.4.5 101.4.11 102.43l-.31.83h-10.5c-7.75 0-10.61-.1-10.9-.38zM47.73 147.43c-.54-1.42 5.96-13.5 10.66-19.83 8.9-11.96 18.04-15.4 26.5-9.99 5.35 3.42 9.43 9.23 9.42 13.42-.01 4.19-4.75 8.44-12.48 11.2-6.87 2.47-18.97 4.6-30.95 5.47-2.5.18-3 .14-3.15-.27zm88.02-1.47c-3.87-1.8-5.3-6.03-4.2-12.37.53-3.08 1.86-7.37 2.45-7.95.56-.55 1.64 1.04 4.12 6.05 2.74 5.57 3.59 8 3.8 10.93.14 2.15.1 2.35-.67 3.12-.69.69-1.12.83-2.52.82-.97 0-2.25-.26-2.98-.6zm15.6-.24c-2.94-1.45-5.58-7.57-6.94-16.1-.75-4.69-.25-4.64 4.24.4 6.7 7.5 9.1 12.09 7.72 14.68-.4.72-2.14 1.55-3.25 1.54-.4 0-1.2-.24-1.78-.52zm-33.84-7.43c-6.75-3.24-7.75-8.43-2.62-13.56 2.14-2.15 6.55-5.1 7.42-4.97 1.02.14 1.8 4.7 1.87 10.81.05 4.6 0 5.06-.67 6.31-.75 1.4-2.07 2.33-3.34 2.33-.4 0-1.6-.42-2.66-.92zm44.64.56c-1.03-.4-2.94-2.24-4.47-4.3a86.87 86.87 0 01-6-10.27c-1.17-2.58-.69-2.76 2.36-.91 5.21 3.16 9.9 7.28 11.28 9.92 1.17 2.21.67 4.74-1.08 5.54-.97.44-1.03.44-2.09.02zm4.23-11.82c-1.3-.52-3.43-2.13-5.55-4.2-2.35-2.3-7-7.57-7-7.94 0-.61 1.18-.56 4.02.16 6.17 1.56 10.43 4.42 11.32 7.59.52 1.86.23 3.59-.7 4.24-.79.55-1.05.57-2.1.15zm-67.8-4.48c-1.72-.85-4.4-3.54-5.58-5.58-2-3.46-.86-5.86 3.4-7.19 3.88-1.21 14.55-1.31 15-.14.23.6-1.17 4.5-2.6 7.25-2.85 5.47-6.51 7.5-10.22 5.66zm63.03-11.35c-3.63-1.86-8.58-5.4-8.58-6.13 0-.84 3.3-1.77 6.4-1.8 2.84-.04 4.38.54 5.98 2.23 1.87 1.97 2.77 5.55 1.68 6.65-.87.87-2.5.59-5.48-.95zM58.63 105.9c-8.77-.89-23.05-4.7-38.4-10.23-8.3-3-12.09-4.55-12.24-5.04-.42-1.27 16.56-6.59 26.96-8.43 3.52-.63 5.28-.74 11.36-.75 6.42 0 7.5.07 10.02.7 7.15 1.83 12.42 5.74 15.12 11.25 2.5 5.07 2.32 8.92-.5 10.84-2.32 1.58-6.93 2.2-12.32 1.66zm26.49-4.33c-4.08-1.5-8-8.18-6.48-11.03 1.5-2.79 7.9-1.73 18.97 3.14 5.18 2.27 5.9 2.76 5.3 3.49-.63.75-4.22 2.63-7.05 3.69-2.22.82-3.23 1-6.03 1.1-2.48.08-3.71-.02-4.71-.39zm70.03-4.45c-2.64-.6-5.87-1.67-6.59-2.2-.53-.38-.52-.48.15-1.79 1.05-2.05 3.51-4.38 5.1-4.8 2.38-.65 4.6.89 6.4 4.42 1.9 3.75-.1 5.48-5.06 4.37zm-14.92-13.69c-.3-1.96.35-7.13 1.06-8.5.33-.65 1-1.37 1.48-1.6.77-.38 1.05-.36 2.1.11 1.34.6 3.01 2.21 4.3 4.12.95 1.45 1.1 3.5.32 4.61-.98 1.4-4.42 2.62-7.4 2.63h-1.66zm-45.92.84a67.7 67.7 0 01-9.44-1.95c-7.24-2.26-10.72-5.51-10.72-10.02 0-5.77 5.46-4.8 15.54 2.75 4.44 3.32 10.38 8.46 10.38 8.98 0 .35-.54.44-2.48.4-1.36-.02-2.84-.1-3.28-.16zm59.89-6.19c-3.75-1.72-9.09-8.06-9.92-11.78-.65-2.9.92-4.96 4.55-6 2.63-.74 10.25-.8 10.97-.07.36.36.53 1.58.66 4.79.44 10.38-1.82 15.1-6.26 13.06zm-24.03-2.48a64.13 64.13 0 01-2.9-8.38c-1.14-4.48-.7-7.06 1.22-7.06 2 .01 5.96 3.2 6.97 5.63.72 1.71.57 4.09-.38 6.03-.88 1.8-3.39 4.66-4.09 4.66-.23 0-.6-.4-.82-.88zm-32.69-2.75c-10.16-5.17-16.05-9.54-17.56-13.06-.77-1.8-.59-2.97.69-4.33 2.97-3.16 9.36 1.28 17.5 12.16 4.02 5.38 4.95 6.82 4.7 7.24-.12.19-.33.34-.46.34a70 70 0 01-4.87-2.35zm-41.41.6c-10-2.7-27.62-13.8-49.12-30.9C3.7 39.95.76 37.53.43 37.16c-.56-.62-.56-.68-.06-.88 1.2-.46 17.76 3.14 28.18 6.13 20.67 5.91 33 12.7 36.68 20.18.96 1.94 1.08 2.5 1.08 4.76 0 4.7-1.79 6.57-6.24 6.54-1.32 0-3.12-.2-4-.44zm63.64-2.34c-1-.65-6.92-9.56-8.71-13.1-2.17-4.29-1.99-6.5.52-6.49 1.4 0 3.95 1.13 5.44 2.38 2.88 2.44 4.5 7.88 4.06 13.68-.21 2.8-.64 3.97-1.3 3.53zm-14.04-3.87c-9.73-8.7-14.24-14.6-12.98-16.96.54-1.01 2.64-1.52 4.38-1.06 3.4.91 6.16 3.9 9.08 9.82 1.75 3.55 4.16 9.87 4.16 10.91 0 1.03-1.32.26-4.64-2.71zm579.19-6.52c-.09-.22-.12-5.23-.07-11.12l.08-10.72 10.72-.08c9.8-.08 10.76-.04 11.12.46.52.7.58 20.29.07 21.24-.32.6-.78.62-11.05.62-8.31 0-10.75-.09-10.87-.4zm-549.81-.4c-3.8-1.65-9.15-6.6-10.74-9.96-1.34-2.85-1.43-5.8-.25-8.28 1.46-3.05 7.6-8.31 9.05-7.76.56.22 3.16 6.66 4.85 12.05 2.98 9.48 2.72 14.46-.74 14.42a6.7 6.7 0 01-2.17-.46zm-67.94-8.5c-6.22-1.23-16.15-9.54-27.1-22.7C33.76 21.63 22.9 6.86 22.82 5.77c-.06-.83.99-.4 5.87 2.38C47.78 19 62.16 28.96 69.63 36.5c4.6 4.66 6.63 8.54 5.83 11.2-.91 3.04-4.59 4.85-8.35 4.1zm45.12-4.4c-7.26-2.4-12.58-7.93-14.43-15-1.29-4.96-1.06-12.32.56-18.08.85-3.06.98-2.95 7.17 6.3 9.67 14.44 13.74 23.72 11.58 26.38-.78.96-2.7 1.12-4.88.4zm-25.49-4.36c-9.83-2.38-18.93-16.05-25.4-38.15C60.35 1.52 60.16 0 60.73 0c.92 0 17.2 16 23.1 22.7 8.34 9.47 11.8 15.39 10.8 18.45-.7 2.1-3.91 2.88-7.89 1.91z" fill="#949494"/></svg>