<svg xmlns="http://www.w3.org/2000/svg" width="331.64" height="40.83"><g fill="hsl(195,8%,20%)"><path d="M77.3 15.1H49.24l-1.04.77v24.95h7.76v-9.36l.74-.66H77.3c5.2 0 7.63-1.4 7.63-4.99V20.1c0-3.6-2.43-5-7.63-5m0 9.23c0 1.69-1.12 2.04-3.55 2.04H56.8l-.83-.8V20.2l.74-.68h17.03c2.43 0 3.55.35 3.55 2.05v2.74zM99.08 19.81l6.68 9.79-.37.95H90.62l-3.77 4.64h21.99l1.52.93 3.42 4.7h8.88l-19.47-26.05M187.42 35.76v-6.93l.8-.69h14.86v-4.4h-23.56v17.08h34.75v-4.38h-26.02M179.52 15.09h35.11v4.85h-35.11zM140.36 19.68h28.29c-.44-3.6-2.67-4.59-8.33-4.59h-20.26c-6.39 0-8.43 1.25-8.43 6.08v13.57c0 4.84 2.04 6.08 8.43 6.08h20.26c5.74 0 7.94-1.08 8.1-4.8h-28.06l-.83-.79V20.21M29.33 25.12H8.75l-.6-.67v-4.4l.6-.47H36.5l.38-.92c-.94-2.44-3.39-3.57-7.93-3.57H9.66c-6.38 0-8.42 1.25-8.42 6.08v2.85c0 4.84 2.04 6.08 8.42 6.08H30.2l.64.57v4.6l-.52.72H6.83v-.02H.68s-.7.35-.68.51c.53 3.39 2.83 4.34 8.35 4.34h20.98c6.39 0 8.49-1.24 8.49-6.08v-3.55c0-4.83-2.1-6.07-8.49-6.07M236.72 14.99h-11.55l-.62 1.2 12.82 9.34c2.43-1.4 5.08-2.83 7.95-4.24M247.07 32.6l11.28 8.22h11.7l.48-1.08-16.84-12.33a132.1 132.1 0 00-6.62 5.2"/><path d="M235 40.8h-10.45l-.88-1.38c7.1-6.86 38.89-36.27 107.97-39.42 0 0-57.98 1.96-96.63 40.8"/></g></svg>