<svg xmlns="http://www.w3.org/2000/svg" width="278.67" height="360.44"><g fill="#102247"><path d="M238.08 338.48v21.91h7.02v-14.58h25.58v14.58h7.02v-21.87l-39.62-.04M244.32 331.4h27.02c3.75-.75 6.55-4.06 7.33-7.27H237c.78 3.2 3.61 6.52 7.33 7.26"/></g><path d="M216.8 360.4c3.54-1.5 5.44-4.1 6.17-7.13h-31.51l.02-29.12-7.07.02v36.24h32.39M131.87 331.3h24.96c3.76-1.1 6.92-3.96 7.69-7.14h-39.64v21.42h32.44v7.51l-25.45.02a14.2 14.2 0 00-9.05 7.33l2.06-.04h39.41v-21.94h-32.42v-7.16" fill="#102247"/><g fill="#102247"><path d="M70.27 331.37h27.01c3.76-.75 6.55-4.06 7.34-7.27H62.94c.77 3.2 3.6 6.52 7.33 7.27M70.27 345.69h27.01c3.76-.74 6.55-4.06 7.34-7.26H62.94c.77 3.2 3.6 6.52 7.33 7.26M70.27 360.4h27.01c3.76-.74 6.55-4.05 7.34-7.26H62.94c.77 3.2 3.6 6.52 7.33 7.27"/></g><path d="M0 324.19c.81 3.17 3.55 6.4 7.32 7.21h11.37l.58.23v28.7h7.1v-28.7l.64-.23H38.4c3.8-.98 6.49-4.04 7.29-7.21v-.07H0v.07" fill="#102247"/><g fill="#102247"><path d="M139.35 252.5l35.48-199.52c33.81 0 44.48 3.71 46.02 18.85 0 0 22.68-8.46 34.12-25.64-44.64-20.69-89.5-21.62-89.5-21.62l-26.18 31.88h.06l-26.18-31.89s-44.86.94-89.5 21.63C35.11 63.36 57.8 71.82 57.8 71.82 59.35 56.7 70 52.98 103.59 52.95l35.76 199.55"/><path d="M139.34 15.36c36.09-.28 77.4 5.58 119.68 24.01 5.66-10.17 7.1-14.67 7.1-14.67C219.9 6.42 176.62.16 139.34 0 102.05.16 58.77 6.42 12.54 24.7c0 0 2.07 5.54 7.1 14.67 42.28-18.43 83.6-24.29 119.7-24.01"/></g></svg>