<svg xmlns="http://www.w3.org/2000/svg" width="103" height="94"><radialGradient id="a" cx="244.57" cy="-427.14" r="68.69" gradientTransform="matrix(1 0 0 -1 -213.76 -386.5)" gradientUnits="userSpaceOnUse"><stop offset="0" stop-color="#FFF"/><stop offset=".48" stop-color="#EAEAEB"/><stop offset=".95" stop-color="#A9ABAE"/><stop offset="1" stop-color="#999B9E"/></radialGradient><path d="M49.85 17c.01-.6-.4-1.27-.4-1.27l-.02-.05s-.48-.95-1.3-1.23c-.81-.28-1.48.34-1.48.34l-.42.5c-.32.36-.51.66-1.2.93-.7.27-1.38.2-1.75.03-.36-.17-.45-.53-.45-.53l-.32-1.05c-.08-.33-.3-1.7-.3-1.7s-.5-2.74-.54-3.3c0 0 1.48-.13 3.69-.78 2.3-.67 3.04-1.2 3.04-1.2s-.43-.16-.48-.66l-.1-1.2s-.08-.5.5-1.13a3.3 3.3 0 011.75-.96 9.58 9.58 0 012.1-.13c.8.04 1.26.11 1.59.3.33.17.36.6.36.6l-.01 1.15s-.04.4.26.53c0 0 .5.3 2.2.13 0 0 .71-.13 1.84-.46 1.13-.34 4.13-1.23 4.55-1.34.43-.11.96-.3 1.65-.47.7-.18 2.04-.63 2.3-.73.28-.1 1.82-.62 2.94-.81 1.11-.2 2.22-.19 2.81.15 0 0 .36.3.52.66.16.36.48.86.92 1.09.46.23.76.37 1.88.27 0 0 .02-.1-.4-.37-.42-.28-.99-.7-.99-.7s-.33-.24-.4-.45c-.08-.2-.05-.3-.05-.3l.88-1.4s0-.18.5-.25c.5-.06 1.08-.13 1.74-.3.67-.19.8-.32.8-.32l.57.18s3.55 2.85 4.66 3.58l.2-.24s.43.02.82.17c.4.16.98.56.98.56s1.61 1.31 2.07 2.2l.23.68-.1.16s.91 1.31 2.09 2.6c0 0 1.23 1.67 1.69 2.1l-.2-.85.33-.23.2-.14.62.26a51.84 51.84 0 018.15 16.32l-.13.49.4.5a50.98 50.98 0 011.62 16.55l-.3.51.22.56A51 51 0 017.74 68.53l-.1-.36-.2-.16a50.63 50.63 0 01-6.6-19.1l.21-.52-.33-.49a51.44 51.44 0 01.42-14.5l.25-.57-.08-.33a50.6 50.6 0 016.47-16.8l.68-.38.08.03s.24-.17.36-.22l.07-.02s1.18-1.97 1.63-2.6c0 0 .54-.35.74-.41 0 0 .13-.02.2.08 0 0 .49-.44 1.7-2.06v-.02s-.1-.07-.13-.17c-.01-.1.11-.59.18-.72s.1-.15.1-.15 1.73-2.03 3.16-3.24c0 0 .26-.2.67-.25 0 0 1.48-.61 3.27-2.18 0 0 .05-.3.48-.86a4.46 4.46 0 012.22-1.34c.76-.17.9-.04.9-.04l.06.07.51.76s.57-.31 1.42-.6c.84-.29.98-.26.98-.26l.82 1.33-.99 2s-.64 1.42-1.65 2.19c0 0-.48.28-1.12.13-.65-.16-1.08.33-1.08.33l-.17.14.35-.1s.16.06.27.22l.92 1.17s0 .84-.42 1.94-1.46 2.9-1.46 2.9-.74 1.42-1.08 2.25a6.1 6.1 0 00-.49 2.26s.19.06.7-.2c.66-.34 1.1.02 1.1.02s.71.53 1.03.88c.27.3.8 1.77.21 3.23 0 0-.4 1-1.37 1.72 0 0-.22.33-1.53.18-.37-.05-.59-.28-1.38-.2-.78.07-1.23.81-1.23.81l.02-.02c-.7 1-1.16 2.45-1.16 2.45l-.05.17s-.25.5-.3 1.75c-.05 1.29.29 3.11.29 3.11s7.87-1.39 9.88-.05l.58.53s.04.17-.03.37c-.08.2-.38.68-1 1.12-.6.43-1.21 1.58-.3 2.3 1.03.82 1.69.77 3.43.47 1.74-.3 2.9-1.27 2.9-1.27s.97-.72.78-1.63c-.2-.9-1.02-1.19-1.02-1.19s-.66-.42-.14-1.23c0 0 .14-.7 2.55-1.32a95.31 95.31 0 0110.56-1.99s-2.54-8.22-.74-9.29c0 0 .44-.3 1.23-.4l.72-.04c.13-.03.34 0 .8.04.44.04 1 .08 1.67-.44.68-.52.7-.82.7-.82" fill="url(#a)"/><linearGradient id="b" gradientUnits="userSpaceOnUse" x1="456.27" y1="510.16" x2="502.78" y2="582.91" gradientTransform="translate(-406.16 -500.32)"><stop offset="0" stop-color="#8A8A8A"/><stop offset=".57" stop-color="#606060"/><stop offset=".59" stop-color="#FFF"/><stop offset=".61" stop-color="#585858"/><stop offset="1" stop-color="#303030"/></linearGradient><path d="M82.45 79.3l.45.18-.1.17c-.87 1.58-.94 1.93-1.36 2.26-.43.32-.58.54-1.45.7-.86.15-1.77 1.17-1.77 1.17s-.87.83-.48.86c.4.03 1.18-.6 1.18-.6s.5-.36.63-.26c.12.1-.54.75-.54.75s-1.17 1.18-2.48 1.98l-.4.22s1.87-1.4 2.77-2.4c0 0 .18-.27-.19.06-.37.32-1.33.82-1.74.82-.41 0 .01-.56.01-.56s.6-.77 1.82-1.76c1.22-1 2.24-.92 2.24-.92s.22.04.25-.28c.03-.3.31-.86.31-.86s.45-1.03 1.68-2.75c1.21-1.71 1.77-2.2 1.77-2.2s1.58-1.62 2.42-3.25c0 0 .58-1-.37-.26-.95.76-2.2 1.7-3.44 2.02-1.23.3-1.34-.84-1.34-.84s-.28-1.88 1.04-3.34c1.2-1.32 2.5-1.28 3.69-1.42 1.19-.14 2.2-1.57 2.2-1.57s.83-.92 1.3-3.8a5.55 5.55 0 00-.15-2.81l.02-.65-.36-.02-.14-.15s-.3-.3-.6-.53c-.32-.23-.7-.65-1.07-1.46 0 0-1.02-2.1-.8-5.15.24-3.05 2.77-2.76 2.77-2.76s1.48.14 1.76-.3.55-1 .65-2.22c.1-1.24-.4-2.41-.4-2.41s-.18-.61-1.05-.71c-.86-.1-1.05.17-1.05.17s-.25.07-.72 1.09-.75 1.49-1.6 1.7c-.85.21-2.02.1-2.55-1a41.7 41.7 0 01-2.35-5.76l.08-.74-.32-.47c-.07-.4-.12-.85-.13-1.24-.03-.99-.31-2.1-.64-3.2s-1.46-2.97-1.67-3.4c-.33-.66-.62-.94-1.02-.89-.4.06-.34.06-.52.06-.16 0-.26.21-.3.42-.05.22-.38 1.32-1.11 1.82a4.2 4.2 0 01-2.44.85s-1.49.1-2.66-2.1c-1.18-2.2-.88-3.6-.78-4.11.1-.51.54-1.25 1.23-1.39.69-.14 1.12-.18 1.12-.18s1.12-.01 1.6-.07c.55-.07.28-1 .28-1s-.36-2.38-2.35-4.33l-.1-.48-.75-.39c-1.88-2.04-4.35-5.35-4.35-5.35s-1.1-1.05-.17-2.5c0 0 .44-.96 1.74-.78.42.08.46.12.82.2.48.1 1 .22 1.48-.4 0 0 .43-.8-.28-1.82s-.92-1.74-1.78-1.68c0 0-.4-.06-.8.38-.39.44-1.4.72-2 .78-.68.07-2.26-.53-3.16-2.08-.51-.88-.75-1.35-.86-1.6l.23-.34.72.08c.18.36.55 1.06.97 1.82.56.97 1.05 1.11 1.38 1.26.32.14 1.05-.07 1.43-.29.38-.21.76-.7 1.43-.73.67-.05 1.63.07 2.3.79.7.72 1.54 2.22 1.47 2.93-.07.7-.11 1.4-1.04 1.7-.92.3-1.3.04-1.88-.09-.58-.12-.86-.07-1.1.22-.25.28-.52.89-.42 1.16.1.27.19.45.75 1.26.57.8 3.48 4.25 4.03 4.77l-.15.7.97.17c.63.72 1.36 1.67 1.69 2.26.49.91.75 2.34.78 3 .02.67-.3.97-.3.97s-.32.52-2.01.52c-1.52 0-1.62.3-1.62.3s-.47.47-.37 1.61c.1 1.15.62 2.35 1.56 3.37.78.85 2.25 0 2.75-.3.51-.29.82-1.25.82-1.25s.1-1.22 1.43-1.22c1.38 0 1.97 1.32 1.97 1.32s.97 1.3 1.94 4.12c.49 1.39.57 2.28.57 2.28l.13 1.67-.52.89.74.31c.13.54.34 1.24.68 2.04 0 0 1 2.38 1.44 3.29.44.9.9.77 1.27.8 0 0 .85.12 1.16-.27.31-.4.6-1.1.6-1.1s.67-1.8 2.15-1.65c1.47.15 1.84 1.09 2.1 2.17.25 1.07.3 3.22-.49 4.54-.8 1.32-1.68 1.14-1.68 1.14s-1.82-.17-2.23.2c-.41.39-.62.73-.68 1.62-.06.9.03 2.34.75 4.08.63 1.52 1.15 1.36 1.43 1.73.29.37 1.19 1.2 1.1 3.27-.08 2.07-.78 4.15-1.58 5.44s-2 2.05-2 2.05-.33.21-1.07.31-1.79.09-2.54.52c-.75.42-.99 1.5-1.06 1.97-.07.47-.11 1.53.92 1.41 1.04-.1 2.58-1.4 2.58-1.4s1.48-1.1 1.68-.75c.2.35-.63 1.78-.63 1.78s-1.04 1.57-1.9 2.53a24 24 0 00-2.43 3.1l-.84.47z" opacity=".69" fill="url(#b)"/><linearGradient id="c" gradientUnits="userSpaceOnUse" x1="425.29" y1="502.95" x2="445.79" y2="598.66" gradientTransform="translate(-406.16 -500.32)"><stop offset="0" stop-color="#A8A9AB"/><stop offset="1" stop-color="#636668"/></linearGradient><path d="M23.44 22.73l-.02.03.02-.03z" fill="url(#c)"/><linearGradient id="d" gradientUnits="userSpaceOnUse" x1="421.07" y1="504.37" x2="441.07" y2="597.74" gradientTransform="translate(-406.16 -500.32)"><stop offset="0" stop-color="#A8A9AB"/><stop offset="1" stop-color="#636668"/></linearGradient><path d="M38.19 89.7l.16.02a3.09 3.09 0 00-.62-.42c-.7-.37-3.73-2.37-4.67-3-.93-.64-2.57-1.7-3.3-1.48-.55.17-.47.39-.8.55-.33.16-.69.05-1.5-.38-.82-.44-1.43-.73-3.02-2.24-1.25-1.19 1.6-.12 1.6-.12s.61.26.34-.38c-.28-.65-1.68-2.34-3-3.7a20.09 20.09 0 01-2.43-2.97l-.57-.66v-.16l-.04-.08s-1.88-3.38-1.68-4.62c0 0 .07-.83 1.24-1.19.82-.25.71.55 3.11.98 0 0 2.07.56 2.61-.95.54-1.5-.56-3.39-.56-3.39s-1.45-2.65-3.25-2.76c-.95-.05-.69.59-2.12.93 0 0-1.92.18-2.52-.96a8.82 8.82 0 01-1.02-4.03c.03-1 .06-1.07.12-1.37.05-.2.2-.58.26-1.12l-.14-.67.2-.5-.01-.83c-.1-1.66-.22-4.22-.44-5.71-.22-1.5-.63-3.8-2-3.87 0 0-.66-.05-1.63.89-.88.85-1.68-.71-1.72-1.67a6.42 6.42 0 01.4-2.8c.28-.53 1.05-.56 1.19-.55.15.02.56.17 1.04.48.5.3 1.16.3 1.56-.1.4-.39.95-.85 1.17-2.6.23-1.73.23-3.54.02-5.7l-.23-.49 1.34-.29-.03-.19v-.05h-.01v-.07h-.01v-.06l-.02-.07v-.07l-.01-.02-.01-.07v-.01l-.01-.08-.01-.08V31l-.02-.08v-.02l-.01-.08v-.02a1.29 1.29 0 00-.02-.18v-.02l-.02-.09v-.11l-.01-.02-.01-.1v-.01l-.01-.1-.01-.1v-.03l-.01-.1V29.82l-.01-.01V29.69l-.01-.1v-.01l-.01-.1v-.26l-.01-.1V28.67c.05-1.24.3-1.75.3-1.75l.05-.17s.46-1.46 1.16-2.46l-.02.03s.45-.74 1.23-.82c.79-.07 1 .16 1.37.2l.12.02h.11l.04.01h.11l.06.01h.44a.55.55 0 00.07 0l.05-.01h.02l.04-.01h.01l.06-.01.1-.02a.2.2 0 00.03-.01h.01l.03-.01h.01l.03-.02h.03v-.01h.02l.01-.01.02-.01.02-.01.02-.01.02-.01.01-.01.01-.01.01-.01h.01v-.01l.01-.01c.33-.24.6-.52.8-.78l.04-.05a.62.62 0 00.04-.06h.01l.04-.06.1-.16h.01l.03-.05v-.01l.03-.04.01-.02.03-.04.04-.08.01-.01.02-.03v-.02l.02-.02.01-.03.01-.02.02-.02v-.02l.1-.2c.6-1.46.06-2.94-.2-3.23-.33-.35-1.05-.88-1.05-.88s-.42-.36-1.08-.03c-.52.27-.7.2-.7.2-.03-.5.14-1.43.48-2.26.34-.83 1.08-2.25 1.08-2.25s1.04-1.8 1.46-2.9c.42-1.1.42-1.93.42-1.93l-.91-1.18a.71.71 0 00-.27-.22c-.2.08-.35.1-.35.1l.17-.14s.42-.5 1.07-.33c.65.15 1.12-.13 1.12-.13 1.01-.76 1.66-2.19 1.66-2.19l.98-2-.82-1.33s-.13-.03-.98.26c0 0-.77 1.9-1.72 3.09 0 0-.38.55-.67.41a1.49 1.49 0 00-.9-.08c-.29.06-1.17.35-1.96 1.41s-.88 1.86-.45 2.1c.42.24 1.04-.08 1.42-.4.37-.34.63-.5.75-.48.12.02.1.32.07.41-.03.1-.15 1.37-1.62 3.92-.37.64-.85 1.59-1.07 2.04l.6.45-1 .5c-.26.76-.6 1.95-.47 2.61.2 1.01 1.16 1.01 1.16 1.01s.62.03 1.35-.34c.72-.38.89 1.24.89 1.5s0 1.73-1.02 2.44c0 0-.41.32-.99.32-.58 0-.95-.17-.95-.17s-.98-.28-1.6.08a5.6 5.6 0 00-1.89 2.17 10.46 10.46 0 00-1.02 4.4c.02 1.1.18 2.16.3 2.88l.66.43-.54.62c.08 1.14.17 3.37.15 4.11-.01.91-.15 2.84-1.11 3.3 0 0-.33.17-.87-.24s-1.13-.43-1.37-.44a1.9 1.9 0 00-1.7 1.31 9.25 9.25 0 00-.28 3.6c.08.91.87 2.46 1.87 2.46 0 0 .48.03 1.06-.56.56-.58.9-.63 1.15-.62.26 0 .75.27 1.07 2.85.31 2.44.44 4.44.42 6.67l.6.39-.76.76c-.04.2-.08.42-.14.63a6.45 6.45 0 00-.02 2.57c.16 1.21.8 3.72 1.75 4.38a3.9 3.9 0 002.92.79c.84-.07 1.42-.72 1.42-.72s.33-.34.69-.23c.35.1 1.34.66 2.06 2.08.7 1.43.87 3-.32 3.27-1.19.28-3.23-.84-3.23-.84s-1.16-.65-2.11.06-.98 1.8-.5 3.15c.26.74.78 1.94 1.51 3.19l.72.3-.2.55c.5.75 1.06 1.48 1.69 2.1 0 0 2.46 2.74 3.83 4.46 0 0 .08.16-.15.02a4.25 4.25 0 00-1.82-.57c-.56.06-.45.4-.45.4s.23 1.25 4 3.36c0 0 1.37.77 2.22.77 0 0 .28.04.62-.35.35-.38.45-.34.69-.26.24.08.55.25 1.74 1.1 1.19.86 3.5 2.18 4.33 2.74.83.55.79.66.62 1.05-.17.4.59.62.59.62s1.9.86 2.93.85c1.03-.02 1.46-.12 2.1 0 .63.14 1.27.3 1.34.36.07.05-.32.03-.32.03s-2.36-.27-2.49-.2c-.13.06.01.18.99.43 1.25.22 2.5.4 3.78.52-.49-.07-2.52-.33-3.82-.72 0 0-.13-.08.17-.01.3.06 2.02.22 2.47.16.45-.07-.1-.28-.1-.28s-.9-.42-2.88-.58c0 0-.8-.06-1.5.01-.7.07-1.42-.26-1.42-.26s-1.02-.32-.78-.65a.47.47 0 00.07-.5l-.45-.36z" opacity=".45" fill="url(#d)"/><linearGradient id="e" gradientUnits="userSpaceOnUse" x1="444.76" y1="550.81" x2="473.84" y2="550.81" gradientTransform="translate(-406.16 -500.32)"><stop offset="0" stop-color="#231F20"/><stop offset="1" stop-color="#474747"/></linearGradient><path d="M62.34 86.16l-.44.65c.1.65-.1.87-.25 1.11-.16.26-.59.6-.38 1.19.22.59 1.7.4 2.54.14.85-.26 1.57-.49 2.13-.69.57-.2.72.09.72.09s.25.17-.57.6c-.82.44-2.34.64-3.06.72-.72.09-.5-.04-1.58.33-1.08.38-.07.71-.07.71 2.43.63 4.19.11 4.19.11l.33-.1c.27-.07.53-.15.8-.24-2.02.46-3.33.15-3.74.1-.43-.06-.78-.15-.88-.36-.1-.22.48-.2.48-.2s1.68-.19 3.24-.7c1.56-.5 1.93-.97 1.87-1.33-.06-.36-.85-.34-1.78-.03-.94.3-2.34.75-2.67.82-.33.07-.69.06-.8-.15-.12-.2-.22-.53.14-.9.36-.38.4-.7.4-.7.06-.25.06-.52.02-.8l-.64-.37.55-.12c-.3-1.12-1.06-2.22-1.28-2.58-.32-.5-.84-.79-2.4-.53-1.55.26-3.38 1.03-3.38 1.03s-1.89 1-3.3.82c-1.41-.2-1.7-1.62-1.69-2.07.02-.44.3-.83 1.04-1.12.74-.29 2.47-.68 4.99-.8S60.33 79 60.33 79c.32-.48.92-1.54-.5-2.33-1.4-.8-1.43-.6-2.11-1.11a4.52 4.52 0 01-1.8-2.33l-.86-.55.41-.38c-.34-.67-.69-1.27-.69-1.27s-1.28-1.9-.25-3.7c1.04-1.8 2.74-2.35 2.74-2.35s1.5-.33 3 .02c1.41.32 2.13-.22 2.13-.22s.86-.37 1.12-2.1c.27-1.73-.01-4.95-2.31-5.58-2.31-.63-3.53.56-3.53.56s-1.24 1.37-1.65 1.57c-.4.2-1.02.57-1.02.57s-.86.51-1.45.64c-.4.09-1.8-1.77-1.93-3.2-.14-1.31-.4-2.38-.3-5.1l-.5-.62.54-.54c.1-3-.41-5.11-1.18-6.46a6.44 6.44 0 00-2.77-2.48 4.86 4.86 0 00-3.17-.08c-1.02.37-1.24.68-1.61 1.32-.38.65-.84.61-.84.61s-1.43.04-1.89-2.13c-.64-3.05.36-4.04.36-4.04s.32-.47 1.37-.62c1.05-.14 1.73.12 2.54.32.8.2 1.4.11 2.42-.38 1-.49 1.44-1.3 1.23-2.74-.2-1.39-.25-1.74-1.48-5.96l-.87-.46.58-.58a32 32 0 01-1.26-6.96c-.1-.98.05-1.3.6-1.54.57-.26 1.11-.17 1.93-.12.82.05 1.43-.08 1.85-.32.42-.24 1.58-.87 1.5-2.16a4.98 4.98 0 00-1.95-3.35 2.4 2.4 0 00-2.56.13c-.6.45-.84 1.03-1.21 1.21-.37.19-.9.6-1.45.48-.56-.13-.58-1.37-.82-2.77l-.34-2-.68-.25c.05.56.54 3.3.54 3.3s.22 1.37.3 1.7l.32 1.05s.1.36.46.54c.36.17 1.05.24 1.74-.04.7-.27.89-.57 1.2-.93l.43-.5s.66-.62 1.48-.34c.8.28 1.3 1.23 1.3 1.23l.02.06s.4.66.4 1.27v-.06s-.03.3-.7.82c-.68.52-1.23.48-1.68.44-.45-.04-.67-.07-.8-.05l-.72.04c-.78.11-1.22.41-1.22.41-1.8 1.06.74 9.29.74 9.29l-.28.61s.51 2.05.9 3.38c.4 1.33.57 2.64.62 2.9.06.28.05.77-.31 1.06-.36.29-1.24.53-1.43.56-.18.03-.53-.04-1-.2-.46-.16-.92-.19-.92-.19s-1.1-.18-2.29.18c-1.18.36-2.07 1.57-2.14 3.08a6.62 6.62 0 00.53 3.62c.59 1.34 1.66 2.1 2.46 2.11.81.02 1.47-.4 1.93-1.05.46-.65.6-.75.6-.75.54-.3 1.94-.43 2.65-.17.7.26 2 1.07 2.72 2.68.58 1.3.76 2.75.73 5.36l.58.45-.6.7c-.02.25-.02.5-.03.77-.15 3.87.71 5.86.71 5.86a5.34 5.34 0 001.75 2.32c.72.49 1.7.15 2.02 0 .31-.16 1.2-.57 1.94-1.04.75-.48.73-.68 1.63-1.51.9-.84 2.08-.6 2.08-.6s1.1.02 1.74 1.3c.63 1.29.5 3.11.34 3.78-.15.66-.44 1.1-1.06.98-.62-.12-1.65-.22-2.02-.23a8.65 8.65 0 00-2.4.2c-.93.24-2.2.92-3.4 2.88a4.06 4.06 0 00-.27 3.6c.17.47.64 1.1 1.04 1.9l.76.25-.35.66c.4.96.7 1.5 1.3 2.15.65.7 1.68 1.25 2.89 1.71 1.2.47.66 1.29.66 1.29-.7 1.5-2.75 1.55-3.36 1.62-.6.07-1.87.2-3.05.45-1.19.26-2.3.42-2.96 1.18-.66.77-.4 1.56-.01 2.4.39.83 1.43 1.28 2.85 1.22 1.43-.06 2.35-.47 3.22-.85s2.36-.8 2.8-.94c.45-.13 1.06-.39 1.5.26.49.7 1 1.7 1.23 2.45l.56-.12z" opacity=".35" fill="url(#e)"/><path d="M101.57 51.16l.45-4.39.05-.51-.1-.24c-.46 5.81-.94 7.72-.94 7.72l.03-.1c.2-.82.36-1.64.51-2.48zm-10.3-38.58l.33.41.28.5c1.02 1.65 2.84 4.3 2.84 4.3s.74.95.9.96c.17.01-.08-.74-.08-.74s-.27-.98.52.3a15.7 15.7 0 011.32 2.72c.11.36.04.41.04.41s-.15.07-.15.33c0 .5.5 1.66.5 1.66s1.54 3.93 2.07 5.56c.52 1.65 1.13 4.37 1.13 4.37s.19.8.2 1.18c.03.37-.06.38-.22.18-.17-.2-.33-.07-.33-.07s-.18.07-.18.77.09 2.35.22 3.62c.15 1.5.62 2.13.62 2.13s.41.62.52-.58c.1-1.02.19-.22.19-.22.2 1.55.06 4.54.03 4.95l-.05.64.13-.22c.2-2.97.06-5.36.06-5.36s-.14-1.32-.3-1.3c-.15 0-.2.7-.2.7s-.07.46-.16.45c-.1-.01-.37.02-.57-1.41-.2-1.44-.16-2.95-.16-2.95s-.04-.16.05-.2c.1-.03.19.1.19.1s.13.2.29.04c.15-.15.19-.62-.3-3.08-.3-1.45-.72-2.9-1.01-3.83l-.3-.33-.05-.72s-.31-.91-1.04-2.74c-.72-1.82-.84-2.46-.84-2.46s-.05-.2.06-.23c.12-.03.1-.18.1-.18s-.02-.24-.28-.99c-.27-.74-.43-1.28-1.36-2.86-.87-1.47-1.12-1.56-1.12-1.56s-.43-.23-.11.6c.3.82-.08.23-.08.23-.92-1.18-2.84-4.3-2.84-4.3L91.6 13l-.51-1.26-.02.01M1.55 32.7l-.19.37c-.47 2.5-.62 5.13-.62 5.3.01.21-.03.22-.07.18-.04-.03.03-.16-.05-.16s-.1.21-.1.21c-.03.29-.05.57-.06.86h.01c.07-.1.1-.03.1-.03s-.03.13.1.06.2-1.38.2-1.38.02-2.82.84-6.14C2.53 28.64 3 27.7 3 27.7s.15-.42.13-.09c-.01.34.2.37.2.37.38-.06.82-1.13 1.27-2.5.44-1.36.66-2.59.66-2.7 0-.1-.05-.2-.15-.13-.1.05-.12 0-.12 0a6 6 0 01.36-1.12c1.25-3.2 3.1-5.7 3.1-5.7l.1-.5-.43.67c-.05.08-.04.3 0 .32l-.47.45c-2.71 4.47-3.06 6.56-3.06 6.56-.02.21 0 .3.1.3.07 0 .26-.35.12.36-.09.47-.52 1.7-.69 2.2-.17.51-.36.86-.5.84-.13-.03-.13-.24-.13-.24s-.04-.55-.4.25c-.35.79-.71 1.85-1.42 4.65l-.1.38-.02.62zm3.29 29.93c-.15-.4-.26-.73-.18-.59.09.15.2.44.46.73.27.3.45-.23-.62-3.1s-1.35-3.04-1.4-3.1c-.05-.06-.22-.24-.17.17.05.4.02.65-.5-1.15-.54-1.8-1-4.84-1.03-5.09-.03-.24-.17-1.77-.4-3.6a28.66 28.66 0 01-.2-4.27c.03-.54-.07-.83-.13-.84-.05 0-.1.05-.13.29-.04.23 0 .4-.07.38C.42 42.46.4 42 .4 42v.67l.03.4c.04.6.13.36.14.25l.03-.33s.1-.88.08.02c-.02.9.24 4.56.24 4.56l.06.73.07.1-.04.1c.26 2.42.8 5.08.8 5.08.5 2.42 1.1 3.85 1.3 4.25.2.4.24.09.17-.27-.07-.35.55.69.87 1.68.33.99.56 1.81.56 1.81s.25.78.14.83c-.11.05-.3-.3-.3-.3s-.46-.83-.27-.22a50.9 50.9 0 001.6 3.82l1.4 2.47c-1-1.8-2.3-4.64-2.44-5.01zm2.44 5.01l.2.36-.2-.36zM20.72 2.87c-.21.35-.24.52-.24.52s.11-.12.18-.24c.07-.12.06-.28.06-.28zm-3.5 2.7c-.42.05-.68.25-.68.25s.35-.06.68-.25zM84 4.9s.25-.02.35.03c.1.05.07-.16.07-.16s-.29-.4-.32-.56c-.32-.08-.62-.1-.62-.1l-.02.04c-.01.07-.04.19-.02.3 0 0 .48.36.56.46zm3.49 2.98l.1-.15-.23-.68-.02-.04c0 .07-.05.13-.17.12 0 0-.1-.03-.02.2.07.14.2.37.34.55z" opacity=".1" fill="#232323"/><path d="M101.57 51.16l.45-4.39.05-.51-.1-.24c-.46 5.81-.94 7.72-.94 7.72l.03-.1c.2-.82.36-1.64.51-2.48z" opacity=".1" fill="#232323"/><linearGradient id="f" gradientUnits="userSpaceOnUse" x1="266.49" y1="-395.28" x2="295.96" y2="-485.03" gradientTransform="matrix(1 0 0 -1 -213.76 -386.5)"><stop offset="0" stop-color="#FFF"/><stop offset=".01" stop-color="#FCFCFC"/><stop offset=".07" stop-color="#EEE"/><stop offset=".13" stop-color="#E5E5E5"/><stop offset=".25" stop-color="#E3E3E3"/><stop offset=".34" stop-color="#8A8A8A"/><stop offset=".44" stop-color="#B8B8B8"/><stop offset="1" stop-color="#3B3B3B"/></linearGradient><path d="M79 84.53s.67-.65.54-.75c-.13-.1-.62.25-.62.25l-.19.14.4-.25s-.04.24-.36.56l-.26.25c-.95.93-2.38 2-2.38 2l.4-.22c1.31-.8 2.47-1.98 2.47-1.98z" opacity=".5" fill="url(#f)"/><linearGradient id="g" gradientUnits="userSpaceOnUse" x1="460.46" y1="512.56" x2="509.59" y2="573.31" gradientTransform="translate(-406.16 -500.32)"><stop offset="0" stop-color="#EFF0F0"/><stop offset=".59" stop-color="#F0F1F2"/><stop offset=".6" stop-color="#787878"/><stop offset=".65" stop-color="#EEEFF0"/><stop offset="1" stop-color="#D8D9DB"/></linearGradient><path d="M82.98 39.7l.51-.89-.12-1.66s-.09-.9-.57-2.28c-.98-2.83-1.94-4.13-1.94-4.13s-.6-1.31-1.97-1.31c-1.33 0-1.43 1.22-1.43 1.22s-.31.96-.82 1.26c-.5.29-1.97 1.14-2.75.3a5.79 5.79 0 01-1.56-3.38c-.1-1.15.37-1.61.37-1.61s.1-.3 1.61-.3c1.7 0 2.02-.53 2.02-.53s.32-.3.3-.96-.3-2.1-.79-3c-.32-.6-1.05-1.54-1.68-2.26l-.97-.18.15-.7a70.33 70.33 0 01-4.03-4.76c-.56-.81-.65-1-.75-1.27-.1-.26.17-.87.41-1.16.24-.28.53-.34 1.1-.2.59.12.97.37 1.9.08.91-.3.96-1 1.03-1.7.07-.71-.78-2.21-1.46-2.94a2.89 2.89 0 00-2.31-.79c-.67.04-1.05.53-1.43.74-.39.21-1.1.42-1.43.28-.33-.14-.83-.28-1.38-1.26-.43-.76-.8-1.46-.98-1.81l-.71-.08v.01a11 11 0 001.63 2.81c1 1.16 2.27.92 2.27.92s.82-.09 1.53-.77c.71-.68 1.76-.15 2.03.04.26.19.85.91 1.47 2.13.62 1.21-.35 2.05-.35 2.05s-.56.54-1.7.1c-1.13-.45-1.8.25-1.98.6-.18.36-.5 1 .08 1.74s3.17 4.27 4.91 5.94a8.94 8.94 0 012.68 4.34c.37 1.3.08 1.9-.52 2.02-.6.12-1.14.02-2.08.19-.94.17-1.35.37-1.55 1.65a5.72 5.72 0 001.67 4.36c1.11 1 2.34.39 2.76.23a2.73 2.73 0 001.69-2.03c.18-.78.85-.72.85-.72s.56-.07.85.12c.29.19.63.53 1.4 1.87a15.37 15.37 0 011.73 4.74c.25 1.59.06 1.82.31 2.95a27.71 27.71 0 001.47 4.07c.38.83.78 1.66.99 2.1.2.45.53.79 1.44.8.91.03 1.27-.22 1.54-.65.27-.44.61-1.1.72-1.32.1-.23.46-.91 1.14-1.02.69-.1 1.76.01 2.1 1.2.32 1.07.77 2.62-.15 4.5-.65 1.33-1.13.86-2.45.95 0 0-1.17-.01-1.78.92-.61.93-.42 2.6-.29 3.87s.99 3.12 1.62 3.57c.64.44.86.85 1.08 1.25.22.4.54 1.2.22 3.32-.31 2.1-.98 3.74-1.87 4.52l-.07.06a4.4 4.4 0 01-.22.2c-.53.52-.37.54-.89.8-.59.28-.98.2-1.95.36-.97.16-1.59.33-2.1.82-.5.5-1.24 1.4-.97 3.19.15.98 1.32.58 2.23.1-.28.13-.56.23-.8.25-1.03.12-1-.95-.92-1.41.07-.47.31-1.55 1.06-1.97s1.8-.41 2.53-.51c.74-.1 1.08-.32 1.08-.32s1.2-.76 2-2.05c.8-1.29 1.5-3.37 1.58-5.44.09-2.07-.82-2.9-1.1-3.27-.28-.37-.8-.2-1.43-1.73a9.14 9.14 0 01-.75-4.08c.06-.89.27-1.23.68-1.61.41-.38 2.22-.21 2.22-.21s.9.18 1.69-1.14c.8-1.31.74-3.47.48-4.54-.25-1.08-.62-2.02-2.1-2.17-1.47-.15-2.13 1.66-2.13 1.66s-.3.7-.61 1.1c-.31.39-1.16.28-1.16.28-.37-.05-.82.1-1.27-.81-.43-.91-1.44-3.29-1.44-3.29-.34-.8-.55-1.51-.69-2.06l-.73-.3z" opacity=".73" fill="url(#g)"/><linearGradient id="h" gradientUnits="userSpaceOnUse" x1="272.87" y1="-392.83" x2="302.47" y2="-482.96" gradientTransform="matrix(1 0 0 -1 -213.76 -386.5)"><stop offset="0" stop-color="#FFF"/><stop offset="1" stop-color="#E4E5E6"/></linearGradient><path d="M82.49 79.31l.8-.48a24.62 24.62 0 012.43-3.1c.86-.96 1.9-2.52 1.9-2.52s.83-1.43.63-1.78c-.13-.24-.7.01-1.68.75-3.68 2.74-3.97 1.24-3.97 1.24.42 2.44 4.72-1.63 5.1-1.37-.06.56-.45 1.17-1.25 2.25 0 0-.38.55-.78.95l-.57.64-.13.13c-.47.54-1.02 1.24-1.6 2.01-.01.03-.1.12-.12.15-.3.41-.5.73-.7 1.06-.02.02-.07.01-.08.03l-.02.04c-.25.4-.38.71-.51.96l-.03.1s-.32.66-.46 1.06-.12.55-.62.63c-.5.07-.28-.06-1.02.2 0 0-.4.2-.94.56l-.08.07c-.74.6-1.25 1.12-1.54 1.43l-.14.2s-.16.17.05.19c.2.02.63-.01 1-.17l.1-.06c-.2.1-.38.17-.52.16-.4-.02.48-.86.48-.86s.9-1.02 1.77-1.18c.86-.15 1.02-.37 1.45-.69.42-.33.49-.68 1.35-2.25l.1-.18-.4-.17z" opacity=".53" fill="url(#h)"/><linearGradient id="i" gradientUnits="userSpaceOnUse" x1="444.69" y1="510.96" x2="469.72" y2="592.07" gradientTransform="translate(-406.16 -500.32)"><stop offset="0" stop-color="#FFF"/><stop offset=".75" stop-color="#F9F9F9"/><stop offset="1" stop-color="#D5D7D8"/></linearGradient><path d="M55.06 72.69l.41-.38c-.34-.67-.7-1.27-.7-1.27s-1.27-1.9-.24-3.7c1.04-1.8 2.74-2.35 2.74-2.35s1.5-.33 3 .02c1.42.32 2.13-.22 2.13-.22s.87-.38 1.12-2.1c.26-1.74-.01-4.95-2.31-5.58-2.31-.64-3.53.56-3.53.56s-1.24 1.37-1.65 1.57c-.4.2-1.02.56-1.02.56s-.86.52-1.45.65c-.4.09-1.8-1.77-1.93-3.2-.14-1.31-.4-2.39-.3-5.08v-.02l-.5-.63.54-.53c.1-3-.42-5.12-1.19-6.46a6.4 6.4 0 00-2.76-2.48 4.87 4.87 0 00-3.17-.08c-1.02.37-1.24.67-1.61 1.32-.38.65-.84.6-.84.6s-1.43.05-1.89-2.13c-.64-3.04.36-4.03.36-4.03s.32-.48 1.37-.62 1.73.11 2.54.32c.8.2 1.4.11 2.42-.38 1-.49 1.44-1.3 1.24-2.74-.2-1.4-.25-1.72-1.49-5.96l-.87-.46.58-.58c-1.18-4.27-1.26-6.96-1.26-6.96-.1-.97.05-1.29.6-1.54.58-.26 1.12-.17 1.94-.12a3.3 3.3 0 001.84-.32c.43-.23 1.59-.87 1.5-2.16a4.97 4.97 0 00-1.95-3.35 2.4 2.4 0 00-2.56.13c-.6.45-.84 1.03-1.2 1.21-.38.19-.9.61-1.46.48-.55-.13-.58-1.37-.82-2.77l-.34-2-.67-.25c.04.56.53 3.3.53 3.3l.3 1.63v.07l.1.3c.1.2.36.45.93.5a2.6 2.6 0 002.03-.72c.25-.23.86-.9.86-.9s.33-.64 1.25-.5c.92.14 1.24.77 1.4 1.01.17.24 1.57 1.96.68 2.86l-.16.15c-.1.11-.24.25-.44.4-.68.52-1.23.48-1.68.44-.45-.04-.66-.07-.8-.04l-.71.04c-.8.1-1.23.4-1.23.4-1.8 1.07.74 9.29.74 9.29l.97 2.98c.3.95.5 1.62.79 3.26.3 1.64-.23 2.1-.53 2.25-.29.16-.98.57-1.76.6-.79.04-1.03-.36-2.38-.42-1.34-.07-2.24.34-2.66.9a4.82 4.82 0 00-.67 3.4c.23 1.54.5 2.07 1.09 2.75.59.68 1.17.97 1.98.7.79-.27.76-.76 1.17-1.17.52-.52.86-.79 2.06-.82a3.71 3.71 0 012.6.79 6.2 6.2 0 012.3 3.35c.35 1.71.42 2.27.42 3.68s-.1 2.98-.07 4.38c.04 1.4.19 2.84.58 3.8a6.2 6.2 0 001.4 2.17c.47.43.9.44 1.37.26.48-.2 1.51-.78 2.37-1.33.87-.55.8-.99 1.58-1.5a3.4 3.4 0 012.46-.49c.66.12 1.67.63 2.09 1.9.42 1.25.36 2.67.36 2.67s.04 1.18-.45 1.87c-.47.7-1.27.62-1.62.55-.35-.07-1.1-.14-1.1-.14s-1.44-.16-2.56.1a5.3 5.3 0 00-2.73 1.9 4.07 4.07 0 00-.98 2.15c-.04.6.03 1.6.64 2.57.61.98.71 1.44 1.41 2.83.7 1.4 2.15 2.17 2.2 2.2.05.04 1.39.53 1.9.96.5.42.55.82.4 1.2-.14.38-.44 1.1-1.6 1.6-1.17.52-2.6.53-3.5.62-.9.1-2.65.34-3.7.84-1.04.5-.97 1.45-.97 1.45s-.02 1.56 1.34 1.98c1.37.44 2.64 0 3.2-.23.57-.24 1.49-.58 1.49-.58s1.8-.64 2.75-.85c.97-.22 1.54-.33 2.19.83.65 1.16 1.01 1.89 1.08 2.62a1.8 1.8 0 01-.46 1.44c-.25.28-.22.46-.22.46-.1.87 1.18.76 1.18.76l.11-.02c-.26.02-.5-.02-.59-.18-.11-.2-.21-.53.15-.9.36-.38.4-.7.4-.7.3-1.43-1.04-3.37-1.35-3.87-.32-.5-.84-.8-2.4-.53-1.55.26-3.38 1.03-3.38 1.03s-1.9 1-3.3.81c-1.42-.18-1.7-1.61-1.69-2.06.02-.44.3-.83 1.04-1.12.73-.29 2.46-.68 4.98-.81 2.52-.13 3.46-1.77 3.46-1.77.33-.48.92-1.54-.49-2.34-1.41-.79-1.44-.59-2.11-1.1a4.51 4.51 0 01-1.81-2.33l-.85-.55z" opacity=".96" fill="url(#i)"/><path d="M92 13.36c1.02 1.65 2.85 4.3 2.85 4.3s.25.33.5.6c.02-.38-.04-.58-.05-.63l-.1-.27c-.02-.37.44.1.62.29-.5-.76-.66-.82-.66-.82s-.43-.23-.11.6c.3.82-.08.23-.08.23-.92-1.18-2.84-4.3-2.84-4.3l-.55-.38.42.38zm9.54 37.99l.03-.19v-.09c0 .1-.02.2-.03.28zm-.72-15.67c.09-.03.19.1.19.1s.14.19.29.03c.1-.1.15-.35.02-1.25 0 .22-.05.4-.13.59-.14.3-.32.02-.44-.09-.13-.1-.17.07-.17.07v.17c0 .7.08 2.34.21 3.61.06.6.17 1.07.29 1.41l.04.08c.09.15.19.34.3.25.12-.09.28-.58.28-.58l.13-.6c.19.12.29.54.34.97v-.05s-.15-1.33-.3-1.32c-.16.01-.22.7-.22.7s-.06.47-.15.46c-.09-.01-.37.02-.57-1.41-.2-1.44-.15-2.95-.15-2.95s-.05-.16.04-.2zm-1.12-7.11l.3.34c.47 1.5.99 3.84 1.09 4.26a38 38 0 00-1.1-4.27l-.3-.33-.04-.7-.01-.02s-.31-.92-1.03-2.74c-.73-1.82-.85-2.46-.85-2.46s-.04-.2.06-.23c.11-.03.1-.18.1-.18s-.02-.24-.28-.99c-.18-.5-.31-.91-.66-1.6.28.58.46 1.05.52 1.25l.03.07s.1.15.06.55c-.02.4-.14.46-.14.46l.02.14c.14.53.42 1.18.42 1.18s1.06 2.71 1.75 4.54l.06.73z" opacity=".1" fill="#232323"/><linearGradient id="j" gradientUnits="userSpaceOnUse" x1="274.53" y1="-396.16" x2="255.21" y2="-490.19" gradientTransform="matrix(1 0 0 -1 -213.76 -386.5)"><stop offset="0" stop-color="#FFF"/><stop offset="1" stop-color="#E4E5E6"/></linearGradient><path d="M42.96 91.54c.94.17 1.72.35 1.89.4a8.82 8.82 0 00-1.9-.4z" fill="url(#j)"/><linearGradient id="k" gradientUnits="userSpaceOnUse" x1="422.56" y1="518.76" x2="427.29" y2="578.18" gradientTransform="translate(-406.16 -500.32)"><stop offset=".22" stop-color="#989A9C"/><stop offset=".25" stop-color="#FFF"/></linearGradient><path d="M20.38 74.92v-.16l-.04-.08s-1.88-3.38-1.68-4.62c0 0 .07-.83 1.24-1.19.82-.25.71.54 3.11.98 0 0 2.07.56 2.61-.95.54-1.5-.56-3.39-.56-3.39s-1.45-2.66-3.25-2.76c-.95-.05-.69.59-2.12.93 0 0-1.91.18-2.52-.96a9.17 9.17 0 01-1.01-4.03c0-1.05.04-1 .12-1.4.05-.22.19-.55.25-1.1l-.13-.67.2-.5c0-.26 0-.53-.02-.83-.1-1.66-.21-4.22-.44-5.7-.22-1.5-.63-3.8-1.99-3.87 0 0-.67-.05-1.63.88-.89.86-1.69-.7-1.73-1.66a6.43 6.43 0 01.4-2.8c.29-.53 1.05-.56 1.2-.55.14.01.55.17 1.04.48.49.3 1.16.3 1.55-.1.4-.4.95-.85 1.18-2.6.22-1.74.22-3.54.01-5.7l-.22-.49 1.34-.29-.04-.2v-.05l-.01-.06-.01-.06-.01-.07-.01-.08v-.01a.76.76 0 00-.02-.08 1 1 0 00-.01-.08l-.01-.08V31l-.01-.08v-.02l-.02-.08v-.11l-.01-.01-.01-.08v-.02l-.01-.09v-.02l-.01-.09v-.02l-.02-.1v-.11l-.02-.1v-.15l-.01-.1v-.02l-.01-.1-.01-.1V29.45l-.01-.1v-.68c.05-1.24.29-1.75.29-1.75l.05-.17s.46-1.46 1.16-2.46l-.01.03s.44-.74 1.23-.82c.78-.08 1 .16 1.37.2a3.35 3.35 0 01.15.02h.07l.05.01h.16l.04.01h.47l.05-.01h.02a.6.6 0 00.04-.01h.02l.05-.01.1-.02.04-.01.03-.01h.01l.03-.02h.03v-.01l.03-.01.02-.01.02-.01h.01l.01-.01.02-.01.01-.02h.02v-.01l.01-.01h.01v-.01c.33-.24.6-.52.8-.78l.04-.05.01-.01.04-.05v-.01l.04-.05.11-.16.04-.05v-.01l.03-.04v-.02l.03-.04.05-.08v-.01l.02-.03.01-.02.02-.03v-.02l.02-.02.01-.02.01-.02.1-.2c.59-1.47.05-2.94-.21-3.23-.32-.36-1.04-.89-1.04-.89s-.3-.24-.75-.14c.34-.05.79.1.96.56.28.73.38 1.33.21 2.33 0 0-.26 1.39-1.38 2.23-1.13.85-1.92.1-2.89.13-.96.03-1.51.7-1.8 1.16-.3.46-1.42 2.2-1.32 5.07.1 2.86.29 4.3.32 5.55.03 1.2.18 3.98-.63 5.28-.82 1.3-1.63.65-2.2.31-.57-.34-1.23-.24-1.75.13-.52.38-.83 1.13-.85 3.33-.01 2.36 1.54 2.6 1.54 2.6s.29.15.94-.54c0 0 .65-.68 1.25-.6.6.08 1 .72 1.26 1.81.26 1.1.8 5.62.72 8.67-.04 1.27-.62 1.28-.36 3.61 0 0 .4 3.13 1.4 4.1 1 .96 2.38.77 2.7.74.33-.03.7-.26.7-.26s.31-.2.54-.37c.23-.18.52-.43 1.01-.28.49.15 1.65.9 2.56 2.57.91 1.68.5 3.32-.26 3.52-.67.19-.85.23-1.97-.05-1.13-.27-1.45-.56-1.96-.76-.5-.2-1.04-.26-1.55.11-.5.38-1.34 1.06-.34 3.32.96 2.18 1.7 3.8 3.52 5.63-.52-.61-.96-1.2-1.43-1.88l-.57-.66z" fill="url(#k)"/><linearGradient id="l" gradientUnits="userSpaceOnUse" x1="237.37" y1="-388.36" x2="218.85" y2="-478.5" gradientTransform="matrix(1 0 0 -1 -213.76 -386.5)"><stop offset="0" stop-color="#FFF"/><stop offset="1" stop-color="#E4E5E6"/></linearGradient><path d="M22.5 7.39l-.06.02c.01 0 .03 0 .05-.02z" fill="url(#l)"/><linearGradient id="m" gradientUnits="userSpaceOnUse" x1="259.91" y1="-479.34" x2="259.9" y2="-479.38" gradientTransform="matrix(1 0 0 -1 -213.76 -386.5)"><stop offset="0" stop-color="#FFF"/><stop offset="1" stop-color="#E4E5E6"/></linearGradient><path d="M46.03 92.85l.39.04-.56-.07c.06 0 .11.02.17.03z" fill="url(#m)"/><path d="M24.09 5.49c-.65.36-.7-.02-1.14.02-.44.03-1.03.2-1.6 1.04-.57.83-.58 1.89.33 1.42 0 0 .43-.43.81-.58.08-.05.24-.13.4-.18l.15-.11s.43-.5 1.08-.34c.64.16 1.11-.13 1.11-.13a6.57 6.57 0 001.66-2.18l.99-2-.83-1.33s-.7 1.48-1.38 2.53c-.68 1.04-.64 1.32-1.58 1.84z" fill="#9fa2a3"/><path d="M19.87 16.3s-.42 1.88 1.16 1.59h.02l-.09-.01c-.03-.5.15-1.44.49-2.26.34-.83 1.07-2.26 1.07-2.26s1.05-1.79 1.47-2.89c.42-1.1.42-1.94.42-1.94l-.92-1.17c-.11-.16-.27-.23-.27-.23l-.15.05c.12 0 .23.03.29.12.21.3-.4 2.03-.4 2.03s-.51 1.24-1.54 3.03a17.4 17.4 0 00-1.55 3.93z" fill="#9fa2a3"/><linearGradient id="n" gradientUnits="userSpaceOnUse" x1="268.9" y1="-394.64" x2="249.5" y2="-489.07" gradientTransform="matrix(1 0 0 -1 -213.76 -386.5)"><stop offset="0" stop-color="#FFF"/><stop offset="1" stop-color="#E4E5E6"/></linearGradient><path d="M38.19 89.7l.16.02c-.13-.12-.3-.24-.5-.35.19.11.5.36.32.67-.25.42-.05.45.48.86l.07.03c-.16-.1-.26-.23-.16-.36a.47.47 0 00.06-.5l-.43-.37z" fill="url(#n)"/><linearGradient id="o" gradientUnits="userSpaceOnUse" x1="254.46" y1="-391.6" x2="235.03" y2="-486.11" gradientTransform="matrix(1 0 0 -1 -213.76 -386.5)"><stop offset="0" stop-color="#FFF"/><stop offset="1" stop-color="#E4E5E6"/></linearGradient><path d="M24.44 82.75c-1.25-1.19 1.6-.12 1.6-.12s.61.26.34-.38a18 18 0 00-2.55-3.22l.15.15s2.34 2.72 2.18 2.97c-.17.24-1.1-.33-1.1-.33s-1.41-.53-1.22.13c.15.5 1.06 1.27 1.54 1.65-.27-.23-.58-.51-.94-.85z" fill="url(#o)"/><linearGradient id="p" gradientUnits="userSpaceOnUse" x1="262.65" y1="-392.97" x2="243.16" y2="-487.84" gradientTransform="matrix(1 0 0 -1 -213.76 -386.5)"><stop offset="0" stop-color="#FFF"/><stop offset="1" stop-color="#E4E5E6"/></linearGradient><path d="M26.98 84.73c.42.26.9.51 1.36.68 0 0 .83.29 1.34-.12.5-.4.5-.6 1.24-.24 0 0 1.38.7 2.38 1.44.98.74 3.56 2.34 4.4 2.8-.77-.42-3.72-2.37-4.64-3-.93-.63-2.57-1.7-3.3-1.47-.55.17-.47.4-.8.55-.33.16-.69.06-1.5-.38l-.48-.26z" fill="url(#p)"/><linearGradient id="q" gradientUnits="userSpaceOnUse" x1="271.55" y1="-390.96" x2="251.19" y2="-490.02" gradientTransform="matrix(1 0 0 -1 -213.76 -386.5)"><stop offset="0" stop-color="#FFF"/><stop offset="1" stop-color="#E4E5E6"/></linearGradient><path d="M39.9 91.45c.37.1.68.06.79.03-.68.04-1.35-.27-1.35-.27l-.17-.06c.24.12.52.23.73.3z" fill="url(#q)"/><linearGradient id="r" gradientUnits="userSpaceOnUse" x1="274.66" y1="-395.84" x2="255.26" y2="-490.26" gradientTransform="matrix(1 0 0 -1 -213.76 -386.5)"><stop offset="0" stop-color="#FFF"/><stop offset="1" stop-color="#E4E5E6"/></linearGradient><path d="M44.3 92.17S42.94 92 42.34 92c0 0-.03.06.23.15-.02-.02-.03-.04.19 0 .3.07 2.02.23 2.46.16.45-.07-.09-.28-.09-.28l-.26-.1c-.33.26-.59.23-.59.23z" fill="url(#r)"/><path d="M4.66 62.05c.09.14.2.43.46.72.15.16.27.07.17-.53a3.72 3.72 0 01-.47-.37c-.11 0-.26-.3-.26-.3s-.47-.83-.28-.22a50.9 50.9 0 001.6 3.82l1.4 2.47a65 65 0 01-2.44-5.01c-.15-.4-.26-.73-.18-.59zM1.55 32.7l.03-.65.09-.36a29.1 29.1 0 011.42-4.65c.36-.79.4-.24.4-.24s0 .2.14.23c.13.03.32-.32.49-.82.17-.5.6-1.75.7-2.22.13-.7-.06-.35-.12-.35-.11 0-.13-.09-.12-.3 0 0 .39-2.13 3.07-6.57l.47-.45c-.06-.05-.03-.26 0-.32l.42-.66-.09.5s-1.85 2.5-3.1 5.7c0 0-.34.83-.36 1.1-.03.15-.1.73.15.58l.07-.05c-.1.48-.3 1.37-.61 2.32-.29.88-.57 1.64-.84 2.08-.08.06-.1-.02-.15-.21-.05-.2-.11-.2-.11-.2-.18 0-.33.2-.41.36-.04.05-.1.19-.1.19s-.45.93-1.27 4.26C.89 35.3.88 38.1.88 38.1S.8 39.4.67 39.49c-.13.07-.1-.06-.1-.06s-.04-.05-.11.05c0 0 .02-.76.04-.88 0 0 .04-.2.12-.2s0 .12.05.15c.04.04.08.03.08-.17-.01-.18.14-2.82.62-5.32l.18-.36zM.4 42v-.01l.03.35v.01c.08.36.19.36.19.36 0-.1.08-.27.18-.46v.38c-.04.54-.02 2.46.2 4.28.23 1.81.37 3.35.4 3.6.03.24.5 3.28 1.02 5.08.29.97.43 1.35.49 1.43v.04s.1.19.35.32c0 0 .12-.1.12-.4l.05.1c-.08.26-.1.42-.1.42-.04-.04-.06-.03-.05.05.07.36.03.68-.17.27-.2-.4-.8-1.83-1.3-4.25 0 0-.54-2.66-.8-5.08l.04-.1-.06-.1-.07-.73S.67 43.9.68 43c.02-.9-.08-.02-.08-.02l-.03.33c0 .1-.1.35-.13-.25.02.26-.05-.8-.05-1.07zM24.67 1.97l-.53-.75-.06-.06s-.13-.14-.9.03l-.11.03s.38-.1.17.19c-.21.28-.56.5-1.17 1.15-.62.65-.42.8-.01.67.4-.14 1.18-.5 2.6-1.25h.01zm-1.57-.76h-.03.04z" opacity=".1" fill="#232323"/><path d="M23.64 1.81c.3-.27.43-.48.45-.64l-.01-.01s-.13-.14-.9.03l-.07.02c.09-.02.3-.03.13.2-.21.28-.56.5-1.17 1.15-.62.65-.42.8-.01.66l.4-.15a5.2 5.2 0 011.18-1.26zm59.84 2.31l-.2.23s.14.08.21.14l.02.01a6.77 6.77 0 01-.07-.05.71.71 0 01.02-.3l.02-.04.14.02-.14-.01z" opacity=".1" fill="#232323"/><path d="M62.56 90.32s1.68-.19 3.24-.7c1.56-.5 1.93-.97 1.87-1.33-.04-.24-.4-.3-.9-.24.27-.02.51.03.35.33-.31.58-.86.78-.86.78s-.27.2-.9.37c-.8.25-1.79.38-2.33.44-.69.08-.52-.03-1.46.3l-.07.04c-.29.23 1.07.51 1.07.51s1.3.36 3.26.23l.07-.02.8-.25c-2.02.46-3.33.15-3.74.1-.43-.06-.78-.15-.88-.36-.1-.21.48-.2.48-.2z" opacity=".53" fill="#fff"/><path d="M63.3 4.42l.72.07c1.43-.4 2.65-.77 2.65-.77s1.26-.41 1.9-.64a10.58 10.58 0 013.37-.54c.4 0 .52.12.52.12s.17.13.25.27c.08.14.74 1.9 2.97 2 2.23.12 2.26-1.09 2.07-1.46-.23-.42-.9-.86-.9-.86s-.9-.58-1.09-.85c-.2-.27.03-.35.1-.37.07-.02 2.44-.5 2.73-.61l.02-.02-.56-.17s-.12.13-.79.3c-.67.19-1.23.25-1.74.32-.5.07-.5.24-.5.24l-.88 1.4s-.03.11.04.31.41.45.41.45.57.42.99.7c.42.27.4.37.4.37-1.13.1-1.42-.05-1.88-.28a2.29 2.29 0 01-.92-1.08c-.16-.36-.52-.66-.52-.66-.6-.34-1.7-.35-2.82-.15-1.11.19-2.65.7-2.92.8-.27.11-1.62.56-2.3.74-.7.18-1.23.35-1.65.47-.43.1-3.44 1-4.56 1.34-1.13.33-1.85.46-1.85.46-1.69.17-2.2-.14-2.2-.14-.29-.12-.25-.52-.25-.52V4.5s-.02-.43-.35-.61a3.75 3.75 0 00-1.6-.3 9.4 9.4 0 00-2.09.14c-.4.1-1.19.31-1.76.95-.57.64-.48 1.14-.48 1.14s.03.69.09 1.2c.05.5.48.66.48.66s-.74.53-3.05 1.2c-2.2.65-3.68.78-3.68.78l.68.25s5.47-1.01 7.15-2.62c0 0 .62-.29.02-.88-.6-.58-.9-.76-.9-.76s-.4-.22.02-.77c.43-.54.92-.8 1.35-.93a8.71 8.71 0 012.93-.1s.49.05.46.41c-.04.37-.1.88-.08 1.03 0 .16.02.52.4.85.38.33 1.1.45 1.1.45s1.25.23 2.84-.22c1.58-.44 3.64-1.14 5.43-1.63l.23-.33z" opacity=".1" fill="#232323"/><path d="M48.46 6.63c.31.2.48.22.5.42.06.34-.56.64-.56.64v-.01s-.43-.16-.49-.67c-.05-.5-.09-1.19-.09-1.19s0 .2.05.26c.13.18.22.3.6.55z" fill="#616161"/><path d="M82.45 79.3l.45.18c1.1-.62 1.5-.81 1.76-.97a47.9 47.9 0 002.96-1.85s.76-.52.12.2-.97 1-.97 1-.63.63-.47.78c0 0 .16.25 1.19-.68a23.5 23.5 0 002.27-2.44c.13-.2.15-.3.15-.3s.1-.21.27-.39c.15-.15 1.38-1.5 2-2.12.28-.36.54-.73.8-1.1-.35.38-1.72 1.83-2.47 2.68 0 0-.72.77-.94 1.06s-.23.47-.23.47-.11.2-.39.52-1.24 1.18-1.24 1.18-.58.48-.75.48c-.18.01.43-.53.43-.53s.59-.63.96-1.13c.39-.5.14-.47.14-.47s-.18-.05-.98.46l-1.37.86-2.82 1.62a55.9 55.9 0 01-5.02 2.5c-1.43.58-2.16.7-2.03.52.13-.18.46-.46.46-.46s.4-.4.4-.8c0 0 .13-.59-1.6-.22-1.73.36-3.3 1.2-3.3 1.2s-2.57 1.2-1.96 1.9c0 0 .11.18.63.35.52.16-.92.6-.92.6-1.36.45-2.41.66-3.74.93-1.96.4-3.56.76-4.16.9l-.26.05s-1.2.3-3.23 1.08c-2.01.78-5.97 1.43-5.97 1.43s-2.54.29-2.77.62c-.24.33.17.5.17.5s.36.23 1.67.28c0 0 .45 0 .47.04.02.04.05.07-.23.16-.29.08-.85.31-2.78.55-1.93.25-1.9-.06-1.9-.06s0-.08.08-.22c.1-.13.01-.37-.29-.53 0 0-.42-.28-1.83-.27-1.4.01-4.21.02-6.83-.14a69.2 69.2 0 01-6.1-.66s-.12-.03-.2-.12c-.1-.09-.65-.42-1.17-.73-.52-.31-2.07-.9-2.07-.9s-2.01-.79-1.95-.53c.02.07.13.16.27.25l1.06.56s-.74-.4-.54-.4.44.1.44.1 1.21.34 1.97.69c.75.35 1.4.83 1.4.83s.93.55 2.32.73c1.35.18 3.18.39 3.78.45l.6-.27.43.35 2.57.15s2.98.1 4.6-.02c.74-.06.51.32.51.32s-.2.35.21.52c0 0 .77.44 3.34.16 2.58-.28 3.14-.86 3.14-.86s.3-.28-.35-.4c-.51-.1-.51-.05-1.17-.12-.67-.06-1-.2-.56-.32.44-.11 1.17-.17 1.17-.17s2.25-.32 4.07-.79c0 0 1.94-.45 3.86-1.13.76-.27 1.4-.46 1.89-.6l.43-.64.65.37.1-.02s2.3-.54 3.28-.7c.96-.17 3.15-.64 4.08-1.1.93-.44 1.4-.8 1.5-1.07.11-.27-.39-.43-.39-.43s-.58-.14-.5-.34c.07-.2.29-.38 1.21-.8.92-.4 2.07-.85 3.23-1.13 1.15-.29.73.19.73.19s-.7.7-.78.98c-.09.27.02.28.11.33.1.05.65.03 1.03-.07s3.46-1.27 5.34-2.34l.14-.08.39-.65z" opacity=".17" fill="#fff"/><linearGradient id="s" gradientUnits="userSpaceOnUse" x1="221.18" y1="-454.56" x2="221.37" y2="-454.56" gradientTransform="matrix(1 0 0 -1 -213.76 -386.5)"><stop offset="0" stop-color="gray"/><stop offset=".09" stop-color="#7A7A7A"/><stop offset=".36" stop-color="#6B6B6B"/><stop offset=".52" stop-color="#686868"/><stop offset=".64" stop-color="#5F5F5F"/><stop offset=".74" stop-color="#4E4E4E"/><stop offset=".84" stop-color="#383838"/><stop offset=".93" stop-color="#1B1B1B"/><stop offset="1"/></linearGradient><path d="M7.43 68.01l.18.13-.17-.15h-.02l.01.02z" opacity=".68" fill="url(#s)"/><linearGradient id="t" gradientUnits="userSpaceOnUse" x1="221.4" y1="-449.8" x2="316.03" y2="-449.8" gradientTransform="matrix(1 0 0 -1 -213.76 -386.5)"><stop offset="0" stop-color="gray"/><stop offset=".09" stop-color="#7A7A7A"/><stop offset=".38" stop-color="#828282"/><stop offset=".52" stop-color="gray"/><stop offset=".57" stop-color="#797979"/><stop offset=".6" stop-color="#6E6E6E"/><stop offset=".61" stop-color="#6B6B6B"/><stop offset="1" stop-color="#4E4E4E"/></linearGradient><path d="M90.41 59.95l-.37-.02c-1.8 1.47-2.34 1.94-3.78 2.96 0 0-1.64 1.23-3.44 2.2-1.8.96-3.92.85-3.92.85s-.57-.07-.3-.48c.28-.41.64-1.43.78-1.94s.41-1.82-.64-2.23-3.01.2-3.01.2-4.53 1.2-6.37 3.22c-1.8 1.97-.3 2.85-.3 2.85s.71.49 1.4.73c.64.23.51.43.35.55 0 0-2.02 1.3-4.4 1.98 0 0-3.28 1-6.45 1.2l-4.5.29-.4.38-.75-.26c-1.28.16-3.46.47-5.6.98-2.62.64-5.12 1.15-6.9 2.3 0 0-1.33.89-.57 1.75.77.86 1.57 1.23 1.57 1.23s.47.2.46.33c0 .17-.01.31-.37.51 0 0-1.39.82-4.1.86-2.72.05-3.91.02-4.71-.7-.66-.58.17-1.84.17-1.84s.33-.6 0-1.45c-.33-.84-2.22-.85-2.22-.85l-2.62-.14c-3.1-.08-7.18-.42-9-.65h-.03v.16l-.73-.3a22.18 22.18 0 01-4.07-1.09c-.76-.38-1.17-.31-1.07-1.1.1-.77-.75-1.84-.75-1.84s-1.2-1.28-2.26-2.08c-1.07-.8-1.52-.57-1.52-.57s-.49.26-.05 1.3c.43 1.04.86 1.4.86 1.4s.2.22.09.28c-.12.06-.49-.22-.8-.48-.24-.2-1.88-1.74-2.45-2.27l.1.35.06.09c.18.3.85 1.27 2.15 2.28 1.55 1.21 1.56.73 1.56.73s.06-.4-.3-.84c-.35-.44-.93-1.37-.78-1.72.14-.33.3-.3.3-.3s.14-.06.6.3c.46.34 1.5 1.07 2.01 1.7.51.62.48 1.18.48 1.18s-.1.56.45 1.17c.56.6 1.74 1.71 5.86 2.35h.06l.2-.54.57.66c3.6.52 5.55.56 5.55.56s4.71.17 5.99.17c1.27 0 1.03.66 1.03.66s-.07.36-.23.65c-.15.28-.52 1.36-.14 1.94 0 0 .59 1.42 4.38 1.52 0 0 3.33.27 5.65-.68 2.31-.96.22-2.28.22-2.28s-.8-.48-1.13-.74c-.3-.23-.18-.48-.12-.64.06-.17.3-.36.56-.5.27-.13 1.24-.65 5.37-1.72 4.12-1.07 6.58-1.18 6.58-1.18h.06l.34-.66.85.55a83.4 83.4 0 012.53-.17c1.69-.08 4.34-.47 5.88-.8a25.72 25.72 0 005.59-1.96c1.72-.89 1.8-1.51 1.8-1.51s.34-.48-.38-1-1.04-.38-1.68-1.03c-.63-.64.56-1.62.56-1.62s.61-.86 4.02-2.17c3.4-1.31 3.98-.87 4.15-.73s.2.61.13.93c-.07.32-.5 1.46-.72 2.06-.23.6-.32 1.4.6 1.6.92.2 2.22 0 3.43-.44 2.9-1.04 3.76-2.3 8.53-5.77.02 0 .02-.01.03-.02l.02-.65.7.11c1.97-1.57 3.86-3.57 3.86-3.57s1.26-1.26 1.89-2.36c.6-1.02.03.9.03.9s-.32 1.51.19 2.07c.4.45 1.56-.8 1.56-.8s.69-.78.96-2.05c.41-1.88.19-2.25.19-2.25s-.25-.4-.1-.85c.16-.46 1.16-3.05 1.99-4.01l.5-.57v-.02l-.22-.56.3-.51s-.28.32-1.4 2.17c-1.27 2.1-1.47 3.77-1.47 3.77s-.12.66-.06 1.04c.07.35.2.52.2.62 0 .1-.08.96-.51 1.77-.44.82-.82 1.03-.82 1.03s-.75.55-.86.16c-.1-.39-.07-.72-.03-.96.03-.25.29-1.58.25-2.08-.03-.49-.48-.1-.48-.1l-.3.37c-.2.25-1.28 1.64-1.7 2.13-.99 1.15-1.89 1.99-4.3 3.93l-.01.01-.36.61z" opacity=".43" fill="url(#t)"/><linearGradient id="u" gradientUnits="userSpaceOnUse" x1="214.59" y1="-431.36" x2="314.4" y2="-431.36" gradientTransform="matrix(1 0 0 -1 -213.76 -386.5)"><stop offset="0" stop-color="#555"/><stop offset="1" stop-color="#231F20"/></linearGradient><path d="M1.2 48.54l.1.98c.23.28.57.67 1.07 1.18 1.08 1.13 1.43.42 1.43.42s.25-.7-.06-1.98c-.3-1.29-.25-2.05.33-2.03.57.02 2.25.36 2.78 1.75 0 0 .22.65.02 1.48s-.17 1.57-.02 2.3c.14.72.76 1.4 1.46 1.97a10 10 0 004.74 1.66c1.98.12 2.6.02 2.6.02l.74-.77.14.67c.8-.1 2.11-.23 3.62-.4 2.52-.27 4.22-.54 5.8-.3 1.57.23 2.07 1.46 2.07 1.46s.11.31-.25.54c-.35.23-.75.55-.95.9-.2.34-.4 1.06.16 2.03.58.96 2.15 1.6 3.48 1.43a37.5 37.5 0 004.52-.98c1.29-.33 2.43-.97 2.57-1.98.15-1-1.53-2.3-1.53-2.3s-.81-.6-.91-.74c-.1-.14.1-.2.1-.2s.95-.23 1.36-.41c.4-.2 1.52-.65 3.35-1.22s5.6-1.25 5.6-1.25 2.09-.33 4.7-.54l.61-.7.49.62c.4-.02.82-.05 1.24-.06 3.57-.13 5.35-.56 7.24-.98a19 19 0 004.97-2.28c.4-.3 1.23-.66 1.4-1.96.16-1.3-1.37-2.15-1.37-2.15s-1.22-.65-1.48-.93c-.25-.29-.02-.57-.02-.57s.7-1.48 2.9-2.35c2.2-.87 3.69-1.1 4.62-1.2.93-.1 1.24.23 1.37.39.13.16.13.48.02.82-.1.3-.44 1.04-.64 1.4-.2.35-.52 1.21-.32 1.62.21.4.85.59 1.66.44.83-.15 3-.76 4.9-1.55 1.9-.8 5.07-2.35 5.07-2.35h.02l.08-.74.73.3a26.83 26.83 0 004.01-2.63c1.87-1.58 3.7-3.23 4.17-3.64.46-.42.9-.75 1.3-.73.42.02.74.31 1 1.43.25 1.12.3 2.04.42 2.58.12.55.29 1.18.93 1.3.65.14 1.51-.43 1.84-.7a3.2 3.2 0 00.88-2.39s.07-1.6-.76-3.13c0 0-.35-.61-.48-.78-.09-.12-.15-.24 0-.52a2.7 2.7 0 011.05-1.16c.45-.25.88-.31 1.13-.4 0 0 .28-.06.63-.26l-.13-.4.29.3c.4-.23.65.05.65.05l-.39-.5.12-.48s-.3-.16-.69-.09c-.38.08-.42.36-1.01.46-.6.1-1.27.3-1.94 1.32-.67 1 0 2.27 0 2.27l.53.9c.17.3 1.06 2.2.04 3.6 0 0-.56.65-1.53.86-.86.2-.64-.81-.73-1.35 0 0-.13-2.28-1.24-3.6-.97-1.14-2.74.9-3.62 1.58-.83.62-3.23 3.1-6.69 4.92l-.5.9-.33-.48a83.53 83.53 0 01-7.87 3.51s-1.88.77-2.64.79c0 0-.17 0-.04-.18.14-.19.28-.32.51-.74.23-.42.65-1.36.65-2.33s-1.12-1.91-2.68-1.74c-1.56.16-3.06.6-4.85 1.29-1.8.69-3.35 2.16-3.55 3.37-.21 1.22 1.1 1.92 1.1 1.92s1.49.75 1.68 1.16c.18.4.05.78.05.78s-.13.4-.79.78c-.65.38-2.42 1.3-2.42 1.3s-2.2 1.2-5.56 1.5c0 0-3.06.26-4.82.35h-.07l-.54.53-.58-.44c-1.64.13-3.54.35-3.54.35s-4.3.61-8.22 1.83c-3.34 1.02-3.97 1.59-3.97 1.59s-.71.6-.12 1.45c0 0 .34.54 1.03 1.08.68.54 1.24 1.06 1.16 1.32-.08.27-.3.38-.3.38s-.95.86-4.89 1.52c0 0-2.53.49-3.3-.27-.78-.77-.44-1.28-.44-1.28s.05-.18.62-.53c0 0 .95-.6.65-1.73-.3-1.13-2.13-2.54-4.1-2.53 0 0-2.3 0-8.2.76h-.03l-.2.5-.6-.39-1.12.11c-1.01.07-2.48-.06-4.3-.6-1.83-.54-2.96-1.53-3.13-2.13-.11-.41.04-1 .04-1s.34-1.31.13-2.4c-.22-1.08-.59-1.93-1.64-2.56-1.04-.63-1.64-.52-1.64-.52s-.94-.15-.9 1.44c.03 1.6.23 2.26.23 2.26s.18.56-.1.63c-.3.08-.75-.36-.75-.36S1.6 49.08 1 48.31l.04.07-.21.53.27.37.1-.74z" opacity=".31" fill="url(#u)"/><linearGradient id="v" gradientUnits="userSpaceOnUse" x1="214.9" y1="-410.88" x2="306.5" y2="-410.88" gradientTransform="matrix(1 0 0 -1 -213.76 -386.5)"><stop offset="0" stop-color="#A0A0A0"/><stop offset=".08" stop-color="#656767"/><stop offset="1" stop-color="#717375"/></linearGradient><path d="M91.08 11.74l.18.85s-.56.31-1.68.61c-1.11.3-2.19.8-2.19.8s-.89.3-.55 1.02c.34.72.84 1.07.84 1.07s.71.7.73 1.21c.03.53-.2.77-.76 1.08-.56.31-1.07.38-1.07.38s-1.34.24-2-.4c-.67-.62-.8-1.65-.8-1.65s-.04-.88-1.14-1.26c-1.1-.37-2.45.43-2.45.43s-1.07.56-2.2 1.3c-1.14.74-3.3 1.64-4.65 2.11l-.15.7-.75-.38-3.28 1.1s-2.5.93-4.16 1.16c-1.65.22-2.02-.01-2.24-.24-.23-.22.04-1 .04-1s.68-1.39.35-2.1c-.32-.71-2.45-.9-2.49-.9-.04 0-2.31-.26-4.45.93-1.9 1.07-2.14 1.65-2.14 1.65s-.6.93.11 1.86c.8 1.05 1.88 1.15 1.88 1.15s1.02.08 1.26.38.08.62.08.62-.34.93-2.23 1.32c0 0-3.18.93-9.12 1.77l-.58.58a95.5 95.5 0 00-10.55 1.99c-2.42.63-2.56 1.32-2.56 1.32-.51.81.15 1.23.15 1.23s.82.29 1.01 1.2c.2.9-.78 1.62-.78 1.62s-1.16.97-2.9 1.27c-1.74.3-2.4.35-3.43-.47-.9-.72-.3-1.86.31-2.3.62-.44.91-.91 1-1.11.07-.2.02-.38.02-.38l-.58-.53c-2-1.33-9.88.06-9.88.06l-1.34.29-.67-.44s-2.3.6-4.88.6c-2.71-.02-1.27-2.14-1.27-2.14s.64-1.11.75-1.76c0 0 .23-1.74-1.42-1.63-1.64.11-1.97 1.55-1.97 1.55s-.1.8-.09 1.39c.03.6 0 1.84-.74 2.56-.73.71-1.53.5-1.53.5s-1.33-.59-1.6-.73a.89.89 0 00-.74-.06.3.3 0 00-.06.03l-.17.75.02-.63c-.16.18-.27.42-.27.42l.09.33-.25.57v.03s.09-.2.22-.35l.19-.37-.06.24a.3.3 0 01.18-.07c.28-.02.62.15.62.15s1.14.61 1.65.72.87-.07 1.2-.3a4.23 4.23 0 001.4-1.83c.23-.65.28-2.4.28-2.4v-.5c-.02-.1-.08-.55.2-.78.27-.24.46-.35 1.14-.37.68-.01.89.38.89.38s.23.33.23.54c0 .21-.07.34-.07.34s-.37.63-.5.93c-.13.31-.63 1.33-.49 2.18.15.85 1.48 1.25 1.48 1.25s1.06.25 2.58.03l3.12-.5.54-.63.22.48c.8-.15 2.14-.37 3.58-.52 2.33-.22 4.79-.26 5.82-.13 0 0 .49.06.4.24-.06.13-.41.41-.41.41s-.14.08-.66.67-.67 1.15-.7 1.66c-.02.5.52 2 2.42 2.4 1.9.4 4.08-.35 4.08-.35s1.43-.31 2.79-1.67c1.4-1.41 0-3.1 0-3.1s-.21-.31-.64-.45c0 0-.19-.05-.08-.17.11-.12.37-.65 1.37-.9 1-.26 3.98-1.2 11.07-2.14l.27-.62.88.46c2.7-.37 4.55-.7 7.82-1.45 0 0 3.04-.54 3.68-1.65.37-.65 1.03-1.54-.05-2.44 0 0-.12-.16-.79-.31-.66-.15-1.18-.25-1.74-.65s-.55-.87-.55-.87-.04-.45.86-.96c0 0 .86-.62 2.54-1.16 1.7-.53 3.65-.3 3.65-.3s.82.1.69.65c-.14.55-.6 1.48-.62 1.96-.03.47 0 1.02.93 1.41.93.39 2.27.27 2.27.27s1.39-.07 3.65-.8 4.6-1.58 4.6-1.58l-.1-.48.97.17c.59-.22 1.4-.54 2.28-.93 1.8-.81 2.66-1.49 3.48-1.96 0 0 1.82-1.12 2.9-1.09 0 0 .24 0 .26.32a3.22 3.22 0 002.95 3.14c2 .23 2.85-1.11 2.85-1.11s.68-1.05-.5-2.3c0 0-.96-1.03-.99-1.1 0 0-.1-.16.17-.24.27-.08 3.15-.88 4.27-1.4l.04-.01-.28-.49.54.37c.2-.1.45-.25.54-.4.17-.27-.05-.8-.05-.8l-.4-.55-.6-.25-.06.03-.48.35" opacity=".34" fill="url(#v)"/><path d="M8.12 16.32l-.3.44c.14-.02.25-.06.25-.06s.4-.06 1.11.12c.92.25 2.07-.5 2.07-.5s.87-.52 1.28-1.37l.36-1s.29-.98 1.1-1.29c0 0 .32-.17.83-.18.52 0 .4.36.4.36s-.06.23-.6.9c-.52.69-.66 1.2-.66 1.2s-.32.73.2.96c0 0 .23.14.93-.09.7-.23 3.02-.84 4.44-1.06l1-.5-.61-.45c-2.39.44-4.17 1-4.78 1.23-.6.23-.62.08-.62.08-.2-.25.44-1.02.44-1.02s.65-.9.91-1.72-.89-.7-.89-.7c-.76.12-1.3.48-1.93 1.23a5.12 5.12 0 00-.9 1.82c-.06.26-.19.51-.19.51s-.09.17-.45.32c-.41.18-1.22.4-1.22.4s-.54.04-.93-.15c-.24-.12-.9.05-.9.05l.08-.5-.08-.04-.68.39-.34.56c-.06.15-.18.48.04.51l.17.01.47-.46zm5.18-7.13s.34-.27.34-.03c0 .25-.34.7-.34.7s-.1.13-.17.13c-.06 0 .02-.47.16-.8zm-2.7 3.31s-.4.46 0 .52l.83-.83c-.03-.03-.05-.05-.15-.1 0 0-.53.25-.68.41z" opacity=".1" fill="#232323"/><path d="M77.8 85.75s-1.74.8-3.39 1.6c-1.65.8-2.25 1.14-2.25 1.14s-.09.05-.03.08 0 .06 0 .06c-.85.41-2.71 1.07-2.71 1.07s-.17.06-.16.02c0-.04.2-.1.2-.1s.38-.15.28-.22c-.1-.07-1.2.3-1.2.3s-1.96.63-2.9.9c-.94.26-2.75.73-2.75.73-1.2.3-3.75.8-4.32.9-.56.1-.41.06-.41.06s.49-.19-.41-.22a20.2 20.2 0 00-3.62.28c-1.25.18-1.17.33-1.17.33s-.04.15.7.14c.76-.02.54.04.54.04-1.4.2-4.2.24-4.2.24v.01a44.93 44.93 0 003.2-.01c.24-.02 1.48-.15 1.93-.24.48-.1-.1-.1-.1-.1l-.74-.03s-.77-.03-.05-.16c.73-.13 1.84-.2 2.39-.25.83-.1.54.1.54.1l-.04.03s.01.09.53.06c.51-.02 4.72-.8 7.07-1.49 2.34-.68 4.1-1.25 4.1-1.25s.16-.06.07.03c-.1.07-.47.2-.47.2s-.6.3.85-.11l.2-.06a51.3 51.3 0 003.63-1.55c.03-.02.13-.14-.02-.1-.17.06 0-.06.18-.13.19-.06 2.27-1.16 3.37-1.6l1.17-.7z" opacity=".3" fill="#fff"/><linearGradient id="w" gradientUnits="userSpaceOnUse" x1="217.66" y1="-436.75" x2="217.66" y2="-436.75" gradientTransform="matrix(1 0 0 -1 -213.76 -386.5)"><stop offset="0" stop-color="#FFF"/><stop offset=".08" stop-color="#F4F4F4"/><stop offset=".38" stop-color="#CECECE"/><stop offset=".54" stop-color="#BFBFBF"/><stop offset=".84" stop-color="#7C7C7C"/><stop offset=".9" stop-color="#A8A8A8"/><stop offset=".91" stop-color="#9A9A9A"/><stop offset=".93" stop-color="#7D7D7D"/><stop offset=".96" stop-color="#686868"/><stop offset=".98" stop-color="#5B5B5B"/><stop offset="1" stop-color="#575757"/></linearGradient><linearGradient id="x" gradientUnits="userSpaceOnUse" x1="214.33" y1="-436.51" x2="322.87" y2="-424.49" gradientTransform="matrix(1 0 0 -1 -213.76 -386.5)"><stop offset="0" stop-color="#FFF"/><stop offset=".08" stop-color="#F4F4F4"/><stop offset=".38" stop-color="#CECECE"/><stop offset=".54" stop-color="#BFBFBF"/><stop offset=".84" stop-color="#7C7C7C"/><stop offset=".9" stop-color="#A8A8A8"/><stop offset=".91" stop-color="#9A9A9A"/><stop offset=".93" stop-color="#7D7D7D"/><stop offset=".96" stop-color="#686868"/><stop offset=".98" stop-color="#5B5B5B"/><stop offset="1" stop-color="#575757"/></linearGradient><path d="M1.2 48.54l.1.98c.24.29.58.68 1.07 1.18 1.08 1.12 1.42.42 1.42.42s.08-.2.1-.59c-.05.22-.21.4-.8-.05a12.7 12.7 0 01-1.07-1.05c-.32-.33-.72-.74-1.02-1.12l.05.07-.21.52s.07.12.27.38l.08-.74z" fill="url(#x)"/><linearGradient id="y" gradientUnits="userSpaceOnUse" x1="213.89" y1="-436.48" x2="336.88" y2="-422.85" gradientTransform="matrix(1 0 0 -1 -213.76 -386.5)"><stop offset="0" stop-color="#FFF"/><stop offset=".08" stop-color="#F4F4F4"/><stop offset=".38" stop-color="#CECECE"/><stop offset=".54" stop-color="#BFBFBF"/><stop offset=".84" stop-color="#7C7C7C"/><stop offset=".9" stop-color="#A8A8A8"/><stop offset=".91" stop-color="#9A9A9A"/><stop offset=".93" stop-color="#7D7D7D"/><stop offset=".96" stop-color="#686868"/><stop offset=".98" stop-color="#5B5B5B"/><stop offset="1" stop-color="#575757"/></linearGradient><path d="M3.74 49.13l-.02-.07.04.27a5.51 5.51 0 00-.02-.2z" fill="url(#y)"/><linearGradient id="z" gradientUnits="userSpaceOnUse" x1="411.25" y1="557" x2="507.24" y2="537.63" gradientTransform="translate(-406.16 -500.32)"><stop offset="0" stop-color="#EDEDEE"/><stop offset=".42" stop-color="#FFF"/><stop offset=".63" stop-color="#F8F9F9"/><stop offset="1" stop-color="#BFC0C2"/></linearGradient><path d="M99.7 28.57l.29.31c.4-.24.65.05.65.05l-.39-.5c-.38.09-1.09.26-2.23.61 0 0-1.35.6-1.59 1.54-.02.33.05.64.12.87.75 1.43.91 1.67.91 1.67.5 1.09.42 1.99.25 2.82-.19.92-1.19 1.67-1.8 1.84-.6.17-.95 0-1.13-.48-.2-.48-.16-.84-.44-2.34s-.66-2.2-1.22-2.37c-.56-.18-1.31.47-1.75.8-.43.35-2.41 2.16-2.41 2.16s-2.33 2.1-5.75 4.03C79.8 41.5 75.52 43 75.52 43s-2.84 1.09-3.52 1c-.69-.1-.52-.73-.3-1.08.22-.36.52-.94.77-1.55.31-.75.2-1.65-.36-1.97-.56-.3-1.25-.46-3.52.1s-3.2 1.07-3.84 1.45a6.34 6.34 0 00-1.84 1.72c-.27.48-.57.98.12 1.57.69.6.76.49 1.56 1.05s.92.64.97 1.46c.05.83-.77 1.34-.77 1.34s-3.12 2.09-6.6 2.78c-2.34.47-6.83.64-6.83.64s-1.33-.04-5.38.55c-4.06.6-6.8 1.51-7.74 1.85-.95.35-2.34.81-3.14 1.17-.8.36-.37.9-.2 1.02.17.12 1.18 1.07 1.5 1.35.3.29 1.46 1.28.1 2.11-1.35.83-3.6 1.26-3.6 1.26s-3.12.66-4.12.24c-1-.42-1.2-.78-1.45-1.36-.31-.72-.02-1.26.8-1.78.76-.48.46-1.2.46-1.2-.98-1.9-3.05-2.06-4.77-1.93-2.72.2-5.36.47-7.43.73-3.06.39-4.54-.06-5.99-.52-1.45-.45-3-1.52-3.15-2.5-.03-.1-.04-.2-.04-.3-.08-.76.07-1.15.18-1.78.1-.63-.04-1.54-.08-1.76l-.03-.09a3.42 3.42 0 00-2.67-2.06c-.95-.15-.98.86-.98.86v.04c.07-.2.22-.31.44-.3.58.01 2.26.35 2.78 1.75 0 0 .22.64.02 1.47a5.2 5.2 0 00-.02 2.3c.15.72.76 1.4 1.47 1.97.7.56 2.74 1.53 4.73 1.66 1.81.12 2.48.04 2.59.02l.76-.77.13.67 3.62-.4c2.53-.27 4.23-.54 5.8-.3 1.57.23 2.08 1.46 2.08 1.46s.1.32-.26.54a3 3 0 00-.94.9c-.2.34-.41 1.06.16 2.03.57.96 2.14 1.6 3.48 1.43 1.33-.15 3.33-.67 4.52-.98 1.28-.33 2.42-.97 2.57-1.98.15-1-1.54-2.3-1.54-2.3s-.8-.6-.9-.74c-.1-.14.1-.2.1-.2s.94-.23 1.35-.42c.4-.19 1.52-.64 3.35-1.21s5.61-1.25 5.61-1.25 2.1-.33 4.7-.54l.6-.7.5.62c.4-.02.82-.05 1.24-.06 3.57-.13 5.34-.56 7.24-.98 1.9-.43 4.57-1.98 4.96-2.28.4-.3 1.23-.66 1.4-1.96.17-1.29-1.37-2.15-1.37-2.15s-1.21-.65-1.47-.93c-.26-.29-.02-.56-.02-.56s.69-1.49 2.9-2.36c2.2-.87 3.68-1.1 4.61-1.2.93-.1 1.25.23 1.38.39.13.16.13.48.02.82-.1.3-.44 1.04-.64 1.4-.2.35-.53 1.21-.32 1.62.2.4.84.59 1.66.44a29 29 0 004.89-1.55c1.9-.8 5.07-2.34 5.07-2.34l.02-.02.09-.73.73.3a27 27 0 004-2.63c1.88-1.57 3.7-3.23 4.18-3.64.46-.42.89-.75 1.3-.73.42.02.73.31.99 1.43.26 1.12.3 2.04.43 2.58.11.55.28 1.18.93 1.3.64.14 1.5-.43 1.84-.7a3.3 3.3 0 00.88-2.39s.06-1.6-.77-3.12c0 0-.34-.62-.47-.79-.1-.12-.16-.23-.01-.52.14-.29.46-.82 1.06-1.16.45-.25.88-.31 1.13-.4 0 0 .28-.06.63-.26l-.14-.4z" fill="url(#z)"/><path d="M1.55 32.7l-.05.23a.32.32 0 01.17-.07c.28-.02.63.16.63.16s1.13.61 1.64.72c.5.1.87-.07 1.2-.3.25-.17.52-.43.77-.73-.3.29-.73.55-1.37.6 0 0-.57-.06-1.42-.6-.84-.53-1.33-.23-1.73.11l-.25.56v.04s.1-.19.22-.35l.19-.37z" fill="#fff"/><path d="M6.39 31.96l.15-.35c.05-.14.1-.34.13-.55-.1.44-.23.73-.23.73l-.05.17zm.41-3.31c-.03.44-.03 1-.03 1.5.04-.51.05-.94.05-.94v-.5l-.01-.06z" opacity=".73" fill="#fff"/><linearGradient id="A" gradientUnits="userSpaceOnUse" x1="413.51" y1="516.41" x2="418" y2="516.41" gradientTransform="translate(-406.16 -500.32)"><stop offset="0" stop-color="#E2E3E4"/><stop offset=".51" stop-color="#FFF"/></linearGradient><path d="M8.12 16.32l-.3.44c.1-.02.1 0 .25-.06 0 0 .4-.06 1.11.12.92.25 2.07-.5 2.07-.5s.27-.16.58-.45c-.4.24-1.38.76-2.13.58-.96-.22-1-.01-1.33-.04-.3-.03-.3-.11-.28-.32l.03-.1c.05-.25.34-.68.34-.68l-.68.38-.34.57c-.07.15-.18.48.04.51l.16.01.48-.46z" fill="url(#A)"/><path d="M17.02 15.04c-1.03.27-1.97.73-2.5.6-.43-.1-.08-.76.05-.97.07-.14.16-.29.25-.4l.83-1.35.05-.1c.06-.19.12-.54-.47-.6-.8-.09-1.62.62-1.62.62s-.54.3-.83 1.41l.1-.31s.3-.97 1.11-1.28c0 0 .32-.17.83-.18.52 0 .4.36.4.36s-.06.23-.6.9c-.52.68-.66 1.2-.66 1.2s-.32.73.2.96c0 0 .23.14.93-.1.7-.22 3.02-.83 4.44-1.05l1-.5c-.68.05-2.52.52-3.51.79z" fill="#fff"/><path d="M90.58 74.22l.01-.02-.01.02zm.24-.27zm-.08.09v-.01.01z" opacity=".1" fill="#231f20"/><path d="M87.9 76.68l-.16.17c-.65.72-.97 1.01-.97 1.01l-.24.27-.02.01h.04s.23 0 .6-.21a.48.48 0 01-.19.07c-.18.01.43-.54.43-.54s.59-.62.97-1.12c.38-.5.14-.47.14-.47s-.09-.02-.4.12c.03.03.17.23-.2.69z" opacity=".25" fill="#231f20"/><path d="M90.66 74.13l.01-.01-.01.01z" opacity=".1" fill="#231f20"/><path d="M72.94 81.21s2.22-.93 3.4-.79c0 0 .62.06-.06.71-.67.65-.89 1.17.4.75l.24-.08c-.5.14-.73.14-.65.03.12-.19.46-.46.46-.46s.4-.4.4-.8c0 0 .12-.59-1.6-.23a13.08 13.08 0 00-2.59.87z" opacity=".22" fill="#231f20"/><path d="M72.23 81.56zm15.83-5.55l-.05.02c.02 0 .03 0 .05-.02z" opacity=".1" fill="#231f20"/><path d="M78.3 81.3a39.91 39.91 0 005.03-2.5c-1.1.64-3.6 1.92-5.02 2.5z" opacity=".28" fill="#231f20"/><path d="M87.51 76.33l.08-.05-.08.05zm4.11-3.25zm-.19.2l.03-.03-.03.03zm.09-.09l.03-.03-.03.03zm-.62.67l.01-.01-.01.01zm-19.65 8.23l-.04.02.04-.02zm20.1-8.71l.02-.03-.02.03zm-.27.29l.01-.02-.01.02zm.17-.19l.02-.02-.02.02zm-.26.29l.01-.02-.01.02zm.17-.19l.02-.02-.02.02zm-19.34 8.18l-.03.02.03-.02zm.22-.11h-.02.02zm-.74.41s-.02 0-.03.02l.04-.02zm.67-.38l-.02.02.02-.02zm.13-.07v.01zm-.1.06zm.2-.1zm-.05.03h-.03.03zm-.22.1a.08.08 0 00-.03.02l.03-.01zm.27-.12h-.02.01zm-.03 0l-.01.01h.01zm-.09.05h-.02.02zm-.21.11l-.03.01.03-.01zm-.31.16a.38.38 0 01-.06.04l.06-.03zm.66-.34zm-.8.43c-.01 0-.02 0-.03.02l.03-.02zm-.06.03l-.03.02.03-.02zm.12-.07l-.03.02.03-.02zm.29-.16zm19.93-8.81l.05-.04-.04.04zm-19.98 8.84zm-.05.03l-.03.01.03-.01zm-.07.03l-.02.02.03-.03zm20.84-9.68a.78.78 0 00-.05.06l.05-.06zm-.08.09l-.06.06.06-.06zm.14-.15l-.03.03.03-.03zm-.71.76l.06-.06-.06.06zm.48-.52l-.04.04.04-.04zm.31-.33zm.18-.19zm-.06.06l-.01.02.01-.02zm-4.76 4.15l-.04.03.04-.03zm4.71-4.09l-.03.03.03-.03zm-4.98 4.25zM48.2 91.03zm-.13 0h-.02.02zm.07 0h-.02.02zm-.14 0zm-.06 0h-.01.01zm39.93-14.92l-.04.02.04-.02zm-.07.04l-.03.02.04-.02zm-.06.04zm.21-.12l.05-.03-.05.03zm-.23 1.45l-.2.15.2-.15zm4.48-5.07l-.06.07a.8.8 0 00.06-.07zM28.05 87l-.06-.01c.02 0 .04 0 .06.02zm43-4.78l-.04.02.04-.02zm-25.2 7.65h-.07.07zm-18.17-2.99zm-.13-.04l.12.04-.12-.04zm.31.1l-.12-.04.12.04zM91.88 72.8l.04-.04a.79.79 0 01-.04.04zM28.06 87l.11.05-.11-.04zm63.92-14.3l.04-.05-.04.04zm.08-.09l.06-.06-.06.06z" opacity=".1" fill="#231f20"/><path d="M28 86.98a.38.38 0 00-.07-.02l.06.03zm43.13-4.82l.06-.03-.06.03zm-24.77 7.77l-.05-.01h.05zm24.76-7.76l-.05.03a.6.6 0 01.05-.03zm-24.68 7.77h-.05.05zm.07.01h-.04.04zm-.41-.05l-.1-.02.1.01zm.18.01h-.06.06zm-.09-.01h-.08.08zm-.22-.02h-.08.08zm-18.04-2.92a.3.3 0 01-.06-.02l.06.02zm19.47 4.01zm-.02 0zm.04.01zm.05.02zm-.03-.01zm-.1-.04zm-.75-.98l-.06-.02.06.02zm.17.04l-.03-.01.03.01zm2.29.94h-.03.03zm-2.39-.97a.6.6 0 00-.06-.01l.06.01zm1.11 1.05zm.05 0h.01zm-2.61-1.17h.14-.14zm2.51 1.17z" opacity=".1" fill="#231f20"/><path d="M46.77 90.01s.16.02.06.34c-.1.31.06.45.48.6h.02c-.08-.04-.07-.08-.07-.08s-.01-.08.08-.21c.08-.14 0-.37-.3-.54 0 0-.07-.05-.27-.1z" opacity=".36" fill="#231f20"/><path d="M47.87 91.03zM47.5 91zm.18.02zm-.15-.02zm.03.01zm.04.01zM46.71 90l-.04-.01h.04zm-17.96-2.74zm.03.01l-.03-.01.03.01zm-.1-.04l-.03-.01.03.01zm16.98 2.63h.07-.07zM28.8 87.28l-.02-.01h.02zm-1.42-.48l.11.02c-.04 0-.07-.02-.11-.03zm.12.03zm1.31.45zm-.17-.06l-.03-.02.03.02z" opacity=".1" fill="#231f20"/><path d="M27.69 87.24a.2.2 0 01-.03-.03c-.27-.2-.35-.42-.35-.42l.01-.01.06.01c-.3-.07-.5-.1-.48-.02.01.07.13.16.27.25l.52.28v-.06z" opacity=".38" fill="#231f20"/><path d="M28.72 87.25l-.03-.01h.03zm-.12-.05l-.04-.01.04.01zm.24.1l-.02-.02.02.01zm-.61-.23l-.05-.02.05.02zm17.3 2.79h.08-.08zm-.13 0h.09-.1zm-17.05-2.75l-.1-.04.1.04zm.15.06l-.03-.02.04.02zm-.1-.04zm.16.06l-.04-.02.04.02zm-.1-.04zm41.56-2.76zm.77-.3zm-.03.01zm-.03.02zm-.03.01zm-.28.12zm-.03.01zm.27-.11zm-.34.14zm-.04.01h.01zm.07-.02zm-21.4 6.69h-.04.04zm21.31-6.66zm.52-1.9l.04-.03a.58.58 0 01-.04.03zm.18-.13l.03-.02-.03.02zm-.06.04l.03-.02-.03.02z" opacity=".1" fill="#231f20"/><path d="M70.9 83.8c.2.06.1.16-.08.27l.09-.03s.79-.44.45-.63c-.33-.2-1.13-.28-.61-.97l.02-.02c-.44.34-.76.72-.5 1.02 0 0 .12.19.63.35z" opacity=".19" fill="#231f20"/><path d="M70.57 84.2h-.01zm.06-.04zm-.03.02zm-.1.04h-.01zm-.04.01zm.38-1.87l.04-.02-.04.02zM48.3 91.02h-.03.02zm.14-.01h-.01.01zm-.07.01h-.03.03z" opacity=".1" fill="#231f20"/><path d="M50.02 89.9s.37.23 1.68.29c0 0 .45 0 .46.03.02.03.04.06-.06.1.06-.01.79-.25.47-.38l-.07-.03h-.02l-.02-.01h-.05l-.02-.01h-.05l-.01-.01H52.27l-.03-.01h-.11l-.01-.01h-.02l-.14-.01H51.84l-.03-.01h-.11l-.03-.01h-.07l-.02-.01h-.08l-.06-.01-.37-.06-.19-.02s-.47-.02-.65-.32c-.12-.2.45-.32.45-.32s.96-.2 1.92-.32c0 0-2.54.3-2.78.63-.2.34.2.5.2.5z" opacity=".25" fill="#231f20"/><path d="M69.99 84.4zm0 0zm-21.15 6.58h-.02.02zm-.11.01h-.03.03zm-.09.01zm-.09 0zm21.59-6.65zm-.02.01zm.08-.03zm-.13.04zm.09-.03h.01zm-.16.06zm0 0h.01zm2.23-2.84zm-2.18 2.82zm-.01.01z" opacity=".1" fill="#231f20"/><linearGradient id="B" gradientUnits="userSpaceOnUse" x1="414.25" y1="568.27" x2="509.01" y2="545.73" gradientTransform="translate(-406.16 -500.32)"><stop offset="0" stop-color="#EDEDEE"/><stop offset=".42" stop-color="#FFF"/><stop offset=".63" stop-color="#F8F9F9"/><stop offset=".95" stop-color="#B2B4B6"/></linearGradient><path d="M7.61 68.14l-.14-.13-.02.01.16.12z" fill="url(#B)"/><linearGradient id="C" gradientUnits="userSpaceOnUse" x1="416.7" y1="578.56" x2="511.82" y2="555.94" gradientTransform="translate(-406.16 -500.32)"><stop offset="0" stop-color="#EDEDEE"/><stop offset=".42" stop-color="#FFF"/><stop offset=".63" stop-color="#F8F9F9"/><stop offset=".95" stop-color="#B2B4B6"/></linearGradient><path d="M90.41 59.95l.7.11c1.97-1.57 3.86-3.57 3.86-3.57s1.26-1.26 1.89-2.36c.22-.38.28-.35.27-.17.02-.1.1-.46-.04-.72-.1-.17-.38.3-.83.86 0 0-2.01 2.93-5.8 5.82-3.78 2.9-4.77 3.77-8.08 5.66 0 0-2.3 1.02-3.91.66-1.25-.27 0-1.54.27-2.7.27-1.14.06-1.57-.23-1.8-.28-.23-.9-.39-2.14-.11 0 0-4.7 1.26-6.82 3.3-1.92 1.86.48 2.63 1.02 2.88 0 0 .78.34.72.67-.06.34-.5.63-.73.79-.24.16-3.34 1.97-8.33 2.76-4.03.64-3.25.26-7.14.65-3.88.4-4.95.72-8.07 1.46-3.11.73-4.94 1.53-5.35 2.35-.33.67.48 1.1 1 1.4.5.3 1.42.78 1.11 1.3-.3.5-1.63 1.27-4.87 1.39-3.25.11-4.57-.34-5.16-1.04-.55-.65-.08-1.33.1-1.95 0 0 .38-.81.15-1.21-.22-.4-.73-.5-1.27-.56-.55-.07-3.25-.16-5.34-.27-2.37-.13-5.2-.21-8.61-.93 0 0-2.24-.44-3.7-1.26a3.32 3.32 0 01-.5-.37c-.4-.43-.04-.75-.18-1.17a4.35 4.35 0 00-.9-1.5l-.71-.71-.26-.21c-1.27-1.04-1.42-1.15-1.96-1.17-.54-.02-.24.9-.13 1.25.04.13.14.32.24.5-.2-.36-.34-.73-.26-.91.15-.34.31-.3.31-.3s.14-.06.6.29c.46.35 1.5 1.08 2.01 1.7.51.63.48 1.18.48 1.18s-.1.57.45 1.17c.56.6 1.73 1.72 5.86 2.35l.06.01.2-.55.56.66h.02c3.59.53 5.54.57 5.54.57s4.71.16 5.98.16c1.27 0 1.04.67 1.04.67s-.07.36-.23.64c-.15.3-.52 1.37-.14 1.94 0 0 .58 1.43 4.38 1.53 0 0 3.33.27 5.64-.69 2.32-.95.23-2.27.23-2.27s-.8-.49-1.13-.74c-.3-.23-.18-.48-.12-.65.06-.16.3-.35.56-.49.27-.13 1.24-.65 5.37-1.72 4.12-1.07 6.58-1.18 6.58-1.18h.07l.33-.67.84.56c.74-.06 1.7-.13 2.54-.17 1.7-.08 4.34-.47 5.88-.8a25.5 25.5 0 005.6-1.96c1.72-.89 1.8-1.52 1.8-1.52s.33-.47-.4-1c-.71-.51-1.03-.37-1.66-1.02-.64-.64.55-1.62.55-1.62s.61-.86 4.02-2.17c3.4-1.32 3.98-.88 4.16-.73.17.14.2.61.12.93-.07.32-.5 1.46-.72 2.06-.23.59-.32 1.4.6 1.6.93.2 2.22-.01 3.43-.45 2.9-1.03 3.76-2.29 8.53-5.76.02 0 .03-.02.03-.02l.02-.66z" opacity=".83" fill="url(#C)"/><linearGradient id="D" gradientUnits="userSpaceOnUse" x1="415.47" y1="573.42" x2="510.59" y2="550.8" gradientTransform="translate(-406.16 -500.32)"><stop offset="0" stop-color="#EDEDEE"/><stop offset=".42" stop-color="#FFF"/><stop offset=".63" stop-color="#F8F9F9"/><stop offset=".95" stop-color="#B2B4B6"/></linearGradient><path d="M100.9 47.6a21.9 21.9 0 00-1.45 3.5l-.06.33s-.12.65-.05 1.03c.02.16.07.28.1.38l.06.13.03.11a4.24 4.24 0 01-.51 1.77l-.07.14c-.46.82-1.1 1.46-1.6 1.53-.33.05-.5-.11-.56-.38.01.37.08.74.28.96.41.44 1.57-.8 1.57-.8s.69-.78.96-2.06c.4-1.87.19-2.24.19-2.24s-.25-.4-.1-.86c.16-.46 1.16-3.04 1.99-4l.5-.57v-.03l-.21-.52a4.2 4.2 0 00-.39.45c-.17.3-.4.66-.69 1.13z" fill="url(#D)"/><linearGradient id="E" gradientUnits="userSpaceOnUse" x1="414.78" y1="570.48" x2="509.87" y2="547.86" gradientTransform="translate(-406.16 -500.32)"><stop offset="0" stop-color="#EDEDEE"/><stop offset=".42" stop-color="#FFF"/><stop offset=".63" stop-color="#F8F9F9"/><stop offset=".95" stop-color="#B2B4B6"/></linearGradient><path d="M10.56 70.8c-.14-.08-.31-.22-.47-.35l-1.17-1.08-.6-.55-.68-.65.1.36.06.09a9.5 9.5 0 002.15 2.27c1.55 1.22 1.56.73 1.56.73s.06-.4-.3-.84a3.87 3.87 0 01-.2-.27s1.01 1.49-.45.3z" fill="url(#E)"/><linearGradient id="F" gradientUnits="userSpaceOnUse" x1="414.92" y1="571.07" x2="510.04" y2="548.44" gradientTransform="translate(-406.16 -500.32)"><stop offset="0" stop-color="#EDEDEE"/><stop offset=".42" stop-color="#FFF"/><stop offset=".63" stop-color="#F8F9F9"/><stop offset=".95" stop-color="#B2B4B6"/></linearGradient><linearGradient id="G" gradientUnits="userSpaceOnUse" x1="416.1" y1="576.07" x2="511.23" y2="553.44" gradientTransform="translate(-406.16 -500.32)"><stop offset="0" stop-color="#EDEDEE"/><stop offset=".42" stop-color="#FFF"/><stop offset=".63" stop-color="#F8F9F9"/><stop offset=".95" stop-color="#B2B4B6"/></linearGradient><path d="M96.89 55.02s.22-.76.24-1.06v.02s-.52 1.44-.34 2.16c-.02-.56.1-1.12.1-1.12z" fill="url(#G)"/><path d="M63.3 4.42l.73.07c1.42-.4 2.64-.77 2.64-.77s1.27-.41 1.9-.64a10.6 10.6 0 013.36-.54c.4 0 .54.12.54.12s.16.13.24.27c.08.14.74 1.9 2.97 2 2.24.12 2.27-1.09 2.07-1.46-.23-.42-.9-.86-.9-.86s-.9-.58-1.09-.85c-.19-.27.03-.35.1-.37.07-.02 2.44-.5 2.73-.61l.02-.02-.56-.17s-.12.13-.79.31-1.23.25-1.74.31c-.5.07-.5.24-.5.24l-.09.14c-.03.07-.07.32.37.64.53.39 1.18.75 1.44 1.04s.59.78.02 1.14c-.28.17-.49.23-.78.26v.01l-.64.03-.16.01-.01-.01c-.5-.02-.75-.14-1.07-.3-.44-.23-.76-.73-.92-1.09s-.52-.66-.52-.66c-.59-.34-1.7-.34-2.81-.15-1.12.2-2.66.7-2.93.81-.27.1-1.61.55-2.3.73-.7.18-1.23.36-1.65.47-.43.11-3.43 1-4.56 1.34-1.12.33-1.85.46-1.85.46-1.68.17-2.19-.14-2.19-.14-.3-.12-.26-.52-.26-.52V4.5s-.02-.43-.35-.6a3.75 3.75 0 00-1.6-.3 9.4 9.4 0 00-2.08.13c-.41.1-1.2.32-1.77.96-.57.64-.48 1.14-.48 1.14l.01.2c.15.24.42.52.86.74 1.02.48-1.14 1.34-1.14 1.34-.47.2-1.19.48-2.2.77-2.21.65-3.69.78-3.69.78l.68.25S47.82 8.9 49.5 7.3c0 0 .63-.3.02-.88-.6-.59-.9-.76-.9-.76s-.4-.23.02-.78c.43-.54.93-.79 1.36-.93a8.82 8.82 0 012.92-.1s.5.05.46.41c-.04.37-.09.88-.08 1.03.01.16.03.52.4.85.38.33 1.1.45 1.1.45s1.25.23 2.84-.22c1.59-.44 3.65-1.14 5.44-1.63l.22-.33z" opacity=".1" fill="#232323"/><linearGradient id="H" gradientUnits="userSpaceOnUse" x1="412.62" y1="535.4" x2="501.59" y2="514.88" gradientTransform="translate(-406.16 -500.32)"><stop offset="0" stop-color="#FFF"/><stop offset=".65" stop-color="#FFF"/><stop offset="1" stop-color="#CBCCCE"/></linearGradient><path d="M91.6 13l.27.48a.28.28 0 01-.04.01c-1.11.52-4 1.32-4.27 1.4-.27.08-.16.23-.16.23.02.08.98 1.11.98 1.11 1.18 1.25.5 2.3.5 2.3s-.85 1.34-2.85 1.12a3.23 3.23 0 01-2.94-3.15c-.03-.33-.28-.32-.28-.32-1.07-.03-2.88 1.1-2.88 1.1-.83.46-1.69 1.14-3.48 1.95-.88.4-1.7.71-2.29.93l-.97-.17.1.48-.07.03s-2.27.82-4.53 1.55c-2.27.73-3.65.8-3.65.8s-1.33.12-2.26-.27c-.93-.38-.96-.94-.94-1.41.02-.48.48-1.4.62-1.96s-.68-.64-.68-.64-1.96-.24-3.65.3c-1.7.53-2.54 1.15-2.54 1.15-.91.51-.87.96-.87.96s0 .46.55.87 1.08.5 1.74.65c.67.15.8.31.8.31 1.07.9.4 1.79.04 2.44-.63 1.1-3.68 1.65-3.68 1.65a76.39 76.39 0 01-7.82 1.45l-.88-.46-.27.61c-7.1.94-10.07 1.88-11.07 2.14-1 .26-1.26.78-1.37.9-.1.12.08.18.08.18.43.13.65.44.65.44s1.4 1.7-.01 3.1a6.29 6.29 0 01-2.79 1.68s-2.18.74-4.08.34c-1.9-.4-2.44-1.89-2.41-2.4.02-.5.17-1.07.7-1.66.5-.58.65-.66.65-.66s.35-.28.42-.42c.08-.17-.4-.23-.4-.23-1.04-.13-3.5-.1-5.83.13-1.44.14-2.77.37-3.58.52l-.22-.48-.54.62-3.12.5c-1.52.23-2.58-.02-2.58-.02s-1.33-.4-1.48-1.25c-.15-.86.36-1.87.5-2.18.12-.3.5-.93.5-.93s.06-.13.06-.34c0-.22-.23-.54-.23-.54s-.2-.4-.89-.38c-.68.02-.87.13-1.14.36a.56.56 0 00-.11.13.63.63 0 01.07-.16c.21-.3.65-.67 1.4-.7.75-.03 1.04.23 1.04.23.72.82.12 1.85-.35 2.76-.05.1-.15.27-.23.48l-.08.23c-.36 1.06.29 1.57.66 1.66.38.1 1.15.57 4.27-.03 3.13-.6 3.6-.73 3.6-.73s6.14-1.09 8.95-.43h.02s1.3.38.33 1.34c-.96.97-1.72 1.62-1.5 2.38.22.76 1.27 1.9 3.65 1.6 0 0 .84-.11 1.1-.16 1.73-.34 2.9-1.27 2.9-1.27s.97-.72.78-1.63c-.18-.9-1.01-1.19-1.01-1.19s-.66-.42-.15-1.24c0 0 .15-.69 2.56-1.31a95.78 95.78 0 0110.55-2c3.5-.4 9.65-1.57 10.9-2.07 1.23-.51 1.49-1.4 1.51-1.71.03-.31.08-.83-1.14-1.1a4.58 4.58 0 01-1.93-.78c-.17-.14-.54-.48-.54-1.28 0-.79 1.6-1.74 3.39-2.35 1.78-.6 3.93-.34 3.93-.34 1.94.17.93 1.97.93 1.97-.07.32-.94 1.78.5 2.17 1.54.4 4.18-.35 5.2-.67.82-.26 3.13-1.08 4.68-1.62l.9-.32a21.83 21.83 0 003.8-1.68l2.14-1.3s1.35-.74 1.8-.8c.45-.07 1.61-.35 1.77.76.15 1.12.63 1.9 1.4 2.27.77.38 2.06.54 3.24-.23 1.18-.77.36-1.9.36-1.9l-.06-.08a13.76 13.76 0 00-1.22-1.47c-.3-.44.05-.7.42-.83.37-.15 2.35-.76 2.35-.76 1.16-.39 1.6-.55 2.05-.99.45-.42-.18-1.34-.23-1.41l.6.25a7 7 0 01.4.55s.23.53.05.8c-.09.15-.34.3-.54.4l-.53-.37z" fill="url(#H)"/><path d="M57.45 92.28c-.03-.04-.04-.03 0-.06.01-.02.08-.09.1-.14 0 0-1.16-.06-2.13.08-.97.13-1.94.33-1.94.33l.3.15s.13-.06 1.05-.19c.92-.12 1.27-.12 1.27-.12s.8-.07.97-.07c.16 0 .06.1.06.1s-.08.14.37.13c0 0 .66-.03 1.3-.19 0 0-1.12.24-1.34-.02zm-2.98.42s.15.26-2.92.38c0 0 1.78.06 3.3-.2 1.11-.17-.38-.19-.38-.19zM13.11 9.86s0 .1.02.13l.11.1s.33-.5.2-.43c0 0-.12.19-.17.23l-.09.08c-.06.04-.06.02-.07-.11zM10.6 12.5s-.4.46 0 .52l.52-.53s.14-.23.14-.4c0 0-.5.25-.66.41z" opacity=".1" fill="#232323"/><path d="M21.1 23.7c1.22.15 1.5-.12 1.52-.16a19.4 19.4 0 006.43-1.1s1.55-.57 2.1-1.18h.01s-.7-.6-1.06-1.13c0 0-.28-.55.03-1.03.32-.48.84-1.01 2.35-1.65 1.5-.63 2.35-.5 2.35-.5s.6-.02 1 .44c.42.46.66 1 .66 1s.03.39-.12.64l-.15.27s.05.02.37 0c.33-.02 1.17-.15 2.67-.5 1.51-.37 3.41-.98 3.41-.98s4.9-1.58 5.4-1.72c.52-.13 1.37-.43 1.37-.43l.02.06s.4.66.4 1.27v-.06s-.03.3-.7.82c-.68.52-1.23.48-1.68.44-.45-.04-.67-.07-.8-.04l-.71.04c-.8.1-1.23.4-1.23.4-1.8 1.07.73 9.29.73 9.29a95.54 95.54 0 00-10.55 1.99c-2.41.63-2.56 1.32-2.56 1.32-.51.8.15 1.23.15 1.23s.82.28 1.01 1.2c.2.9-.78 1.62-.78 1.62s-1.16.97-2.9 1.27c-1.74.3-2.4.35-3.43-.47-.9-.72-.3-1.87.31-2.3.62-.44.91-.91 1-1.12.07-.2.02-.37.02-.37l-.58-.54c-2-1.33-9.88.07-9.88.07-.21-1.17-.36-1.17-.28-3.12.05-1.24.29-1.75.29-1.75l.06-.17s.45-1.44 1.14-2.44c0 0 .6-.17 1.36-.34.77-.18 1.24-.26 1.24-.26z" fill="#6b6b6b"/><linearGradient id="I" gradientUnits="userSpaceOnUse" x1="231.23" y1="-407.87" x2="263.62" y2="-407.87" gradientTransform="matrix(1 0 0 -1 -213.76 -386.5)"><stop offset="0" stop-color="#696969"/><stop offset=".37" stop-color="#2E2E2E"/><stop offset=".46" stop-color="#424242"/><stop offset=".6" stop-color="#303030"/><stop offset=".69" stop-color="#4A4A4A"/><stop offset="1" stop-color="#666"/></linearGradient><path d="M49.85 16.94s-4.08 1.33-3.89 1.25c0 0-.39.08-.68.17-.3.08-.54.24-.54.24s-3.29 1.22-6.44 1.85c-3.15.63-2.98-.36-2.7-.83.22-.4.82-1.11-.2-1.25-1.01-.14-1.78.25-2.2.44-.43.18-3.17 1.36-1.26 2.25 0 0 1.43.64-.37 1.75 0 0-1.82 1.16-5.36 1.77 0 0-.56.07-1.88.12-1.31.04-2.56.2-4.12.65a9.1 9.1 0 00-2.74 1.07l.2-.5.2-.46a17.72 17.72 0 015.7-1.38c2-.1 2.92-.16 4.73-.63 2.13-.54 2.7-1.02 2.93-1.16.2-.12.77-.48.5-.63-.37-.2-.9-.73-.9-.73-.22-.26-.4-.37-.16-1.05.36-1.03 2.2-1.64 2.2-1.64s1.02-.54 2.33-.52c1.3.03 1.29.76 1.29.76s.06.34-.27.82c0 0-.5.58-.05.66.45.08 1.62.18 5.48-1.03 3.86-1.2 8.08-2.61 8.08-2.61s.13.34.13.62z" opacity=".45" fill="url(#I)"/><linearGradient id="J" gradientUnits="userSpaceOnUse" x1="231.62" y1="-407.06" x2="263.49" y2="-407.06" gradientTransform="matrix(1 0 0 -1 -213.76 -386.5)"><stop offset="0" stop-color="#525252"/><stop offset=".19" stop-color="#333"/><stop offset=".35" stop-color="#AEAEAE"/><stop offset=".42" stop-color="#ADADAD"/><stop offset=".43" stop-color="#9D9D9D"/><stop offset=".44" stop-color="#818181"/><stop offset=".46" stop-color="#6A6A6A"/><stop offset=".48" stop-color="#585858"/><stop offset=".51" stop-color="#4C4C4C"/><stop offset=".54" stop-color="#444"/><stop offset=".62" stop-color="#424242"/><stop offset=".67" stop-color="#454545"/><stop offset="1" stop-color="#BDBDBD"/></linearGradient><path d="M31.14 21.26c-.54.6-2.1 1.18-2.1 1.18s-1.87.68-3.55.89c-1.61.2-2.78.2-2.78.2h-.08c-.18.15-.49.2-.73.22-.25.02-.8-.04-.8-.04s-2.16.43-2.61.61l-.33.54-.3.6a17.68 17.68 0 015.72-1.38c2-.1 2.9-.16 4.72-.63 2.13-.54 2.7-1.02 2.93-1.16.2-.12.77-.48.49-.63-.36-.2-.9-.73-.9-.73-.21-.26-.39-.38-.15-1.05.35-1.03 2.2-1.64 2.2-1.64s1.02-.54 2.33-.52c1.3.02 1.28.76 1.28.76s.06.34-.27.82c0 0-.5.58-.05.66.46.08 1.63.18 5.48-1.03 3.86-1.2 8.09-2.61 8.09-2.61-.1-.3-.3-.65-.3-.65s-.85.3-1.35.43c-.51.14-5.41 1.72-5.41 1.72s-1.9.6-3.4.97c-1.51.36-2.35.48-2.68.5-.33.03-.38.01-.38.01l.16-.28c.14-.24.11-.62.11-.62s-.23-.55-.64-1.01c-.42-.46-1.01-.45-1.01-.45s-.85-.12-2.36.51c-1.5.64-2.03 1.17-2.34 1.65-.31.47-.03 1.03-.03 1.03a8.11 8.11 0 001.06 1.12" fill="url(#J)"/><linearGradient id="K" gradientUnits="userSpaceOnUse" x1="236.92" y1="-417.33" x2="235.89" y2="-410.53" gradientTransform="matrix(1 0 0 -1 -213.76 -386.5)"><stop offset="0" stop-color="#969696"/><stop offset="1"/></linearGradient><path d="M21.6 31.24s-.06-.33.18-.94c.23-.6.9-.6 1.36-.5.46.1.85.3 1.47-.13.63-.42.47-1.58.05-2.85-.42-1.26-.33-2.13-.33-2.13l-.6-.64-.24.7c.04 1.3.65 3.22.82 3.75.18.53.3.8-.73.52s-1.52.12-1.52.12c-1.33.87-1.08 2.16-1.08 2.16l.63-.06z" opacity=".2" fill="url(#K)"/><path d="M27.5 36.63a7.45 7.45 0 00-.92-2.75c-.25.2-.51.7-.51.7s.18.2.47 1.56c0 0 .14.11.44.28.3.18.52.21.52.21zm5.65-3.75s-.78.9-.38 2.34c0 0 .46-.38.59-.68 0 0-.15-.46.14-1.02 0 0-.13-.42-.35-.64z" opacity=".5" fill="#141414"/><linearGradient id="L" gradientUnits="userSpaceOnUse" x1="428.78" y1="532.05" x2="429.53" y2="524.47" gradientTransform="translate(-406.16 -500.32)"><stop offset="0" stop-color="#333"/><stop offset=".43"/><stop offset="1" stop-color="#2E2E2E"/></linearGradient><path d="M21.2 31.25c.02-1.3.47-1.49.9-1.81.44-.33 1.33-.03 1.33-.03s.68.22 1.05-.1-.02-1.47-.22-2.12c-.2-.66-.41-1.6-.45-2.26-.02-.5-.09-.71-.12-.8l-.2.61c.04 1.32.65 3.23.82 3.76.18.53.3.8-.73.52-1.04-.29-1.52.12-1.52.12-1.33.86-1.08 2.16-1.08 2.16l.26-.02-.04-.03z" opacity=".18" fill="url(#L)"/><path d="M26.24 34.29c.04.06.42.6.74 2.11v.03c.3.17.52.2.52.2a7.45 7.45 0 00-.92-2.75 2 2 0 00-.34.41zm6.91-1.41s-.78.9-.38 2.34c0 0 .13-.1.27-.25l.02-.05c-.3-1.04.28-1.77.28-1.77-.05-.1-.12-.2-.19-.27z" opacity=".3" fill="#505050"/><path d="M17.16 8.19h.12c-.16.48-.8 1.14-1.07 1.58-.16.25-.25.57-.48.75l.04.04c.1.05.82-.14.95-.23.09.01.08 0 .12.04.05.07-.48.99-.6 1.1v.04c.2-.02.51-.05.64-.16.39-.3.47-.93.75-1.34l-.04-.2c-.22-.04-.68.02-.87.16h-.04c.1-.47.87-1.35 1.15-1.74.45-.65.88-1.27 1.34-1.9.25-.33.59-.62.84-.95.27-.37.56-.85.94-1.1v-.09h-.15c-.19.14-.68.22-.91.36.03.13.02.1.12.16-.14.38-.6.67-.84.99-.37.5-.78.96-1.14 1.46-.13.16-.2.42-.36.55-.24.21-.91.19-1.18.4h-.08c.05-.33.9-1.4 1.14-1.62v-.04c-.4.05-.72.27-.99.47.05.1.04.07.12.12-.14.24-.36.42-.51.63-.2.28-.3.6-.51.87l.04.12a6.4 6.4 0 001.46-.47zm34.78 5.34l.6.2c.15 0 .32 0 .42-.04 0-.65-.36-.91-.59-1.34-.11-.22-.17-.53-.35-.68.06-.24.72-.3.98-.4l2.02-.63c.3-.1.67-.07.91-.23.15.01.22.03.28.12.14.2.26 1.66.16 2.1-.4 1.66-.9 2.96-1.94 3.95v.04c.38-.06.57-.44.83-.63a6.04 6.04 0 002.14-3.45c.22-.86-.14-1.7.2-2.45h-.04c-.08-.19-1.09-.55-1.4-.55-.16.17-.4.41-.63.51-.35.15-.83.11-1.14.32-.29-.03-.5-.57-.32-.8 0-.08 0-.1-.04-.15-.24-.2-.85-.17-1.27-.16-.13.12-.25.15-.3.36h-.05c-.02.07.02.05.04.08.03.01.16-.01.24.04.45.04.43.56.67.83-.03.07 0 .04-.04.08-.16.12-1.3.45-1.54.51-.19.05-.42-.07-.56-.08-.33-.03-.63.16-.83.28.11.15.44.12.56.27.42.56.6 1.28.99 1.9zm7.87-.55c.18.09.18.33.27.51.19.37.44.82.56 1.23v.31c.1.26.4.29.6.44.15-.02.2-.06.3-.12-.06-.75-.52-1.38-.78-1.98-.08-.18-.2-.45-.24-.63-.02-.1.07-.17 0-.28-.05-.12-.07-.08-.15-.15-.06-.04-.03-.02 0-.08.06-.15.2-.29.27-.44.13-.31.13-.57.4-.75-.04-.41-.64-.46-1.11-.43a.6.6 0 01-.24.07c.05.1.08.13.2.16.11 1.16-.7 2.22-1.23 2.93-.2.28-.56.45-.75.75h-.04v.04c.53-.09 1.67-1.18 1.94-1.58zm-47.4 9.85c-.08.02-.08 0-.12.04-.29.15-.77 1.42-1.35 1.07-.29 0-.32-.06-.47-.16.02-.38.66-1.07.91-1.23.03-.6.19-1.25.12-1.82l-.12-.04c-.14-.04-.25.17-.36.28-.29.3-.64.6-.87.95-.33 0-1.41-.01-1.62.12h-.12c.1-.26.86-1.1.63-1.47 0-.04-.02-.08-.04-.12-.72 0-1.59 1.3-1.82 1.82-.11.27-.11.58-.27.8v.04l1.62-.2c.2-.05.49.05.63-.04h.56l.27-.36c.33-.35.77-.7 1.03-1.1h.12v.55c-.3.27-.77.7-.9 1.1v.32c-.21.88.21 1.33.98 1.27.5-.47 1.32-.85 1.23-1.78l-.04-.04zm-4.6-.71h-.23c.1-.44.54-.94 1.07-.95v.2l-.55.7c-.12 0-.22 0-.28.05zm85.23.2a9.8 9.8 0 00-.47-1.07c-.3-.58-.61-1.42-1.46-1.43-.22.18-.44.32-.56.6-.78 1.76.82 3.74 1.54 4.7.26.34.56.72.95.91-.09 1.38-1.27 1.82-2.53 1.27a5.98 5.98 0 01-2.18-1.98c-.19-.25-.48-.46-.67-.71-.18-.24-.3-.5-.52-.71v-.04h-.07c.1.42.35.81.51 1.18a7.85 7.85 0 002.81 3.52c.61.43 1.62 1.1 2.5.48 1.52-1.1.78-5.19.15-6.72zm-.11 1.9c-.1.1-.54-.42-.64-.52-.44-.44-1.33-1.22-.83-1.98h.2c.39.4.75.79.99 1.35.13.3.15.8.31 1.07-.02.06 0 .04-.03.08zm-26.24 7.9v-.39c.18-.8.14-1.76.32-2.57.24-1.09-.1-2.15.99-2.41.02-.1.05-.15 0-.24l-.04-.08c-.05-.03-.04-.02-.12-.04-.3.22-1.13.37-1.54.47-.32.08-.64.01-.87.16l-.12.04.04.24c.45.15.87-.03 1.07.36.13.25.1 1.15.03 1.5-.25 1.16-.14 2.5-.4 3.64-.08.4.03 1.17-.15 1.46v.08c-.24-.11-.4-.42-.55-.63-.36-.47-.88-.84-1.23-1.3-.21-.29-.44-.62-.71-.84.03-.76.26-1.56.43-2.25.14-.52.14-1 .4-1.39.15-.22.5-.35.75-.47 0-.1 0-.15-.04-.2l-.04-.12c-.54.08-1 .34-1.5.47-.46.13-.91.1-1.27.28.01.1.01.11.04.16l.04.12c1.4-.08 1.18.67.91 1.74-.08.32-.03.77-.2 1.03v.08h-.04c-.28-.44-.7-.86-1.06-1.23l-.44-.4c-.1-.13-.16-.3-.28-.43.03-.44.38-.55.72-.67-.02-.19-.06-.21-.12-.32-1.03.15-1.93.73-3.09.79v.04h-.04c0 .1 0 .15.04.2v.08c.23.04.57-.06.83.04.43.15.81.64 1.07.99.39.51 1 .95 1.38 1.46.2.27.44.63.72.83-.04.7-.23 1.43-.4 2.06-.08.32-.03.73-.2.99-.02.07 0 .04-.04.08-.37-.72-1.1-1.27-1.58-1.9-.92-1.22-1.94-2.32-2.89-3.52 0-.17.01-.27.08-.36.08-.23.36-.44.64-.48.01-.12.03-.13-.04-.23l-.04-.12c-.8.12-1.53.5-2.3.71-.4.11-.93.06-1.23.28l-.11.04c.02.15.06.17.11.28.32 0 .65-.1.95 0 .8.24 1.36 1.13 1.82 1.74.2.26.51.48.71.75.85 1.13 1.81 2.14 2.65 3.28.33.45.77.83 1.07 1.3.18 0 .22-.02.32-.07.2-.93.33-1.87.6-2.81.11-.43.26-.94.3-1.43.33.12.6.61.8.88.62.82 1.49 1.5 2.06 2.37.16 0 .18-.03.27-.08l.52-4.03zM4.3 38.9c0 2.47-.14 6.27 1.79 6.81.7.2 1.08-.27 1.3-.6.79-1.17.57-3.44-.2-4.43-.33.04-.82.84-.98 1.11-.09-.02-.08-.01-.12-.04-.1-.04-.09-.07-.16-.12-.06-.93.13-1.8.16-2.69 1.04.1 1.94.7 3 .75 0-.18 0-.43.08-.55 0-.1 0-.11-.04-.16a4 4 0 00-1.18-.31v-.04H7.9c.14-1.18-.19-2.09-1-2.42l-1.34-.24c-.23-.08-.34-.26-.51-.4-.06-.37-.14-.8.15-1.02-.02-.14-.03-.17-.11-.24v-.04h-.04c-.14.23-.25.5-.32.8-.23.98.31 1.81.91 2.01l1.19.2c.31.12.45.38.67.6-.01.5-.5.56-.91.43-.64-.2-1.32-.35-1.98-.6-.17-.06-.33-.16-.55-.2l-.08.76 1.66.51c-.02 1.4-.58 3.08.12 4.16.08.02.14.03.2.08.78-.06.94-.68 1.34-1.11.34.82.09 2.25-.67 2.45-.33.23-.8-.06-.99-.23-.65-.6-.78-1.52-1.03-2.54-.08-.34.04-1.04-.11-1.3 0-.4.09-1.14-.12-1.35v-.04H4.3zm95.05 6.65c-.15-.66.05-1.47-.08-2.1v-.63c-.1-.45-.06-1.05-.16-1.5-.19-.88-.02-1.93-.35-2.65-.2-.05-.4-.09-.68-.08-.1.1-.18.16-.16.28.09.36.55.43.68.79l.04.51c.13.56.1 1.29.23 1.86v.48c.07.29.16 1.03.08 1.26-.14.42-.58.79-.87 1.07-.75.76-1.64 1.72-2.97 1.86-.02.07 0 .04-.04.08.03.5.48.4.8.6l.23-.05c.12-.07.2-.24.28-.35.2-.26.56-.4.75-.67h.04c0 1.2.03 2.56.04 3.71h.12c.27-1.17.25-2.6.23-4.03.53-.49.86-1.2 1.39-1.66v-.08h.04c0 1.25.04 2.53.04 3.8 0 .4-.1 1.37 0 1.54v.24h.08c.1-.43.13-1.03.23-1.5v-.68c.12-.53.12-1.56 0-2.1zM28.3 48.07a2.64 2.64 0 01-.99-.75c-.63-.87-1.33-2.95-.87-4.5A3.35 3.35 0 0129 40.35a2.8 2.8 0 011.82.28c1.2.62 1.72 1.5 2.1 2.96.47 1.89-.14 3.62-1.4 4.2l.25 2.3c.44-.02.85-.11 1.22-.2.63-.16 1.27-.18 1.86-.32.43-.1 1.05-.02 1.39-.24.08-.17-.25-1.35-.32-1.62-.06-.23 0-.46-.12-.63V47c-.09 0-.18.02-.27.04.01 1.19-.84 1.03-1.79 1.26-.47.12-1.04.27-1.58.28v-.52c.05-.08.74-.38.87-.47a4.9 4.9 0 001.23-1.3c.2-.33.37-.77.47-1.15.14-.5.16-1.17.04-1.67-.08-.33-.04-.6-.15-.9a4.33 4.33 0 00-2.46-2.54c-.51-.21-1.1-.22-1.7-.35a5 5 0 00-1.9.23c-1.9.57-3.2 1.48-3.8 3.33a4.5 4.5 0 00.04 2.41c.47 1.56 1.77 3.02 3.72 3.05v.04c.06.08.06.26.12.35-.02.07 0 .04-.04.08-.16.11-.4.06-.63.12-.47.12-1.99.48-2.34.16-.22-.08-.37-.37-.4-.64-.1 0-.14 0-.19.04h-.08l.43 2.3h.04v.04l4.16-.71-.6-2.18c-.1-.17-.46-.15-.67-.24zM96 43.68c.09.22.26.58.44.71.08.07.13.04.2.12 1.3.12 1.84-2.14 1.3-3.44-.09-.22-.51-.88-.9-.63h-.09l.04-.08a.62.62 0 00-.07-.36l-.24-.04c-.04.04-.01.02-.08.04.03.24.11.25.12.52a3.1 3.1 0 00-.72 3.16zm.44-2.1c.08-.2.26-.34.4-.51.07-.01.07-.01.1-.04.31 0 .4.06.56.16.3.71.35 1.95-.15 2.5-.08.08-.23.1-.32.19-.83-.06-.9-1.58-.6-2.3zM78.09 57.17c-.44-.28-.5-1.68-.67-2.3-.33-1.21-.48-2.48-.83-3.72-.23-.78-.53-1.6-.44-2.57.14-.14.23-.32.4-.43.22-.16.58-.23.75-.44.03-.05-.02-.13-.04-.24-.46.08-.88.35-1.27.52-.79.33-1.56.53-2.37.87-.25.1-.52.28-.83.31v.24l.08.04c.04.04 1.03-.4 1.34-.12.36.13.31.6.52.87-.06.62-.68 1.56-.92 2.1A63.39 63.39 0 0172 56.14c-.25.47-.54 1.33-.87 1.7v.04c-.22-.3-.2-1.05-.32-1.47-.35-1.23-.57-2.59-.95-3.8-.06-.22-.3-1.27-.15-1.5.05-.54.82-.78 1.26-.95 0-.09-.02-.18-.04-.27-.7.1-1.43.48-2.05.71-.6.22-1.14.31-1.74.52-.3.1-.64.27-1 .31v.04h-.03c.01.11.02.17.08.24.16.1 1.03-.35 1.38-.08.56.2.58 1.08.75 1.66.49 1.58.73 3.33 1.2 4.95.1.4.38 1.68.11 2.02-.15.43-.89.61-1.3.79 0 .08.02.16.03.23.6-.09 1.16-.37 1.7-.56 1.07-.35 2.07-.65 3.1-1.03l-.05-.27c-.43.12-.77.25-1.38.24l-.24-.2-.2-.64c.05-.5.69-1.42.91-1.86.68-1.29 1.27-2.6 1.86-3.95.23-.52.75-1.28.83-1.86.19.11.14.44.2.67.13.48.21.98.35 1.5.29 1 .4 2.08.68 3.13.1.4.26 1.05.08 1.47-.18.4-.84.67-1.27.83.02.08.04.18.08.24l1.06-.36c1.1-.47 2.24-.96 3.37-1.38l-.04-.28c-.28.07-.92.44-1.3.2zM96.8 60.5c-.14.13-.35.16-.51.27a6.8 6.8 0 00-1.39 1.47c-.28.4-.53.84-.79 1.27-.1.18-.13.4-.27.55v.08c.34-.06.54-.28.79-.44.66-.4 1.25-.78 1.86-1.22.3-.22.51-.55.83-.76.03-.47.12-.84-.08-1.18a2.12 2.12 0 00-.44-.04zm-.47 1.42c-.24.18-.47.42-.71.6-.21.14-.46.22-.64.4h-.04c.13-.42.82-1.12 1.15-1.35.17-.13.38-.16.56-.28h.15l.08.08c-.03.3-.36.4-.55.55zm-85.5 1.55c-.17-.5-.28-1-.44-1.47-.08-.25-.06-.53-.2-.71v-.12c.27.1.68.09.91.24h.2c-.04-.2-.08-.56-.2-.72-.12-.2-.88-.2-1.1-.35-.32-.24-.61-.95-.84-1.3a9.3 9.3 0 00-2.13-2.46c-.45-.33-.75-.67-1.55-.67l-.27.2c-.18.78.14 2.24.59 2.6v.08a1.2 1.2 0 01-.51-.27h-.04c0 .23.05.52.15.67.05.2.37.35.56.4.25 1.03.59 2.1.95 3.05.29.75.43 1.48.75 2.21.15.36.52.62.63.99h.12c-.1-.33-.27-.65-.4-.95-.36-.87-.65-1.8-.95-2.69-.2-.58-.33-1.14-.51-1.7-.07-.21-.05-.43-.16-.6v-.03c.27.05.43.18.63.27.47.2.9.28 1.39.48.35.14.8.35 1.23.4.04.35.25 1.3.43 1.54v.12c-.6-.42-.59-1-1.66-.91a.8.8 0 01-.2.15c-.1.25-.1.65 0 .91.26.65 1.07 2 1.74 2.18.26.19.64-.04.75-.24.25.13.3.68.4.95.21.56.52 1.3 1.03 1.55v.04h.08c-.06-.45-.32-.85-.47-1.23-.35-.86-.63-1.76-.92-2.61zm-1.15-3.21c-.42-.03-.78-.2-1.11-.31-.9-.34-1.7-.62-2.5-1-.09-.35-.75-1.64-.39-2.1l.08-.11c.08-.02.08-.01.12-.04 1.22.15 2.44 1.63 3.05 2.45.23.32.43.8.75 1.03v.08zm.63 3.44l-.36.44c-.1.07-.22.1-.31.2-.68-.03-.7-.7-.99-1.11 0-.4.15-.4.31-.6.1 0 .12 0 .16-.03.62 0 .76.27 1.11.51.06.23.1.34.08.6zm23.27 6.1c-.17-.28-.5-.35-.71-.56-.07-.02-.04 0-.08-.04.5-.26 1.05-.55 1.58-.79.14.16.8.8 1.03.67l.12-.04-.04-.67c-.5-.5-1.24-.9-2.06-1.07v.04h-.04c.1.28.4.54.63.68v.11c-.46.07-.88.3-1.3.44-.3.1-.64.08-.88.24h-.11c.17-.48.73-.87 1.02-1.27.58-.78 1.04-1.73 1.94-2.18-.02-.36-1.07-1.12-1.46-.87-.1.05-.03-.02-.08.08-.06.15.14.32.08.56-.08.3-.83 1.74-1.03 1.9v.04c-.4-.14-.72-.53-1.1-.72.06-.36.37-.64.55-.9.45-.7.81-1.34 1.5-1.79 0-.52-.85-1.07-1.42-1.06 0 .24.12.38.08.59-.14.64-.44 1.3-.68 1.86-.15.36-.22.8-.47 1.06-.06.03-.5 0-.6-.07-.14 0-.3 0-.39.04v.07c.67.65 1.39.87 2.3 1.27-.13.66-.79 1.1-1.11 1.59-.17 0-.3-.01-.4-.08-.09.01-.1.02-.16.04.02.58.5 1.07 1 1.19a3.1 3.1 0 011.22-.76c.45.47.58 1.14.75 1.9.08.33-.05.7.04.99.15.51.43.67.67 1.03h.28c.17-.93-.25-1.84-.48-2.57l-.2-.96zm62.51-6.7c-.24.21-.57.3-.83.48-.4.29-.76.66-1.15.95-.17.14-.43.26-.55.44-.2.3-.16.8-.4 1.07v.15c.32-.11.47-.48.72-.67.3-.23.56-.53.87-.75.19-.14.4-.21.59-.36.12.02.11.04.2.08-.02 1-.55 1.72-.87 2.46-.1.21-.12.55-.28.7-.07.08-.23.1-.31.16l-.8.88c-.25.34-.36.8-.63 1.14 0 .12 0 .22.04.28l.16.08c.5-.48 1-.89 1.42-1.47.66-.9.99-2.04 1.47-3.12.3-.68.73-1.36.7-2.34a.73.73 0 01-.1-.15h-.25zm-2.77 6.26v.04h-.04c.07-.47.43-.6.6-.95h.07c-.05.4-.34.74-.63.91zM34.17 70c-.08.35.76 1.1 1.03 1.31.13.1.31.33.51.24l.2-.04c.05-.1.12-.24.04-.36-.02-.5-1.31-1.05-1.78-1.15zm3.8 3.05c.07.03.12.02.2-.04.14-.11.06-.31.16-.48.22-.16.61-.11.9-.2.82-.2 1.76-.2 2.66-.4.42-.08 1.13.17 1.46-.03l.12-.04c-.02-.52-1-.74-1.54-.59-.24.07-.52.21-.76.28l-.55.03c-.06-.64-.38-1.14-.4-1.81a4.3 4.3 0 001.74-.32c0-.2-.04-.2-.12-.31-.45-.11-1.23-.13-1.58.11-.1 0-.15 0-.2-.04-.22-.28-.11-.85-.31-1.14v-.16c.42-.1 1.12-.17 1.34-.48.03-.04.02 0 .04-.07l-.08-.12c-.62-.16-.88-.05-1.42.16-.17-.54.03-.96-.51-1.11.11-.2.5-.2.75-.28.38-.12.81-.3 1.15-.47.02-.07 0-.04.04-.08-.03-.2-.08-.2-.16-.32-.57-.04-1.03.01-1.35.32h-.08c.05-.3.24-.72.4-.95.11-.16.32-.14.4-.36h.03v-.04l-.23-.31c-.19-.13-.46-.15-.64-.28-.26 0-.51 0-.67.08.02.15.1.24.12.35.11.41-.28 1.67-.43 1.86-.13.15-1.56.67-1.94.56a1.7 1.7 0 01-.44-.24l-.04-.08c.56-.53.97-1.7 1.74-1.94l.04-.2c-.19-.2-1.13-1.18-1.62-.87l-.12.04c0 .34.17.6.08.95a8.44 8.44 0 01-.95 2.14c-.22.35-.69.73-.7 1.23.64-.07.8-.73 1.3-.91l.43.4c.2.3.17.77.28 1.18l.55 2.57.08 1.27c.1.38.42 1.04.83 1.14zm1.26-3c.03.36.26 1.4.44 1.65v.08c-.48.1-.97.24-1.5.24-.09-.56-.36-1.06-.36-1.66.6-.01.92-.26 1.42-.32zm-2.3-3.29a2.8 2.8 0 011.24-.2c.42.2.27.81.51 1.19-.08.2-1.05.49-1.34.51-.06-.42-.13-1.27-.4-1.5zm1.83 1.5h.04c.08.36.12.98.32 1.27-.15.35-1.02.32-1.35.52-.14-.09-.32-1.08-.32-1.35a4.5 4.5 0 001.31-.44zm-6.85 2.26c-.06.13-.05.35-.11.51-.35.84-.46 1.01.08 1.82.23 0 .27-.04.4-.12.15-.66.17-1.9-.37-2.21zm45.11.23c-1.15-.28-2.12.29-3.32.2-.12-.12-.2-.19-.28-.35-.83.02-1.75 1.88-.9 2.45.45.3 1.74.13 2.29 0 .3-.07.78-.14 1.03.04.33.25.27 1.18.15 1.7l-.4 2.93-.35 1.78c.6 0 1.18-.62 1.35-1.07.1-.26.05-.5.12-.8.2-.82.24-1.81.43-2.68.13-.56.05-1.1.16-1.62.09-.4.14-1.7.04-2.06-.06-.2-.21-.36-.32-.52zM22.86 82.7c-.14-.1-.23-.28-.36-.39-.47-.42-1.03-.83-1.54-1.19-.43-.3-1.01-.47-1.39-.83 0-.08.12-.3.04-.51-.33-.9-1.59-1.94-2.37-2.42-.36-.22-.97-.32-1.3-.55-.25-.02-.38-.03-.44.15-.1.22.2.53.31.68.27.38.58.83.95 1.1.28.21.6.4.83.64h.12c-.15-.43-.6-.66-.95-.91-.3-.23-.45-.63-.7-.9.01-.13.03-.12.07-.2 1.1 0 1.8 1 2.3 1.65.21.3.57.46.59.95-.12 0-.22 0-.28-.04h-.12c.2.53.83.48 1.27.76.89.55 1.6 1.4 2.37 2.1.27.23.72.46.8.86-.54-.02-.92-.32-1.27-.55-.61-.4-1.6-1.1-2.02-1.66-.08-.1-.1-.27-.2-.36-.1-.1-.26-.14-.35-.27h-.16c-.04.4.41.7.67.95.82.75 1.7 1.44 2.73 1.97.38.2 1.06.53 1.47.28-.06-.57-.7-1.03-1.07-1.3zm24.37 2.62a14.52 14.52 0 00-8.43-2.7c-.17.11-.5.03-.71.09-.29.07-.47.22-.67.35-.01.97 1.44 1.5 2.25 1.7.48.12.91-.1 1.19-.2.21-.82-.78-.94-1.23-1.35h-.08v-.03c3.04-.12 5.3.73 7.04 2.02.44.32.93.78 1.15 1.3.08.2.12.52 0 .68-.16.44-.68.4-1.19.51a4.33 4.33 0 01-3.28-.9c-.1.18.05.47-.12.67-.17.47-.79.35-1.34.47-.92.2-2.36-.27-2.9-.63-.14-.1-.25-.29-.39-.4 0-.1-.02-.13-.04-.2.08-.07.18-.18.24-.27 1.14-.09 1.72-.03 2.37.6-.01.07 0 .07-.04.1-.07.16-.24.18-.47.17v.07c.42 0 .6-.06.83-.2l.04-.23c-.14-.14-.23-.33-.4-.44-.65-.42-1.99-.64-2.73-.15-.11.56.24.86.56 1.1.64.49 1.19.77 2.1 1.03.29.08.55 0 .87.08.28.06.76.07 1.06 0 .5-.13 1.2-.66.64-1.27v-.04c.3.1.54.4.83.56.76.4 2.02.72 3.16.47.57-.12 1.15-.12 1.3-.63.19-.28-.06-.67-.15-.83a4.33 4.33 0 00-1.46-1.5zm-7.32-1.83c.14.1.22.3.35.4 0 .1 0 .15-.04.2-.25.7-1.7.18-2.06-.08-.1-.08-.15-.25-.23-.36.01-.08 0-.07.04-.11.1-.3.42-.2.67-.36.5 0 .96.1 1.27.31zm36.72.4h-.4c-.26.21-.7.24-1 .4a7.3 7.3 0 00-.82.51c-.2.15-.33.42-.52.6 0 .2.01.22.16.27.04.03.01.02.08.04.04-.05.08-.06.12-.12.03-.02-.03-.1-.04-.23.38-.39.67-.6 1.23-.83.14-.06.44-.24.63-.12h.08a4.9 4.9 0 01-1.19 1.78v.11c.73-.18 1.22-1.64 1.7-2.17-.01-.09 0-.11-.04-.16v-.08zm-3.17 2.93c-.23.2-.8.23-1.07.43h-.04c.1-.14.3-.2.4-.35.07-.1.1-.23.2-.32-.02-.08-.01-.07-.04-.11v-.08c-1.16-.21-3.09.78-3.68 1.3-.16.14-.25.34-.4.48 0 .11.02.17.04.24.7.05 2.01-.38 2.17-.95.03-.02.02 0 0-.04v-.08c-.48-.03-1.12.08-1.42.36h-.04c.26-.4 1.23-.75 1.74-.91.17-.06.55-.15.72-.04l.11.04c-.1.4-.65.83-1.03.95v.08c.61-.15 1.17-.42 1.7-.64.37-.15.79-.19 1.11-.4.23-.14 1-1.2 1.07-1.5-.91.14-.99 1.04-1.54 1.54zm-3.13.79v.12c-.07.05-.13.15-.2.2-.2.11-.47.1-.67.23-.09 0-.1 0-.15-.04h-.04c.1-.33.76-.49 1.06-.51zm-16.5 3.72l.04-.12-2.92-.12c-.13.08-.32.04-.48.08-.2.06-.42.15-.6.24l.05.08c.24.18 1.62.2 1.9 0h.08v-.08c-.42-.14-1.19.2-1.5 0h-.05v-.04c1.06-.08 2.23-.05 3.33-.04-.1.07-.33.05-.44.12l-.11.04v.08l.7.11.05.04c-.35.23-1.26.14-1.59-.04v-.08c-.17-.08-.99.09-1.14.12-.14.03-.27-.01-.36.04-.17 0-.18.03-.28.08.03.13.04.11.08.2.26.06.7.06.99.15v-.04h.04v-.04c-.15-.05-.56-.02-.71-.11h-.08c.13-.1 1.42-.28 1.66-.12.07.02.04 0 .08.04l-.63.12c.02.06 0 .03.04.07.06.05.19.05.31.04-.04.08-.05.11-.12.16l.04.08c.56 0 1.03-.06 1.5-.16.29-.06.63.06.84-.08h.31v-.07c-.54 0-1.88-.06-2.21.15h-.12l.04-.04c.15-.18.47-.09.75-.15.44-.1 1.17-.29 1.54 0 .1.06.04-.01.04.11.1 0 .18 0 .24-.03h.28v-.08a4.88 4.88 0 01-1.2-.44c-.16-.1-.09-.25-.38-.27zm-40.2-72.96c-.08.32-.27.6-.39.87-.27.61-.5 1.22-.75 1.82-.2.5-.34 1.3-.63 1.7v.08c.41-.08.7-.5.94-.75.62-.64 1.92-2.22 1.9-3.4a1.05 1.05 0 01-.15-.24 3.78 3.78 0 00-.92-.08zm.16 1.66c-.18.3-.28.6-.47.87-.18.26-.46.45-.63.72h-.05c.06-.3.22-.55.32-.8.24-.56.4-1.11.67-1.62.16 0 .27.02.36.08.1.05.03-.02.08.08.08.2-.18.51-.28.67zM84.02 7.88c-.41-.42-.73-.94-1.14-1.35v-.04c-.2.07-.9.69-1.03.87-.25-.1-.4-.36-.6-.51-.67-.51-1.3-1.17-2.49-1.15-.14.12-.36.12-.55.2a2.5 2.5 0 00-1.3 1.22c-.26.6 0 1.5.19 1.94.4.9 1.03 1.67 1.58 2.42.46.61.97 1.25 1.82 1.46.96.24 1.42-.88 1.78-1.3.37-.44 1.18-.55 1.46-1.11.1-.21.04-.62-.03-.8a7.16 7.16 0 00-1.43-1.85c.02-.24.14-.25.24-.4.24.12.33.47.51.67.23.26.55.4.8.64.37 0 .6-.1.78-.28h.04c-.09-.27-.44-.45-.63-.63zm-2.25 4.27c-.7.16-1.05-.3-1.42-.68-.94-.93-1.57-2.09-2.3-3.24-.25-.4-.89-1.13-.56-1.7h.16c.2.3.54.5.75.8.6.77 1.32 1.46 1.9 2.25.36.48.76.94 1.1 1.42.19.25.32.56.56.75-.04.18-.11.27-.19.4zm.6-2.81c.31.44.75.69.74 1.46-.12.12-.15.23-.35.28l-.08.04c-.56-.93-1.37-1.71-2.02-2.57-.21-.29-.54-.52-.75-.8-.36-.48-.8-.86-1.19-1.3-.11-.13-.17-.26-.31-.36.03-.08.03-.05.07-.12.68.01 1 .46 1.39.76a12.1 12.1 0 012.5 2.6z" opacity=".88" fill="#231f20"/><radialGradient id="M" cx="251.81" cy="-408.36" r="72.75" gradientTransform="matrix(1 0 0 -1 -213.76 -386.5)" gradientUnits="userSpaceOnUse"><stop offset="0" stop-opacity="0"/><stop offset=".8" stop-opacity=".08"/><stop offset="1" stop-opacity=".39"/></radialGradient><path d="M49.88 17.04c.02-.6-.39-1.27-.39-1.27l-.02-.06s-.49-.95-1.3-1.23c-.82-.28-1.48.34-1.48.34l-.43.5c-.31.36-.5.66-1.2.93-.7.28-1.38.2-1.74.04-.37-.17-.46-.54-.46-.54s-.23-.72-.31-1.05c-.09-.33-.31-1.7-.31-1.7s-.5-2.74-.54-3.3c0 0 1.48-.12 3.7-.77 2.3-.67 3.03-1.2 3.03-1.2s-.43-.16-.48-.67c-.05-.5-.09-1.19-.09-1.19s-.09-.5.48-1.14a3.3 3.3 0 011.77-.95 9.58 9.58 0 012.09-.14c.81.04 1.27.12 1.6.3.32.17.35.6.35.6V5.7s-.05.4.25.53c0 0 .5.3 2.2.13 0 0 .72-.12 1.84-.46 1.13-.33 4.13-1.23 4.56-1.34.42-.1.95-.29 1.64-.47.7-.18 2.04-.62 2.31-.73a21 21 0 012.93-.8c1.12-.2 2.23-.2 2.81.14 0 0 .36.3.52.66.17.36.48.87.93 1.1.45.22.75.36 1.87.27 0 0 .02-.1-.4-.37-.41-.28-.98-.7-.98-.7s-.34-.25-.41-.45c-.08-.2-.05-.3-.05-.3l.88-1.41s0-.18.5-.24c.51-.07 1.08-.14 1.75-.32.67-.17.78-.3.78-.3l.58.17s3.55 2.85 4.66 3.58l.2-.23s.43.01.82.17c.4.15.98.56.98.56s1.62 1.3 2.07 2.2l.23.68-.1.16s.91 1.3 2.1 2.6c0 0 1.22 1.67 1.68 2.1l-.2-.86.34-.22.2-.15.62.26a51.87 51.87 0 018.14 16.33l-.12.48.4.5a51.02 51.02 0 011.61 16.55l-.3.52.22.55A50.99 50.99 0 017.78 68.56l-.1-.36-.21-.15a50.63 50.63 0 01-6.6-19.1l.22-.53-.34-.48a51.43 51.43 0 01.43-14.52l.25-.56-.1-.32a50.61 50.61 0 016.48-16.8l.69-.39.08.03s.23-.17.35-.21l.08-.03s1.18-1.97 1.62-2.6c0 0 .54-.35.75-.4 0 0 .12-.02.19.07 0 0 .5-.43 1.7-2.05v-.02s-.1-.08-.12-.17c-.02-.1.1-.6.17-.72.06-.13.1-.16.1-.16s1.73-2.03 3.16-3.23c0 0 .26-.2.68-.25 0 0 1.47-.62 3.26-2.19 0 0 .05-.29.48-.86a4.46 4.46 0 012.22-1.33c.77-.18.9-.04.9-.04l.06.06.52.77s.56-.32 1.4-.6c.86-.3.99-.27.99-.27l.82 1.34-.98 2s-.65 1.42-1.66 2.18c0 0-.47.29-1.12.13-.65-.16-1.07.33-1.07.33l-.17.14s.14-.02.35-.1c0 0 .15.07.27.22.11.16.91 1.18.91 1.18s0 .84-.41 1.94c-.42 1.1-1.47 2.89-1.47 2.89s-.73 1.42-1.07 2.25a6.1 6.1 0 00-.5 2.26s.2.07.71-.2c.66-.33 1.09.03 1.09.03s.72.53 1.04.88c.26.29.8 1.76.2 3.22 0 0-.4 1.01-1.37 1.73 0 0-.22.33-1.53.17-.37-.04-.58-.27-1.37-.2-.79.08-1.23.82-1.23.82l.01-.03c-.7 1-1.15 2.46-1.15 2.46l-.06.17s-.24.5-.3 1.75c-.04 1.28.3 3.1.3 3.1s7.87-1.38 9.87-.05l.58.53s.05.18-.03.38-.37.67-.99 1.11c-.6.44-1.22 1.59-.3 2.3 1.03.82 1.68.77 3.42.47 1.74-.3 2.9-1.26 2.9-1.26s.97-.72.78-1.63c-.19-.91-1.01-1.2-1.01-1.2s-.66-.41-.15-1.23c0 0 .15-.69 2.56-1.31a95.33 95.33 0 0110.55-2s-2.54-8.22-.73-9.28c0 0 .43-.3 1.22-.41l.72-.04c.13-.03.34 0 .8.05.45.04 1 .07 1.67-.44.68-.52.7-.82.7-.82" opacity=".38" fill="url(#M)"/></svg>