<svg xmlns="http://www.w3.org/2000/svg" width="159.87" height="85.6"><path d="M9.6 83.85c.55-.68 2.65-3.45 4.68-6.14l3.69-4.9-4.91-4.6c-20.9-19.61-15.94-52.24 9.8-64.5C28.8.87 30.26.6 39.37.6c9.1 0 10.6.27 16.5 3.08C66.99 8.95 74.79 18.75 77.95 31.4c3.99 16.03-6.48 35.95-22.82 43.44-7.55 3.46-19.81 4.28-27.3 1.84l-5.09-1.67-5.82 5.04c-5.34 4.63-9.78 6.94-7.3 3.8zm37.41-12.1c16.6-3.91 26.61-17.5 25.63-34.78-.77-13.65-9.25-25.45-21.25-29.58-6.65-2.3-17.53-2.25-24.36.1-7.5 2.58-16.1 11.13-19 18.9C3.33 39 6.08 53.3 14.99 62.6c5.33 5.57 6.38 5.54 10.02-.25l2.05-3.25h-5.04c-2.77 0-5.27-.38-5.56-.84-.29-.47 2.63-5.25 6.48-10.63 3.86-5.37 6.8-9.98 6.54-10.24-1.05-1.06-4.39.92-5.44 3.23-.93 2.04-1.85 2.48-5.1 2.48-4.77 0-5.28-.65-4.04-5.15 1.92-6.97 9.69-11.41 17.69-10.12 2.2.36 5.03 2.04 7.64 4.54 5.17 4.95 9.89 5.9 13.82 2.8 1.47-1.15 2.82-3.1 3-4.34.27-1.9 1.03-2.27 5.07-2.53 4.34-.28 4.75-.11 4.75 1.93 0 7.25-8.25 15.42-16.68 16.52-4.82.63-7.32 1.82-7.32 3.48 0 .48 1.35.87 3 .87s3 .38 3 .83c0 .46-4.69 4.84-10.41 9.75-5.73 4.9-10.25 9.09-10.05 9.29.64.66 6.9 1.93 9.96 2.02 1.65.04 5.54-.52 8.64-1.25zm-2.85-37.9a89.06 89.06 0 01-3.66-6c-2.16-3.77-2.4-4.75-1.18-4.75 1.91 0 1.91-.92.01-3.44-2.55-3.37-1.8-5.22 1.04-2.56 2.93 2.76 2.97 2.6.98-3.03-1.46-4.13-1.29-6.32.34-4.4C57.03 27.76 57.78 29.2 53.87 33.1c-2.27 2.27-8.21 2.72-9.71.75zm72.7 26.36c0-1.12 1.1-6.43 2.43-11.82 1.33-5.38 2.69-11 3-12.49.57-2.62.8-2.7 7.52-2.68 9.34.03 9.91.8 7.68 10.29-.95 4-2.4 8.26-3.23 9.44-1.67 2.4-6.77 2.97-8.04.92-.48-.77-1.18.46-1.85 3.25-.98 4.04-1.4 4.51-4.3 4.8-2.65.26-3.2-.04-3.2-1.71zm12.92-16.16c1.31-6.1 1.3-5.95.17-5.95-.5 0-1.4 2.28-2 5.05-1.31 6.1-1.3 5.95-.17 5.95.5 0 1.4-2.27 2-5.05zM86.42 54.2c-1.03-1.67 1.3-5.96 7.52-13.83l6.12-7.76-4.1-.3c-4.27-.32-4.78-1.04-3.06-4.26.9-1.67 2.15-1.94 9-1.94 7.7 0 7.97.08 7.97 2.35 0 2.38-3.52 7.85-9.74 15.15l-3.4 4 3.8.5c4.11.54 5.5 2.9 3.3 5.55-1.38 1.66-16.43 2.12-17.41.54zm21.43-.84c0-.96.98-5.9 2.2-11l2.2-9.25h3.31c1.82 0 3.3.42 3.3.93 0 1.18-3.91 17.7-4.65 19.62-.83 2.17-6.34 1.91-6.36-.3zm30.74 1.14c-2-2 2.67-10.45 7.1-12.88 4.48-2.46 6.01-4.01 6.72-6.82.51-2.04.3-2.69-.87-2.69-.84 0-1.68 1.02-1.85 2.25-.26 1.81-1.06 2.32-4.07 2.56-4.2.35-4.44-.22-2.3-5.34 1.68-4.04 5.45-5.88 10.38-5.1 4.6.74 6.17 2.3 6.17 6.2 0 5.42-1.65 8.19-6.95 11.65-2.76 1.8-5.03 3.5-5.04 3.78 0 .28 1.9.5 4.23.5 4.06 0 4.26.14 4.26 3v3l-8.55.29c-4.7.16-8.86-.02-9.23-.4zm-25.72-24.35c0-2.35 3.35-4.38 5.9-3.57 1.3.42 1.68 1.27 1.34 3.06-.4 2.05-1.05 2.47-3.86 2.47-2.7 0-3.38-.4-3.38-1.96z" fill="#a2102d"/></svg>