<?xml version="1.0" encoding="UTF-8" standalone="no"?>
<!-- Created with Inkscape (http://www.inkscape.org/) -->

<svg
   xmlns:dc="http://purl.org/dc/elements/1.1/"
   xmlns:cc="http://creativecommons.org/ns#"
   xmlns:rdf="http://www.w3.org/1999/02/22-rdf-syntax-ns#"
   xmlns:svg="http://www.w3.org/2000/svg"
   xmlns="http://www.w3.org/2000/svg"
   xmlns:sodipodi="http://sodipodi.sourceforge.net/DTD/sodipodi-0.dtd"
   xmlns:inkscape="http://www.inkscape.org/namespaces/inkscape"
   version="1.1"
   id="svg590"
   width="159.86565"
   height="85.604134"
   viewBox="0 0 159.86565 85.604134"
   sodipodi:docname="zip2.svg"
   inkscape:version="0.92.2 5c3e80d, 2017-08-06">
  <metadata
     id="metadata596">
    <rdf:RDF>
      <cc:Work
         rdf:about="">
        <dc:format>image/svg+xml</dc:format>
        <dc:type
           rdf:resource="http://purl.org/dc/dcmitype/StillImage" />
        <dc:title></dc:title>
      </cc:Work>
    </rdf:RDF>
  </metadata>
  <defs
     id="defs594" />
  <sodipodi:namedview
     pagecolor="#ffffff"
     bordercolor="#666666"
     borderopacity="1"
     objecttolerance="10"
     gridtolerance="10"
     guidetolerance="10"
     inkscape:pageopacity="0"
     inkscape:pageshadow="2"
     inkscape:window-width="1920"
     inkscape:window-height="1048"
     id="namedview592"
     showgrid="false"
     fit-margin-top="0"
     fit-margin-left="0"
     fit-margin-right="0"
     fit-margin-bottom="0"
     inkscape:zoom="5.25"
     inkscape:cx="79.865643"
     inkscape:cy="43.690479"
     inkscape:window-x="0"
     inkscape:window-y="0"
     inkscape:window-maximized="0"
     inkscape:current-layer="svg590" />
  <g
     id="g7318"
     transform="translate(-0.32483368,-37.514918)">
    <path
       style="fill:hsl(348, 82%, 35%);;fill-opacity:1"
       d="m 9.9317917,121.36905 c 0.5424133,-0.6875 2.6452713,-3.45178 4.6730183,-6.14285 l 3.686813,-4.89285 -4.909043,-4.60715 C -7.5187506,86.110251 -2.5587356,53.486615 23.190476,41.216464 c 5.924956,-2.823392 7.384682,-3.097415 16.5,-3.097415 9.096718,0 10.587392,0.278374 16.502865,3.081812 11.113295,5.26677 18.913733,15.068194 22.066533,27.727093 3.991072,16.024665 -6.473777,35.946256 -22.816754,43.435496 -7.545658,3.45784 -19.812738,4.28386 -27.291404,1.83771 l -5.093018,-1.66584 -5.819898,5.04187 c -5.345916,4.63124 -9.7878897,6.93634 -7.3070083,3.79186 z M 47.337924,109.25855 C 63.930531,105.3531 73.94976,91.757781 72.968115,74.480375 72.192563,60.83031 63.713333,49.029922 51.713245,44.900361 45.066773,42.613128 34.182232,42.659583 27.354709,45.004323 19.852391,47.580804 11.248828,56.137999 8.3500444,63.906562 3.6507491,76.500387 6.4024756,90.814146 15.310937,100.1153 c 5.333177,5.56826 6.382162,5.54251 10.028671,-0.246251 l 2.047271,-3.25 h -5.039185 c -2.771551,0 -5.274414,-0.38061 -5.561917,-0.845801 -0.287504,-0.46519 2.630239,-5.245889 6.483873,-10.623776 3.853634,-5.377886 6.796219,-9.988364 6.539077,-10.245505 -1.058247,-1.058247 -4.391292,0.921545 -5.445055,3.234304 -0.926516,2.03348 -1.844765,2.480778 -5.09274,2.480778 -4.773548,0 -5.290061,-0.657003 -4.049293,-5.150692 1.926796,-6.97828 9.689618,-11.417989 17.693338,-10.119164 2.209252,0.358513 5.034726,2.034494 7.640565,4.532141 5.165611,4.95114 9.88663,5.912224 13.817994,2.813005 1.475683,-1.163327 2.825683,-3.118674 3,-4.345215 0.26956,-1.896694 1.027033,-2.275639 5.06694,-2.534866 4.343136,-0.278684 4.75,-0.113003 4.75,1.934275 0,7.247354 -8.247286,15.418269 -16.671403,16.517023 -4.821089,0.628812 -7.328597,1.818118 -7.328597,3.475938 0,0.482655 1.35,0.877555 3,0.877555 1.65,0 3,0.372542 3,0.827872 0,0.455329 -4.683319,4.842829 -10.407376,9.75 -5.724056,4.907169 -10.246892,9.086789 -10.050746,9.288049 0.644779,0.66158 6.89817,1.92762 9.958122,2.0161 1.65,0.0477 5.541352,-0.51143 8.647448,-1.24252 z M 44.485116,71.369049 c -0.522637,-0.6875 -2.171706,-3.3875 -3.664598,-6 -2.156161,-3.773193 -2.397216,-4.75 -1.172196,-4.75 1.907636,0 1.91043,-0.928999 0.01035,-3.44113 -2.551408,-3.373263 -1.80513,-5.224031 1.031804,-2.55887 2.929517,2.752138 2.977557,2.604994 0.989323,-3.030263 -1.460175,-4.138576 -1.293547,-6.323749 0.33575,-4.40307 15.343118,18.087054 16.087835,19.520425 12.174927,23.433333 -2.260964,2.260964 -8.207398,2.720486 -9.70536,0.75 z M 117.19048,97.72247 c 0,-1.112813 1.09138,-6.428824 2.42528,-11.813359 1.3339,-5.384534 2.68709,-11.006101 3.00708,-12.492371 0.56477,-2.623173 0.7847,-2.701668 7.51003,-2.680412 9.33912,0.02952 9.91426,0.800173 7.67761,10.287539 -0.94543,4.010306 -2.39722,8.259801 -3.22619,9.443324 -1.67313,2.388734 -6.77082,2.968893 -8.04017,0.915038 -0.47465,-0.768003 -1.17629,0.463908 -1.85103,3.25 -0.98001,4.046602 -1.40137,4.517565 -4.29462,4.800178 -2.65689,0.259522 -3.20799,-0.03422 -3.20799,-1.709937 z m 12.91714,-16.152642 c 1.30821,-6.099978 1.30405,-5.950779 0.16572,-5.950779 -0.50442,0 -1.40442,2.272149 -2,5.049221 -1.30821,6.099978 -1.30405,5.950779 -0.16572,5.950779 0.50442,0 1.40442,-2.272149 2,-5.049221 z M 86.742339,91.702965 c -1.027828,-1.663061 1.309423,-5.960669 7.518185,-13.824021 l 6.127076,-7.759895 -4.098563,-0.307498 c -4.276078,-0.320816 -4.789026,-1.033839 -3.063377,-4.258243 0.890437,-1.663799 2.148875,-1.934259 9,-1.934259 7.69353,0 7.96482,0.08004 7.96482,2.349962 0,2.377818 -3.51401,7.847404 -9.73334,15.150038 l -3.406625,4 3.810305,0.5 c 4.10486,0.538654 5.49773,2.887639 3.28979,5.548039 -1.37321,1.654615 -16.430392,2.118119 -17.408271,0.535877 z m 21.432041,-0.833916 c -0.009,-0.9625 0.97972,-5.9125 2.19683,-11 l 2.21292,-9.25 h 3.30318 c 1.81674,0 3.30317,0.414469 3.30317,0.921043 0,1.185493 -3.91788,17.701384 -4.65441,19.620759 -0.83303,2.170828 -6.34136,1.918168 -6.36169,-0.291802 z m 30.73695,1.137519 c -1.99242,-1.992422 2.6751,-10.451722 7.10799,-12.882328 4.47777,-2.455217 6.00873,-4.009823 6.71327,-6.816957 0.51335,-2.04534 0.30669,-2.688234 -0.86415,-2.688234 -0.84637,0 -1.68266,1.0125 -1.85841,2.25 -0.25668,1.807329 -1.05733,2.311062 -4.06955,2.560365 -4.19507,0.347201 -4.44008,-0.223006 -2.29837,-5.348845 1.6848,-4.032287 5.45078,-5.877915 10.3876,-5.09074 4.5964,0.732894 6.16077,2.303816 6.16077,6.186565 0,5.42928 -1.6483,8.196715 -6.94506,11.660502 -2.76045,1.805184 -5.02767,3.507153 -5.03827,3.782153 -0.0106,0.275 1.89383,0.5 4.23204,0.5 4.05699,0 4.25129,0.137112 4.25129,3 v 3 l -8.54736,0.285977 c -4.70104,0.157288 -8.85535,-0.02202 -9.23179,-0.398458 z M 113.19048,67.654233 c 0,-2.348145 3.35016,-4.376209 5.89489,-3.568545 1.30947,0.415609 1.68659,1.271889 1.34565,3.055399 -0.39297,2.055691 -1.05027,2.477962 -3.85712,2.477962 -2.69656,0 -3.38342,-0.398874 -3.38342,-1.964816 z"
       id="path7358"
       inkscape:connector-curvature="0" />
  </g>
</svg>
